<svg width="62" height="32" viewBox="0 0 62 32" fill="none" xmlns="http://www.w3.org/2000/svg">
<path d="M58.0009 1H3.99915C2.34276 1 1 2.34276 1 3.99915V28.0009C1 29.6572 2.34276 31 3.99915 31H58.0009C59.6572 31 61 29.6572 61 28.0009V3.99915C61 2.34276 59.6572 1 58.0009 1Z" fill="white" stroke="white" stroke-width="0.22" stroke-miterlimit="22.93"/>
<path fill-rule="evenodd" clip-rule="evenodd" d="M20.6192 19.6268H16.2622V12.7639H20.6192V13.6824H17.3281V15.6894H20.4434V16.5738H17.3281V18.7027H20.6192V19.6268Z" fill="#313033"/>
<path fill-rule="evenodd" clip-rule="evenodd" d="M23.2101 16.9142H25.2823L24.2618 13.9065H24.2335L23.2101 16.9142ZM25.5544 17.7646H22.9408L22.3143 19.6185H21.2031L23.6807 12.7556H24.8316L27.3091 19.6185H26.1753L25.5544 17.7646Z" fill="#313033"/>
<path fill-rule="evenodd" clip-rule="evenodd" d="M28.7491 17.7136C28.8257 18.3939 29.4862 18.8475 30.3905 18.8475C31.2947 18.8475 31.8787 18.3996 31.8787 17.7873C31.8787 17.2544 31.5045 16.9369 30.6144 16.7186L29.7243 16.506C28.4657 16.1942 27.8987 15.6017 27.8987 14.6464C27.8987 13.4615 28.9306 12.6621 30.3961 12.6621C31.8617 12.6621 32.8397 13.4757 32.8737 14.6464H31.8362C31.7738 13.9604 31.2097 13.5494 30.382 13.5494C29.5542 13.5494 28.9788 13.9661 28.9788 14.5756C28.9788 15.0603 29.3416 15.3466 30.226 15.5649L30.9829 15.7491C32.4003 16.0808 32.9672 16.6477 32.9672 17.6512C32.9672 18.9354 31.9439 19.7376 30.3196 19.7376C28.7973 19.7376 27.7683 18.9524 27.7031 17.7108L28.7491 17.7136Z" fill="#313033"/>
<path fill-rule="evenodd" clip-rule="evenodd" d="M35.7712 19.6268V16.8148L33.356 12.7639H34.5437L36.2927 15.7942H36.3268L38.0758 12.7639H39.255L36.837 16.8148V19.6268H35.7712Z" fill="#313033"/>
<path fill-rule="evenodd" clip-rule="evenodd" d="M40.6551 16.4576H42.2908C43.3453 16.4576 43.9916 15.8736 43.9916 14.8985C43.9916 13.9233 43.3651 13.3422 42.2908 13.3422H40.6551V16.4604V16.4576ZM42.4438 12.7724C43.7506 12.7724 44.6464 13.6228 44.6464 14.907C44.6464 16.1911 43.7478 17.0472 42.441 17.0472H40.6551V19.6353H40.0088V12.7639L42.4438 12.7724Z" fill="#313033"/>
<path fill-rule="evenodd" clip-rule="evenodd" d="M46.0895 16.9623H48.5925L47.3623 13.5606H47.3339L46.1036 16.9623H46.0895ZM48.7768 17.5292H45.8939L45.1342 19.6297H44.4453L47.0136 12.7668H47.6599L50.2112 19.6297H49.5252L48.7768 17.5292Z" fill="#313033"/>
<path fill-rule="evenodd" clip-rule="evenodd" d="M51.9968 19.6268V16.6588L49.5391 12.7639H50.2789L52.3086 16.021H52.3341L54.3638 12.7639H55.1065L52.6488 16.6588V19.6268H51.9968Z" fill="#313033"/>
<path fill-rule="evenodd" clip-rule="evenodd" d="M10.8905 18.3032L9.16135 17.3054L7.43216 16.3076C7.37859 16.2767 7.31782 16.2604 7.25597 16.2605C7.19412 16.2606 7.13338 16.277 7.0799 16.308C7.02641 16.3391 6.98206 16.3837 6.95134 16.4374C6.92061 16.4911 6.90459 16.5519 6.9049 16.6137V20.605C6.90459 20.6669 6.92061 20.7277 6.95134 20.7814C6.98206 20.8351 7.02641 20.8797 7.0799 20.9108C7.13338 20.9418 7.19412 20.9582 7.25597 20.9583C7.31782 20.9584 7.37859 20.9421 7.43216 20.9112L9.16135 19.9134L10.8905 18.9127C10.9441 18.8819 10.9886 18.8375 11.0196 18.784C11.0505 18.7305 11.0668 18.6698 11.0668 18.608C11.0668 18.5462 11.0505 18.4854 11.0196 18.4319C10.9886 18.3784 10.9441 18.3341 10.8905 18.3032ZM11.5794 13.6968C11.6334 13.6656 11.6947 13.6493 11.757 13.6497C11.8193 13.65 11.8805 13.6669 11.9341 13.6986C11.9878 13.7303 12.0321 13.7758 12.0624 13.8303C12.0927 13.8847 12.108 13.9463 12.1066 14.0086V17.9971C12.1069 18.0589 12.0909 18.1198 12.0602 18.1735C12.0295 18.2271 11.9851 18.2718 11.9316 18.3028C11.8782 18.3339 11.8174 18.3503 11.7556 18.3503C11.6937 18.3504 11.6329 18.3342 11.5794 18.3032L9.85019 17.3054L8.121 16.3076C8.06741 16.2768 8.0229 16.2324 7.99194 16.1789C7.96099 16.1254 7.94469 16.0647 7.94469 16.0029C7.94469 15.941 7.96099 15.8803 7.99194 15.8268C8.0229 15.7733 8.06741 15.7289 8.121 15.6981L9.85019 14.7003L11.5794 13.7025V13.6968ZM7.42082 11.0888C7.36726 11.0579 7.30648 11.0417 7.24463 11.0417C7.18278 11.0418 7.12204 11.0582 7.06856 11.0893C7.01507 11.1203 6.97072 11.165 6.94 11.2186C6.90927 11.2723 6.89325 11.3331 6.89356 11.395V15.3891C6.89325 15.451 6.90927 15.5118 6.94 15.5655C6.97072 15.6192 7.01507 15.6638 7.06856 15.6949C7.12204 15.7259 7.18278 15.7423 7.24463 15.7424C7.30648 15.7425 7.36726 15.7262 7.42082 15.6953L9.15001 14.6975L10.8905 13.6968C10.9441 13.666 10.9886 13.6216 11.0196 13.5681C11.0505 13.5146 11.0668 13.4539 11.0668 13.3921C11.0668 13.3303 11.0505 13.2695 11.0196 13.216C10.9886 13.1625 10.9441 13.1181 10.8905 13.0873L9.16135 12.0895L7.42082 11.0888Z" fill="#A1CD3A"/>
</svg>
