<svg width="62" height="32" viewBox="0 0 62 32" fill="none" xmlns="http://www.w3.org/2000/svg">
<path d="M58.0009 1H3.99915C2.34276 1 1 2.34276 1 3.99915V28.0009C1 29.6572 2.34276 31 3.99915 31H58.0009C59.6572 31 61 29.6572 61 28.0009V3.99915C61 2.34276 59.6572 1 58.0009 1Z" fill="white" stroke="white" stroke-width="0.22" stroke-miterlimit="22.93"/>
<path fill-rule="evenodd" clip-rule="evenodd" d="M38.3081 26.9265L38.8722 26.9123L39.4278 26.8698L39.9749 26.8017L40.5163 26.7053L41.0436 26.5835L41.5623 26.436L42.0726 26.2631L42.5687 26.0675L43.0562 25.8464L43.5268 25.6055L43.9832 25.3418L44.4311 25.0584L44.8563 24.7522L45.2702 24.4262L45.6699 24.0832L46.0497 23.7204L46.4126 23.3405L46.7556 22.9408L47.0787 22.5298L47.3877 22.1017L47.6712 21.6539L47.9348 21.1975L48.1758 20.7269L48.3969 20.2393L48.5925 19.7432L48.7654 19.233L48.9128 18.7142L49.0347 18.187L49.1311 17.6455L49.1991 17.0984L49.2388 16.5428L49.2558 15.9787L49.2388 15.4203L49.1991 14.8647L49.1311 14.3204L49.0347 13.7875L48.9128 13.2602L48.7654 12.7443L48.5925 12.234L48.3969 11.7408L48.1758 11.2589L47.9348 10.7855L47.6712 10.3319L47.3877 9.88687L47.0787 9.45882L46.7556 9.05062L46.4126 8.65092L46.0497 8.2739L45.6699 7.91106L45.2702 7.56805L44.8563 7.24489L44.4311 6.93874L43.9832 6.65527L43.5268 6.39164L43.0562 6.15352L42.5687 5.93241L42.0726 5.73681L41.5623 5.5639L41.0436 5.41649L40.5163 5.2946L39.9749 5.19821L39.4278 5.12735L38.8722 5.08766L38.3081 5.07349L37.7468 5.08766L37.1912 5.12735L36.6469 5.19821L36.1083 5.2946L35.581 5.41649L35.0623 5.5639L34.5549 5.73681L34.0588 5.93241L33.5769 6.15352L33.1092 6.39164L32.6499 6.65527L32.2077 6.93874L31.7797 7.24489L31.3686 7.56805L30.9746 7.91106L30.5947 8.2739L30.2319 8.65092L29.8889 9.05062L29.5657 9.45882L29.2624 9.88687L28.9789 10.3319L28.7181 10.7855L28.4744 11.2589L28.2589 11.7408L28.0633 12.234L27.8932 12.7443L27.7458 13.2602L27.6239 13.7875L27.5276 14.3204L27.4567 14.8647L27.417 15.4203L27.4028 15.9787L27.417 16.5428L27.4567 17.0984L27.5276 17.6455L27.6239 18.187L27.7458 18.7142L27.8932 19.233L28.0633 19.7432L28.2589 20.2393L28.4744 20.7269L28.7181 21.1975L28.9789 21.6539L29.2624 22.1017L29.5657 22.5298L29.8889 22.9408L30.2319 23.3405L30.5947 23.7204L30.9746 24.0832L31.3686 24.4262L31.7797 24.7522L32.2077 25.0584L32.6499 25.3418L33.1092 25.6055L33.5769 25.8464L34.0588 26.0675L34.5549 26.2631L35.0623 26.436L35.581 26.5835L36.1083 26.7053L36.6469 26.8017L37.1912 26.8698L37.7468 26.9123L38.3081 26.9265Z" fill="#FCB331"/>
<path fill-rule="evenodd" clip-rule="evenodd" d="M23.6919 26.9265L24.2503 26.9123L24.8059 26.8698L25.353 26.8017L25.8916 26.7053L26.4189 26.5835L26.9377 26.436L27.4422 26.2631L27.9412 26.0675L28.4231 25.8464L28.8908 25.6055L29.3472 25.3418L29.7894 25.0584L30.2174 24.7522L30.6313 24.4262L31.0253 24.0832L31.4052 23.7204L31.7652 23.3405L32.1082 22.9408L32.4342 22.5298L32.7347 22.1017L33.0182 21.6539L33.2818 21.1975L33.5227 20.7269L33.741 20.2393L33.9366 19.7432L34.1067 19.233L34.2541 18.7142L34.376 18.187L34.4724 17.6455L34.5404 17.0984L34.5829 16.5428L34.5971 15.9787L34.5829 15.4203L34.5404 14.8647L34.4724 14.3204L34.376 13.7875L34.2541 13.2602L34.1067 12.7443L33.9366 12.234L33.741 11.7408L33.5227 11.2589L33.2818 10.7855L33.0182 10.3319L32.7347 9.88687L32.4342 9.45882L32.1082 9.05062L31.7652 8.65092L31.4052 8.2739L31.0253 7.91106L30.6313 7.56805L30.2174 7.24489L29.7894 6.93874L29.3472 6.65527L28.8908 6.39164L28.4231 6.15352L27.9412 5.93241L27.4422 5.73681L26.9377 5.5639L26.4189 5.41649L25.8916 5.2946L25.353 5.19821L24.8059 5.12735L24.2503 5.08766L23.6919 5.07349L23.1278 5.08766L22.5693 5.12735L22.0251 5.19821L21.4836 5.2946L20.9564 5.41649L20.4348 5.5639L19.9274 5.73681L19.4313 5.93241L18.9437 6.15352L18.4703 6.39164L18.0139 6.65527L17.5689 6.93874L17.1408 7.24489L16.7269 7.56805L16.3301 7.91106L15.9502 8.2739L15.5845 8.65092L15.2415 9.05062L14.9184 9.45882L14.6122 9.88687L14.3288 10.3319L14.0623 10.7855L13.8242 11.2589L13.6031 11.7408L13.4075 12.234L13.2345 12.7443L13.0871 13.2602L12.9652 13.7875L12.8689 14.3204L12.798 14.8647L12.7583 15.4203L12.7441 15.9787L12.7583 16.5428L12.798 17.0984L12.8689 17.6455L12.9652 18.187L13.0871 18.7142L13.2345 19.233L13.4075 19.7432L13.6031 20.2393L13.8242 20.7269L14.0623 21.1975L14.3288 21.6539L14.6122 22.1017L14.9184 22.5298L15.2415 22.9408L15.5845 23.3405L15.9502 23.7204L16.3301 24.0832L16.7269 24.4262L17.1408 24.7522L17.5689 25.0584L18.0139 25.3418L18.4703 25.6055L18.9437 25.8464L19.4313 26.0675L19.9274 26.2631L20.4348 26.436L20.9564 26.5835L21.4836 26.7053L22.0251 26.8017L22.5693 26.8698L23.1278 26.9123L23.6919 26.9265Z" fill="#ED1B2E"/>
<path fill-rule="evenodd" clip-rule="evenodd" d="M29.7217 9.26336H35.5244V8.6709H30.2206L29.7217 9.26336Z" fill="#FCB331"/>
<path fill-rule="evenodd" clip-rule="evenodd" d="M28.8516 10.5841H35.5245V9.98877H29.2002L28.8516 10.5841Z" fill="#FCB331"/>
<path fill-rule="evenodd" clip-rule="evenodd" d="M28.2021 11.8996H35.5243V11.3071H28.4601L28.2021 11.8996Z" fill="#FCB331"/>
<path fill-rule="evenodd" clip-rule="evenodd" d="M27.7573 13.2177H35.5245V12.6252H27.9416L27.7573 13.2177Z" fill="#FCB331"/>
<path fill-rule="evenodd" clip-rule="evenodd" d="M28.0151 19.5958H35.5441V19.0005H27.8308L28.0151 19.5958Z" fill="#FCB331"/>
<path fill-rule="evenodd" clip-rule="evenodd" d="M28.5703 20.914H35.5437V20.3215H28.2925L28.5703 20.914Z" fill="#FCB331"/>
<path fill-rule="evenodd" clip-rule="evenodd" d="M29.3532 22.2294H35.5443V21.637H28.979L29.3532 22.2294Z" fill="#FCB331"/>
<path fill-rule="evenodd" clip-rule="evenodd" d="M30.4274 23.5503H35.5441V22.9521H29.9087L30.4274 23.5503Z" fill="#FCB331"/>
<path fill-rule="evenodd" clip-rule="evenodd" d="M27.4937 14.5331H35.5245V13.9407H27.6099L27.4937 14.5331Z" fill="#FCB331"/>
<path fill-rule="evenodd" clip-rule="evenodd" d="M32.3892 18.2775H35.4507V17.6851H32.4997L32.3892 18.2775Z" fill="#FCB331"/>
<path fill-rule="evenodd" clip-rule="evenodd" d="M32.6328 16.9625H35.4505V16.3672H32.7434L32.6328 16.9625Z" fill="#FCB331"/>
<path fill-rule="evenodd" clip-rule="evenodd" d="M27.292 16.3672H28.0886V16.9625H27.3288L27.292 16.3672Z" fill="#FCB331"/>
<path fill-rule="evenodd" clip-rule="evenodd" d="M25.8067 15.6472L25.7557 15.6443L25.7018 15.6358L25.6536 15.6302L25.6083 15.6217L25.5629 15.6132L25.5147 15.6075L25.4665 15.599L25.4155 15.5933L25.3645 15.5848L25.305 15.582L25.2398 15.5763L25.1689 15.5735H25.0924L25.0073 15.5763L24.9109 15.5848L24.8032 15.5933L24.7295 15.6047L24.6615 15.6132L24.5963 15.6358L24.5424 15.6585L24.4914 15.684L24.4432 15.7152L24.4064 15.7521L24.3723 15.7832L24.3497 15.8258L24.3327 15.8654L24.3241 15.908V15.9533L24.3355 16.0015L24.3497 16.0497L24.3808 16.0979L24.4177 16.1461L24.4914 16.2141L24.5793 16.2708L24.6813 16.319L24.7919 16.3587L24.9109 16.3955L25.0328 16.4352L25.1547 16.4806L25.2709 16.5288L25.3815 16.5911L25.4864 16.6677L25.5771 16.7612L25.6536 16.8746L25.7132 17.0135L25.75 17.1808L25.7642 17.3792L25.75 17.6116L25.7245 17.7846L25.682 17.9376L25.6225 18.0765L25.5488 18.1984L25.4637 18.3062L25.3673 18.3969L25.2653 18.4791L25.1491 18.5471L25.0328 18.6038L24.9109 18.652L24.7862 18.6888L24.6558 18.7172L24.5311 18.7399L24.4092 18.7512L24.2873 18.7597L24.1739 18.7625H24.0152L23.8678 18.7597H23.7374L23.6155 18.754L23.5049 18.7512L23.4057 18.7427L23.3178 18.737L23.2328 18.7257L23.1562 18.7172L23.0854 18.703L23.0173 18.6917L22.955 18.6747L22.8898 18.6577L22.8331 18.6378L22.7735 18.6151L22.7112 18.5925L22.8756 17.7789L22.9096 17.7846L22.9493 17.7959L23.0003 17.8101L23.0627 17.8271L23.1307 17.8413L23.2044 17.8554L23.2838 17.8724L23.3745 17.8894L23.4652 17.9036L23.5616 17.9178L23.6608 17.9291L23.7657 17.9405L23.8706 17.9433L23.9783 17.949H24.086L24.1909 17.9433L24.2986 17.9206L24.3837 17.8923L24.4489 17.8526L24.5027 17.8016L24.5396 17.7477L24.5679 17.6882L24.5849 17.6315L24.602 17.5748L24.6076 17.4671L24.5764 17.3764L24.5141 17.3027L24.4205 17.2403L24.31 17.1836L24.1796 17.1297L24.0378 17.0787L23.8933 17.0192L23.7459 16.9512L23.607 16.8746L23.4766 16.7782L23.3575 16.6648L23.2668 16.5259L23.2016 16.3587L23.1676 16.1603L23.1704 15.925L23.1903 15.7804L23.2158 15.6443L23.2526 15.5196L23.2951 15.4006L23.3547 15.29L23.4227 15.1936L23.4992 15.1029L23.59 15.0207L23.6977 14.9498L23.8167 14.8931L23.9471 14.8364L24.0974 14.7968L24.2618 14.7627L24.4432 14.7372L24.6416 14.7231L24.8599 14.7202H24.996L25.1207 14.7231L25.2341 14.7259L25.339 14.7287L25.4297 14.7372L25.5147 14.7457L25.5884 14.7514L25.6536 14.7599L25.7188 14.7656L25.7699 14.7769L25.8181 14.7854L25.8606 14.7939L25.8974 14.7996L25.9314 14.8024L25.9655 14.8109L25.9938 14.8138L25.8067 15.6472Z" fill="white"/>
<path fill-rule="evenodd" clip-rule="evenodd" d="M25.8067 15.6472L25.7557 15.6443L25.7018 15.6358L25.6536 15.6302L25.6083 15.6217L25.5629 15.6132L25.5147 15.6075L25.4665 15.599L25.4155 15.5933L25.3645 15.5848L25.305 15.582L25.2398 15.5763L25.1689 15.5735H25.0924L25.0073 15.5763L24.9109 15.5848L24.8032 15.5933L24.7295 15.6047L24.6615 15.6132L24.5963 15.6358L24.5424 15.6585L24.4914 15.684L24.4432 15.7152L24.4064 15.7521L24.3723 15.7832L24.3497 15.8258L24.3327 15.8654L24.3241 15.908V15.9533L24.3355 16.0015L24.3497 16.0497L24.3808 16.0979L24.4177 16.1461L24.4914 16.2141L24.5793 16.2708L24.6813 16.319L24.7919 16.3587L24.9109 16.3955L25.0328 16.4352L25.1547 16.4806L25.2709 16.5288L25.3815 16.5911L25.4864 16.6677L25.5771 16.7612L25.6536 16.8746L25.7132 17.0135L25.75 17.1808L25.7642 17.3792L25.75 17.6116L25.7245 17.7846L25.682 17.9376L25.6225 18.0765L25.5488 18.1984L25.4637 18.3062L25.3673 18.3969L25.2653 18.4791L25.1491 18.5471L25.0328 18.6038L24.9109 18.652L24.7862 18.6888L24.6558 18.7172L24.5311 18.7399L24.4092 18.7512L24.2873 18.7597L24.1739 18.7625H24.0152L23.8678 18.7597H23.7374L23.6155 18.754L23.5049 18.7512L23.4057 18.7427L23.3178 18.737L23.2328 18.7257L23.1562 18.7172L23.0854 18.703L23.0173 18.6917L22.955 18.6747L22.8898 18.6577L22.8331 18.6378L22.7735 18.6151L22.7112 18.5925L22.8756 17.7789L22.9096 17.7846L22.9493 17.7959L23.0003 17.8101L23.0627 17.8271L23.1307 17.8413L23.2044 17.8554L23.2838 17.8724L23.3745 17.8894L23.4652 17.9036L23.5616 17.9178L23.6608 17.9291L23.7657 17.9405L23.8706 17.9433L23.9783 17.949H24.086L24.1909 17.9433L24.2986 17.9206L24.3837 17.8923L24.4489 17.8526L24.5027 17.8016L24.5396 17.7477L24.5679 17.6882L24.5849 17.6315L24.602 17.5748L24.6076 17.4671L24.5764 17.3764L24.5141 17.3027L24.4205 17.2403L24.31 17.1836L24.1796 17.1297L24.0378 17.0787L23.8933 17.0192L23.7459 16.9512L23.607 16.8746L23.4766 16.7782L23.3575 16.6648L23.2668 16.5259L23.2016 16.3587L23.1676 16.1603L23.1704 15.925L23.1903 15.7804L23.2158 15.6443L23.2526 15.5196L23.2951 15.4006L23.3547 15.29L23.4227 15.1936L23.4992 15.1029L23.59 15.0207L23.6977 14.9498L23.8167 14.8931L23.9471 14.8364L24.0974 14.7968L24.2618 14.7627L24.4432 14.7372L24.6416 14.7231L24.8599 14.7202H24.996L25.1207 14.7231L25.2341 14.7259L25.339 14.7287L25.4297 14.7372L25.5147 14.7457L25.5884 14.7514L25.6536 14.7599L25.7188 14.7656L25.7699 14.7769L25.8181 14.7854L25.8606 14.7939L25.8974 14.7996L25.9314 14.8024L25.9655 14.8109L25.9938 14.8138L25.8067 15.6472Z" stroke="white" stroke-width="0.15" stroke-miterlimit="2.61"/>
<path fill-rule="evenodd" clip-rule="evenodd" d="M26.6798 13.9036H27.7003L27.5501 14.7965H28.1652L28.032 15.6299L27.3828 15.6101L27.0313 17.6681L27.0256 17.7418L27.0455 17.8042L27.0823 17.8524L27.1305 17.892L27.1957 17.9175L27.2694 17.9402L27.3516 17.9544L27.4395 17.9629L27.5189 17.9572L27.5926 17.9516L27.6606 17.9402L27.7201 17.9261L27.7655 17.9119L27.7995 17.9005L27.8222 17.892L27.8307 17.8892L27.7003 18.5724L27.6748 18.5922L27.6493 18.6064L27.6238 18.6206L27.5982 18.6376L27.5727 18.6489L27.5416 18.6574L27.5104 18.6688L27.4764 18.6801L27.4395 18.6914L27.4027 18.6999L27.3573 18.7056L27.3148 18.7141L27.2666 18.7226L27.2099 18.7283L27.1504 18.7368L27.088 18.7425H26.8102L26.6628 18.7311L26.5324 18.7169L26.4133 18.6943L26.3141 18.6688L26.2291 18.6376L26.161 18.6007L26.0958 18.5554L26.0505 18.5072L26.0136 18.4561L25.9881 18.3938L25.9683 18.3314L25.9569 18.2606L25.9541 18.184V18.1018L25.9654 18.0168L25.9768 17.9261L26.6798 13.9036Z" fill="white"/>
<path fill-rule="evenodd" clip-rule="evenodd" d="M26.6798 13.9036H27.7003L27.5501 14.7965H28.1652L28.032 15.6299L27.3828 15.6101L27.0313 17.6681L27.0256 17.7418L27.0455 17.8042L27.0823 17.8524L27.1305 17.892L27.1957 17.9175L27.2694 17.9402L27.3516 17.9544L27.4395 17.9629L27.5189 17.9572L27.5926 17.9516L27.6606 17.9402L27.7201 17.9261L27.7655 17.9119L27.7995 17.9005L27.8222 17.892L27.8307 17.8892L27.7003 18.5724L27.6748 18.5922L27.6493 18.6064L27.6238 18.6206L27.5982 18.6376L27.5727 18.6489L27.5416 18.6574L27.5104 18.6688L27.4764 18.6801L27.4395 18.6914L27.4027 18.6999L27.3573 18.7056L27.3148 18.7141L27.2666 18.7226L27.2099 18.7283L27.1504 18.7368L27.088 18.7425H26.8102L26.6628 18.7311L26.5324 18.7169L26.4133 18.6943L26.3141 18.6688L26.2291 18.6376L26.161 18.6007L26.0958 18.5554L26.0505 18.5072L26.0136 18.4561L25.9881 18.3938L25.9683 18.3314L25.9569 18.2606L25.9541 18.184V18.1018L25.9654 18.0168L25.9768 17.9261L26.6798 13.9036Z" stroke="white" stroke-width="0.15" stroke-miterlimit="2.61"/>
<path fill-rule="evenodd" clip-rule="evenodd" d="M28.9787 17.0192L28.9673 17.0815L28.9645 17.1467L28.973 17.2176L28.9872 17.2885L29.0127 17.3565L29.041 17.4246L29.0835 17.4954L29.1261 17.5578L29.1799 17.6201L29.2338 17.674L29.2933 17.7307L29.3585 17.7732L29.4266 17.8157L29.5003 17.8469L29.574 17.8724L29.6477 17.8894L29.7412 17.9036L29.8348 17.915L29.9311 17.9263L30.0275 17.932L30.1211 17.9376H30.2203L30.3167 17.932L30.4159 17.9263L30.5151 17.9121L30.6171 17.8923L30.7192 17.8696L30.8184 17.8384L30.9233 17.7959L31.0282 17.7534L31.1331 17.6939L31.2379 17.6315L31.0905 18.5386L31.0338 18.567L30.9743 18.5953L30.9148 18.618L30.8581 18.6407L30.8042 18.6577L30.7447 18.6775L30.6852 18.6917L30.6228 18.703L30.5576 18.7144L30.4839 18.7229L30.4045 18.7285L30.3223 18.737L30.2259 18.7399H30.1267L30.0105 18.7427H29.8886L29.71 18.7399L29.5258 18.7229L29.3415 18.6945L29.1573 18.652L28.9758 18.5953L28.8029 18.5273L28.6357 18.4337L28.4826 18.326L28.338 18.2013L28.2133 18.051L28.1056 17.8809L28.0177 17.6853L27.9553 17.4671L27.9156 17.2205L27.9043 16.9483L27.9213 16.645L27.9355 16.5288L27.9582 16.3927L27.9893 16.2481L28.029 16.0922L28.0829 15.9363L28.1509 15.7776L28.236 15.6132L28.338 15.4601L28.4571 15.3127L28.5988 15.1709L28.7632 15.0462L28.9475 14.9357L29.1601 14.8449L29.401 14.7769L29.6647 14.7344L29.9623 14.7202L30.1069 14.7231L30.26 14.7372L30.4102 14.7627L30.5604 14.7996L30.7079 14.8563L30.8524 14.9215L30.9857 15.0094L31.1047 15.1142L31.2153 15.239L31.3088 15.3864L31.3825 15.5565L31.4335 15.7521L31.4647 15.9732L31.4676 16.2226L31.442 16.5033L31.3854 16.8122L31.3683 17.0362H28.681L28.8511 16.3105H30.4641L30.4726 16.2198L30.4697 16.1291L30.4612 16.0497L30.4471 15.976L30.4215 15.9051L30.396 15.8428L30.3592 15.7889L30.3223 15.7351L30.277 15.6925L30.2288 15.6557L30.1749 15.6217L30.1182 15.5933L30.0587 15.5706L30.002 15.5565L29.9368 15.5451L29.8716 15.5366L29.8007 15.5423L29.7355 15.5508L29.6732 15.5678L29.6108 15.5876L29.5456 15.6188L29.4918 15.6528L29.4351 15.6925L29.3897 15.7351L29.3415 15.7889L29.2962 15.8428L29.2565 15.9023L29.2224 15.9647L29.1884 16.0299L29.1629 16.1036L29.1431 16.1773L29.1261 16.2566L28.9787 17.0192Z" fill="white"/>
<path fill-rule="evenodd" clip-rule="evenodd" d="M28.9787 17.0192L28.9673 17.0815L28.9645 17.1467L28.973 17.2176L28.9872 17.2885L29.0127 17.3565L29.041 17.4246L29.0835 17.4954L29.1261 17.5578L29.1799 17.6201L29.2338 17.674L29.2933 17.7307L29.3585 17.7732L29.4266 17.8157L29.5003 17.8469L29.574 17.8724L29.6477 17.8894L29.7412 17.9036L29.8348 17.915L29.9311 17.9263L30.0275 17.932L30.1211 17.9376H30.2203L30.3167 17.932L30.4159 17.9263L30.5151 17.9121L30.6171 17.8923L30.7192 17.8696L30.8184 17.8384L30.9233 17.7959L31.0282 17.7534L31.1331 17.6939L31.2379 17.6315L31.0905 18.5386L31.0338 18.567L30.9743 18.5953L30.9148 18.618L30.8581 18.6407L30.8042 18.6577L30.7447 18.6775L30.6852 18.6917L30.6228 18.703L30.5576 18.7144L30.4839 18.7229L30.4045 18.7285L30.3223 18.737L30.2259 18.7399H30.1267L30.0105 18.7427H29.8886L29.71 18.7399L29.5258 18.7229L29.3415 18.6945L29.1573 18.652L28.9758 18.5953L28.8029 18.5273L28.6357 18.4337L28.4826 18.326L28.338 18.2013L28.2133 18.051L28.1056 17.8809L28.0177 17.6853L27.9553 17.4671L27.9156 17.2205L27.9043 16.9483L27.9213 16.645L27.9355 16.5288L27.9582 16.3927L27.9893 16.2481L28.029 16.0922L28.0829 15.9363L28.1509 15.7776L28.236 15.6132L28.338 15.4601L28.4571 15.3127L28.5988 15.1709L28.7632 15.0462L28.9475 14.9357L29.1601 14.8449L29.401 14.7769L29.6647 14.7344L29.9623 14.7202L30.1069 14.7231L30.26 14.7372L30.4102 14.7627L30.5604 14.7996L30.7079 14.8563L30.8524 14.9215L30.9857 15.0094L31.1047 15.1142L31.2153 15.239L31.3088 15.3864L31.3825 15.5565L31.4335 15.7521L31.4647 15.9732L31.4676 16.2226L31.442 16.5033L31.3854 16.8122L31.3683 17.0362H28.681L28.8511 16.3105H30.4641L30.4726 16.2198L30.4697 16.1291L30.4612 16.0497L30.4471 15.976L30.4215 15.9051L30.396 15.8428L30.3592 15.7889L30.3223 15.7351L30.277 15.6925L30.2288 15.6557L30.1749 15.6217L30.1182 15.5933L30.0587 15.5706L30.002 15.5565L29.9368 15.5451L29.8716 15.5366L29.8007 15.5423L29.7355 15.5508L29.6732 15.5678L29.6108 15.5876L29.5456 15.6188L29.4918 15.6528L29.4351 15.6925L29.3897 15.7351L29.3415 15.7889L29.2962 15.8428L29.2565 15.9023L29.2224 15.9647L29.1884 16.0299L29.1629 16.1036L29.1431 16.1773L29.1261 16.2566L28.9787 17.0192Z" stroke="white" stroke-width="0.15" stroke-miterlimit="2.61"/>
<path fill-rule="evenodd" clip-rule="evenodd" d="M37.7696 15.0177L37.7214 14.9922L37.6761 14.9695L37.6222 14.944L37.5683 14.9185L37.5116 14.8958L37.4493 14.8732L37.3869 14.8505L37.3217 14.8306L37.2508 14.8108L37.18 14.7966L37.1034 14.7824L37.0269 14.7711L36.9419 14.7626L36.8568 14.7541H36.5847L36.4883 14.7626L36.3891 14.7739L36.2842 14.7938L36.1822 14.8221L36.0801 14.8618L35.9752 14.9157L35.8732 14.9809L35.7739 15.0631L35.6776 15.1566L35.584 15.2757L35.4961 15.4118L35.4168 15.5733L35.3374 15.7576L35.2665 15.9645L35.2098 16.1998L35.1872 16.333L35.173 16.4634L35.1645 16.591L35.1673 16.7157L35.1787 16.8405L35.2042 16.9595L35.2382 17.0701L35.2779 17.1806L35.3346 17.2798L35.3998 17.3762L35.4791 17.4613L35.567 17.5378L35.6662 17.6058L35.7796 17.6597L35.9043 17.7079L36.0461 17.7419L36.0943 17.7532L36.1481 17.7617L36.2162 17.7703L36.287 17.7788L36.3692 17.7844H36.5478L36.6385 17.7788L36.7349 17.7674L36.8313 17.7476L36.922 17.7221L37.0156 17.6937L37.1063 17.6512L37.1913 17.6058L37.2679 17.5463L37.3416 17.4783L37.1771 18.4648L37.1545 18.4818L37.1318 18.5044L37.1034 18.53L37.0694 18.5526L37.0297 18.581L36.9787 18.6065L36.9192 18.632L36.8511 18.6547L36.7689 18.6802L36.6726 18.7L36.562 18.7142L36.4316 18.7284L36.287 18.7369L36.1226 18.7397L35.9355 18.7369L35.7286 18.7256L35.5585 18.7057L35.3884 18.6689L35.2212 18.615L35.0511 18.5413L34.8895 18.4534L34.7336 18.3429L34.5862 18.2125L34.4501 18.0651L34.3282 17.9006L34.2233 17.7164L34.1355 17.5095L34.0703 17.2827L34.0249 17.0361L34.0107 16.7753L34.0192 16.489L34.0589 16.1828L34.0873 16.0297L34.1213 15.8823L34.1581 15.7406L34.195 15.6045L34.2347 15.4741L34.2829 15.3466L34.3311 15.2247L34.3821 15.1084L34.4388 14.995L34.4926 14.8873L34.555 14.7853L34.623 14.6889L34.6882 14.5982L34.7619 14.5075L34.8357 14.4281L34.915 14.3487L35.0001 14.2779L35.0823 14.207L35.173 14.1446L35.2637 14.0851L35.3629 14.0284L35.4621 13.983L35.567 13.9377L35.6719 13.898L35.7881 13.8612L35.9015 13.83L36.0206 13.8045L36.1453 13.7818L36.27 13.7648L36.4033 13.7506L36.5365 13.7421L36.6754 13.7393L36.7945 13.7421L36.9078 13.7506L37.0184 13.7591L37.129 13.7761L37.231 13.7903L37.3331 13.813L37.4266 13.83L37.5173 13.8526L37.5995 13.8753L37.6761 13.898L37.7441 13.9178L37.8036 13.9405L37.8546 13.9604L37.9 13.9745L37.934 13.9887L37.9539 13.9972L37.7696 15.0177Z" fill="white"/>
<path fill-rule="evenodd" clip-rule="evenodd" d="M37.7696 15.0177L37.7214 14.9922L37.6761 14.9695L37.6222 14.944L37.5683 14.9185L37.5116 14.8958L37.4493 14.8732L37.3869 14.8505L37.3217 14.8306L37.2508 14.8108L37.18 14.7966L37.1034 14.7824L37.0269 14.7711L36.9419 14.7626L36.8568 14.7541H36.6754H36.5847L36.4883 14.7626L36.3891 14.7739L36.2842 14.7938L36.1822 14.8221L36.0801 14.8618L35.9752 14.9157L35.8732 14.9809L35.7739 15.0631L35.6776 15.1566L35.584 15.2757L35.4961 15.4118L35.4168 15.5733L35.3374 15.7576L35.2665 15.9645L35.2098 16.1998L35.1872 16.333L35.173 16.4634L35.1645 16.591L35.1673 16.7157L35.1787 16.8405L35.2042 16.9595L35.2382 17.0701L35.2779 17.1806L35.3346 17.2798L35.3998 17.3762L35.4791 17.4613L35.567 17.5378L35.6662 17.6058L35.7796 17.6597L35.9043 17.7079L36.0461 17.7419L36.0943 17.7532L36.1481 17.7617L36.2162 17.7703L36.287 17.7788L36.3692 17.7844H36.5478L36.6385 17.7788L36.7349 17.7674L36.8313 17.7476L36.922 17.7221L37.0156 17.6937L37.1063 17.6512L37.1913 17.6058L37.2679 17.5463L37.3416 17.4783L37.1771 18.4648L37.1545 18.4818L37.1318 18.5044L37.1034 18.53L37.0694 18.5526L37.0297 18.581L36.9787 18.6065L36.9192 18.632L36.8511 18.6547L36.7689 18.6802L36.6726 18.7L36.562 18.7142L36.4316 18.7284L36.287 18.7369L36.1226 18.7397L35.9355 18.7369L35.7286 18.7256L35.5585 18.7057L35.3884 18.6689L35.2212 18.615L35.0511 18.5413L34.8895 18.4534L34.7336 18.3429L34.5862 18.2125L34.4501 18.0651L34.3282 17.9006L34.2233 17.7164L34.1355 17.5095L34.0703 17.2827L34.0249 17.0361L34.0107 16.7753L34.0192 16.489L34.0589 16.1828L34.0873 16.0297L34.1213 15.8823L34.1581 15.7406L34.195 15.6045L34.2347 15.4741L34.2829 15.3466L34.3311 15.2247L34.3821 15.1084L34.4388 14.995L34.4926 14.8873L34.555 14.7853L34.623 14.6889L34.6882 14.5982L34.7619 14.5075L34.8357 14.4281L34.915 14.3487L35.0001 14.2779L35.0823 14.207L35.173 14.1446L35.2637 14.0851L35.3629 14.0284L35.4621 13.983L35.567 13.9377L35.6719 13.898L35.7881 13.8612L35.9015 13.83L36.0206 13.8045L36.1453 13.7818L36.27 13.7648L36.4033 13.7506L36.5365 13.7421L36.6754 13.7393L36.7945 13.7421L36.9078 13.7506L37.0184 13.7591L37.129 13.7761L37.231 13.7903L37.3331 13.813L37.4266 13.83L37.5173 13.8526L37.5995 13.8753L37.6761 13.898L37.7441 13.9178L37.8036 13.9405L37.8546 13.9604L37.9 13.9745L37.934 13.9887L37.9539 13.9972L37.7696 15.0177Z" stroke="white" stroke-width="0.15" stroke-miterlimit="2.61"/>
<path fill-rule="evenodd" clip-rule="evenodd" d="M46.843 18.7426H45.8225L45.8962 18.3344V18.2976L45.8366 18.3713L45.7743 18.4365L45.7119 18.496L45.6467 18.547L45.5787 18.5952L45.5135 18.6377L45.4483 18.6689L45.3774 18.7029L45.3065 18.7285L45.2357 18.7483L45.1676 18.7653L45.0939 18.7766L45.0202 18.788L44.9494 18.7937L44.8757 18.7993H44.802L44.612 18.7852L44.4334 18.7426L44.2719 18.6803L44.1245 18.5952L43.9912 18.4903L43.8722 18.3628L43.7701 18.2267L43.6822 18.0736L43.6085 17.9064L43.549 17.7335L43.5093 17.552L43.4781 17.365L43.4668 17.1779L43.4725 16.9851L43.4895 16.798L43.5235 16.6081L43.5774 16.3926L43.6454 16.1857L43.7219 15.9986L43.8155 15.82L43.909 15.6556L44.0196 15.5082L44.1358 15.375L44.2577 15.2531L44.3853 15.1454L44.5213 15.0546L44.6631 14.9724L44.802 14.9101L44.9494 14.859L45.0968 14.825L45.2442 14.8024L45.3944 14.7967L45.5021 14.7995L45.607 14.8109L45.7006 14.8307L45.7913 14.8562L45.8735 14.8846L45.9472 14.9186L46.0209 14.9583L46.0889 14.9979L46.1485 15.0433L46.2023 15.0915L46.2505 15.1397L46.2959 15.1879L46.3327 15.2361L46.3639 15.2814L46.3951 15.3268L46.4149 15.3721L46.6757 13.9236H47.6764L46.843 18.7426Z" fill="white"/>
<path fill-rule="evenodd" clip-rule="evenodd" d="M46.843 18.7426H45.8225L45.8962 18.3344V18.2976L45.8366 18.3713L45.7743 18.4365L45.7119 18.496L45.6467 18.547L45.5787 18.5952L45.5135 18.6377L45.4483 18.6689L45.3774 18.7029L45.3065 18.7285L45.2357 18.7483L45.1676 18.7653L45.0939 18.7766L45.0202 18.788L44.9494 18.7937L44.8757 18.7993H44.802L44.612 18.7852L44.4334 18.7426L44.2719 18.6803L44.1245 18.5952L43.9912 18.4903L43.8722 18.3628L43.7701 18.2267L43.6822 18.0736L43.6085 17.9064L43.549 17.7335L43.5093 17.552L43.4781 17.365L43.4668 17.1779L43.4725 16.9851L43.4895 16.798L43.5235 16.6081L43.5774 16.3926L43.6454 16.1857L43.7219 15.9986L43.8155 15.82L43.909 15.6556L44.0196 15.5082L44.1358 15.375L44.2577 15.2531L44.3853 15.1454L44.5213 15.0546L44.6631 14.9724L44.802 14.9101L44.9494 14.859L45.0968 14.825L45.2442 14.8024L45.3944 14.7967L45.5021 14.7995L45.607 14.8109L45.7006 14.8307L45.7913 14.8562L45.8735 14.8846L45.9472 14.9186L46.0209 14.9583L46.0889 14.9979L46.1485 15.0433L46.2023 15.0915L46.2505 15.1397L46.2959 15.1879L46.3327 15.2361L46.3639 15.2814L46.3951 15.3268L46.4149 15.3721L46.6757 13.9236H47.6764L46.843 18.7426Z" stroke="white" stroke-width="0.15" stroke-miterlimit="2.61"/>
<path fill-rule="evenodd" clip-rule="evenodd" d="M45.1735 17.8527L45.2784 17.8441L45.3748 17.8215L45.4627 17.796L45.5477 17.7563L45.6243 17.7109L45.698 17.6571L45.7688 17.5947L45.8312 17.5267L45.8851 17.453L45.9361 17.3736L45.9843 17.2885L46.0268 17.2007L46.0636 17.1071L46.092 17.0107L46.1175 16.9115L46.1374 16.8123L46.1544 16.7103L46.1657 16.6025V16.5033L46.1629 16.3984L46.1515 16.3049L46.1374 16.2113L46.1118 16.1235L46.0807 16.0384L46.0438 15.9647L46.0013 15.8939L45.9531 15.8372L45.8964 15.7833L45.834 15.7408L45.7688 15.7096L45.698 15.6926L45.6214 15.6841L45.5194 15.6926L45.4287 15.7068L45.3436 15.7351L45.2586 15.772L45.1849 15.8201L45.1112 15.8797L45.0488 15.942L44.9864 16.0129L44.9326 16.0923L44.8787 16.1773L44.8305 16.268L44.7909 16.3616L44.754 16.4636L44.7257 16.5628L44.6945 16.6677L44.6746 16.7755L44.6548 16.937L44.6633 17.1156L44.6888 17.2942L44.737 17.4671L44.8107 17.6202L44.9071 17.7421L45.0261 17.8215L45.1735 17.8527Z" fill="#FCB331"/>
<path fill-rule="evenodd" clip-rule="evenodd" d="M22.5413 17.9263L22.3939 18.7427H21.4641L21.4896 18.5924L21.5094 18.4564L21.5236 18.3543L21.5378 18.2976L21.4868 18.3572L21.4272 18.4167L21.3564 18.4705L21.2798 18.5216L21.192 18.5726L21.1012 18.6179L21.0049 18.6633L20.9056 18.7002L20.7979 18.7313L20.6902 18.7597L20.5825 18.7795L20.4748 18.7937L20.367 18.8022L20.2593 18.805L20.1573 18.7937L20.0581 18.7795L19.9277 18.7483L19.8114 18.7115L19.7066 18.6633L19.6158 18.6066L19.5336 18.5471L19.4599 18.4819L19.4004 18.411L19.3494 18.3373L19.304 18.2608L19.2672 18.1786L19.2388 18.0992L19.2161 18.017L19.202 17.9319L19.1906 17.8469L19.1821 17.7675V17.6853L19.1935 17.5436L19.2161 17.4047L19.253 17.2771L19.3012 17.1524L19.3607 17.0333L19.4259 16.9256L19.5053 16.8236L19.5932 16.73L19.6839 16.645L19.7888 16.5684L19.8936 16.4976L20.0042 16.4409L20.1233 16.3898L20.2452 16.3473L20.3699 16.3133L20.5003 16.2935H20.5059L20.5258 16.2878L20.5513 16.285L20.591 16.2821L20.6363 16.2736L20.6874 16.2708L20.7412 16.2623L20.8036 16.2566L20.8688 16.2481L20.9312 16.2424L20.9964 16.2368L21.0559 16.2311L21.1154 16.2254L21.1693 16.2226L21.2203 16.2198H21.3479L21.4357 16.2226L21.5151 16.2254H21.5973L21.6625 16.2311L21.7164 16.2339L21.7532 16.2368H21.7646L21.7702 16.2113L21.7929 16.1461L21.8099 16.0667L21.8184 15.9987L21.8043 15.9164L21.7702 15.8427L21.7249 15.7775L21.6682 15.7208L21.5973 15.6727L21.5208 15.6415L21.4329 15.6188L21.3365 15.6103L21.2316 15.6075L21.1211 15.6046H21.0077L20.8886 15.6075L20.7667 15.6131L20.6505 15.6245L20.5315 15.6358L20.4181 15.6528L20.3075 15.667L20.1998 15.684L20.1034 15.7038L20.0155 15.7208L19.9362 15.7435L19.8681 15.7662L19.8171 15.7917L19.7774 15.8144L20.0382 14.9243L20.1204 14.8931L20.1998 14.8619L20.2877 14.8364L20.3784 14.8194L20.4663 14.7996L20.5626 14.7854L20.6562 14.7712L20.7582 14.7627L20.8603 14.7542L20.968 14.7514L21.0786 14.7485H21.4329L21.5605 14.7514L21.688 14.7542L21.7929 14.7627L21.9035 14.7826L22.0169 14.8081L22.1359 14.8392L22.2493 14.8846L22.3599 14.9356L22.4704 14.998L22.5753 15.0689L22.666 15.1511L22.7482 15.2389L22.8219 15.3382L22.8758 15.4487L22.9126 15.5678L22.9353 15.6925V15.8314L22.9126 15.9788L22.5413 17.9263Z" fill="white"/>
<path fill-rule="evenodd" clip-rule="evenodd" d="M22.5413 17.9263L22.3939 18.7427H21.4641L21.4896 18.5924L21.5094 18.4564L21.5236 18.3543L21.5378 18.2976L21.4868 18.3572L21.4272 18.4167L21.3564 18.4705L21.2798 18.5216L21.192 18.5726L21.1012 18.6179L21.0049 18.6633L20.9056 18.7002L20.7979 18.7313L20.6902 18.7597L20.5825 18.7795L20.4748 18.7937L20.367 18.8022L20.2593 18.805L20.1573 18.7937L20.0581 18.7795L19.9277 18.7483L19.8114 18.7115L19.7066 18.6633L19.6158 18.6066L19.5336 18.5471L19.4599 18.4819L19.4004 18.411L19.3494 18.3373L19.304 18.2608L19.2672 18.1786L19.2388 18.0992L19.2161 18.017L19.202 17.9319L19.1906 17.8469L19.1821 17.7675V17.6853L19.1935 17.5436L19.2161 17.4047L19.253 17.2771L19.3012 17.1524L19.3607 17.0333L19.4259 16.9256L19.5053 16.8236L19.5932 16.73L19.6839 16.645L19.7888 16.5684L19.8936 16.4976L20.0042 16.4409L20.1233 16.3898L20.2452 16.3473L20.3699 16.3133L20.5003 16.2935H20.5059L20.5258 16.2878L20.5513 16.285L20.591 16.2821L20.6363 16.2736L20.6874 16.2708L20.7412 16.2623L20.8036 16.2566L20.8688 16.2481L20.9312 16.2424L20.9964 16.2368L21.0559 16.2311L21.1154 16.2254L21.1693 16.2226L21.2203 16.2198H21.2628H21.3479L21.4357 16.2226L21.5151 16.2254H21.5973L21.6625 16.2311L21.7164 16.2339L21.7532 16.2368H21.7646L21.7702 16.2113L21.7929 16.1461L21.8099 16.0667L21.8184 15.9987L21.8043 15.9164L21.7702 15.8427L21.7249 15.7775L21.6682 15.7208L21.5973 15.6727L21.5208 15.6415L21.4329 15.6188L21.3365 15.6103L21.2316 15.6075L21.1211 15.6046H21.0077L20.8886 15.6075L20.7667 15.6131L20.6505 15.6245L20.5315 15.6358L20.4181 15.6528L20.3075 15.667L20.1998 15.684L20.1034 15.7038L20.0155 15.7208L19.9362 15.7435L19.8681 15.7662L19.8171 15.7917L19.7774 15.8144L20.0382 14.9243L20.1204 14.8931L20.1998 14.8619L20.2877 14.8364L20.3784 14.8194L20.4663 14.7996L20.5626 14.7854L20.6562 14.7712L20.7582 14.7627L20.8603 14.7542L20.968 14.7514L21.0786 14.7485H21.4329L21.5605 14.7514L21.688 14.7542L21.7929 14.7627L21.9035 14.7826L22.0169 14.8081L22.1359 14.8392L22.2493 14.8846L22.3599 14.9356L22.4704 14.998L22.5753 15.0689L22.666 15.1511L22.7482 15.2389L22.8219 15.3382L22.8758 15.4487L22.9126 15.5678L22.9353 15.6925V15.8314L22.9126 15.9788L22.5413 17.9263Z" stroke="white" stroke-width="0.15" stroke-miterlimit="2.61"/>
<path fill-rule="evenodd" clip-rule="evenodd" d="M21.6539 16.9624L21.6482 16.9454L21.6341 16.9256L21.6114 16.9142L21.5745 16.9086L21.5348 16.9001L21.4866 16.8972H21.3761L21.3166 16.9001L21.2542 16.9086L21.1947 16.9142L21.1351 16.9227L21.0813 16.9312L21.0303 16.9397L20.9849 16.9511L20.9452 16.9624L20.9197 16.9709L20.8885 16.9823L20.8488 16.9964L20.8091 17.0134L20.761 17.0361L20.7128 17.0616L20.6617 17.09L20.6136 17.1183L20.5625 17.1552L20.5143 17.192L20.469 17.2346L20.4293 17.2799L20.3924 17.3281L20.3669 17.3791L20.3443 17.4387L20.3329 17.4982L20.3301 17.6229L20.3471 17.7221L20.3839 17.7958L20.4321 17.8525L20.4888 17.8894L20.5512 17.9121L20.6079 17.9206L20.6674 17.9262L20.778 17.9206L20.8772 17.9121L20.9736 17.895L21.0586 17.8724L21.1323 17.8469L21.2032 17.8157L21.2655 17.7817L21.3222 17.742L21.3676 17.7051L21.4129 17.6598L21.4498 17.6201L21.4781 17.5747L21.5037 17.5322L21.5263 17.4868L21.5462 17.4472L21.5575 17.4046L21.5859 17.2997L21.6114 17.1779L21.6341 17.0588L21.6539 16.9624Z" fill="#ED1B2E"/>
<path fill-rule="evenodd" clip-rule="evenodd" d="M14.7853 18.7425H13.7847L14.6209 13.9036H16.3643L16.5287 16.7752L17.7335 13.9036H19.5562L18.7001 18.7425H17.6966L18.3316 15.1282H18.2919L16.7923 18.7425H15.6584L15.6528 18.5922L15.6272 18.1897L15.5932 17.6199L15.5564 16.9622L15.5195 16.3046L15.4855 15.7235L15.46 15.3039L15.4543 15.1282H15.3976L14.7853 18.7425Z" fill="white"/>
<path fill-rule="evenodd" clip-rule="evenodd" d="M14.7853 18.7425H13.7847L14.6209 13.9036H16.3643L16.5287 16.7752L17.7335 13.9036H19.5562L18.7001 18.7425H17.6966L18.3316 15.1282H18.2919L16.7923 18.7425H15.6584L15.6528 18.5922L15.6272 18.1897L15.5932 17.6199L15.5564 16.9622L15.5195 16.3046L15.4855 15.7235L15.46 15.3039L15.4543 15.1282H15.3976L14.7853 18.7425Z" stroke="white" stroke-width="0.15" stroke-miterlimit="2.61"/>
<path fill-rule="evenodd" clip-rule="evenodd" d="M40.8337 17.9263L40.6806 18.7427H39.7565L39.765 18.5924L39.7678 18.4592V18.36L39.7763 18.3175L39.7282 18.3713L39.6715 18.428L39.6063 18.479L39.5326 18.5301L39.4532 18.5783L39.3653 18.6208L39.2746 18.6661L39.1811 18.703L39.0818 18.7313L38.9798 18.7625L38.8749 18.7795L38.7728 18.7937L38.6651 18.8022L38.5631 18.805L38.4639 18.7937L38.3646 18.7795L38.2314 18.7483L38.1124 18.7115L38.0103 18.6633L37.9139 18.6066L37.8317 18.5471L37.7637 18.4819L37.7042 18.411L37.6531 18.3373L37.6078 18.2608L37.5738 18.1786L37.5454 18.0992L37.5256 18.017L37.5114 17.9319L37.5001 17.8469L37.4944 17.7675V17.6853L37.5001 17.5436L37.5227 17.4047L37.5567 17.2771L37.6049 17.1524L37.6588 17.0333L37.7297 16.9256L37.8062 16.8236L37.8912 16.73L37.9876 16.645L38.0868 16.5684L38.1946 16.4976L38.308 16.4409L38.4213 16.3898L38.5432 16.3473L38.6651 16.3133L38.7927 16.2935H38.7984L38.8154 16.2878L38.8437 16.285L38.8806 16.2821L38.9288 16.2736L38.9798 16.2708L39.0336 16.2623L39.0932 16.2566L39.1555 16.2481L39.2236 16.2424L39.2859 16.2368L39.3483 16.2311L39.405 16.2254L39.4589 16.2226L39.5099 16.2198H39.6374L39.7282 16.2226L39.8132 16.2254H39.8926L39.9634 16.2311L40.023 16.2339L40.0542 16.2368H40.0712L40.0768 16.2113L40.0882 16.1461L40.0995 16.0667L40.108 15.9987L40.091 15.9164L40.0627 15.8427L40.0145 15.7775L39.9606 15.7208L39.8926 15.6727L39.816 15.6415L39.7338 15.6188L39.6459 15.6103L39.5439 15.6075L39.4333 15.6046H39.3171L39.2009 15.6075L39.079 15.6131L38.9599 15.6245L38.8437 15.6358L38.7275 15.6528L38.6169 15.667L38.5121 15.684L38.4157 15.7038L38.3278 15.7208L38.2456 15.7435L38.1804 15.7662L38.1265 15.7917L38.0868 15.8144L38.3448 14.9243L38.427 14.8931L38.5121 14.8619L38.5971 14.8364L38.685 14.8194L38.7757 14.7996L38.8692 14.7854L38.9628 14.7712L39.0648 14.7627L39.1669 14.7542L39.2746 14.7514L39.3795 14.7485H39.7282L39.8529 14.7514L39.9776 14.7542L40.0797 14.7627L40.193 14.7826L40.3064 14.8081L40.4227 14.8392L40.5389 14.8846L40.6523 14.9356L40.7628 14.998L40.8649 15.0689L40.9584 15.1511L41.0435 15.2389L41.1172 15.3382L41.171 15.4487L41.2136 15.5678L41.2391 15.6925V15.8314L41.2192 15.9788L40.8337 17.9263Z" fill="white"/>
<path fill-rule="evenodd" clip-rule="evenodd" d="M40.681 18.7682L40.7037 18.7484L40.8567 17.9292L40.8114 17.9207L40.6611 18.7399L40.681 18.7172V18.7682L40.7008 18.7654L40.7037 18.7484L40.681 18.7682Z" fill="white"/>
<path fill-rule="evenodd" clip-rule="evenodd" d="M39.7338 18.7426L39.7565 18.7681H40.6806V18.717H39.7565L39.7791 18.7426H39.7338L39.731 18.7681H39.7565L39.7338 18.7426Z" fill="white"/>
<path fill-rule="evenodd" clip-rule="evenodd" d="M39.7934 18.3315L39.7594 18.3003L39.7452 18.3598L39.7424 18.459V18.5923L39.7339 18.7425H39.7792L39.7877 18.5923L39.7934 18.459L39.7906 18.3598V18.3315L39.7566 18.3003L39.7934 18.3315Z" fill="white"/>
<path fill-rule="evenodd" clip-rule="evenodd" d="M38.3589 18.802L38.4638 18.8162L38.563 18.8276L38.665 18.8247L38.7728 18.8162L38.8805 18.802L38.9825 18.785L39.0846 18.7539L39.1895 18.7255L39.2802 18.6887L39.3766 18.6433L39.4644 18.6008L39.5438 18.5469L39.6203 18.4959L39.6855 18.4449L39.7451 18.3853L39.7933 18.3315L39.7564 18.3003L39.7082 18.357L39.6572 18.408L39.592 18.459L39.5211 18.5101L39.4446 18.5554L39.3539 18.6008L39.266 18.6433L39.1753 18.6801L39.0789 18.7113L38.974 18.7397L38.872 18.7595L38.7728 18.7737L38.665 18.7794L38.563 18.785L38.4638 18.7737L38.3674 18.7595L38.3589 18.802Z" fill="white"/>
<path fill-rule="evenodd" clip-rule="evenodd" d="M37.4688 17.6851L37.4716 17.7673L37.4801 17.8466L37.4886 17.9373L37.5056 18.0224L37.5226 18.1018L37.5538 18.1868L37.585 18.2718L37.6332 18.3484L37.6842 18.4278L37.7437 18.4958L37.8174 18.5667L37.9025 18.6262L37.9988 18.6829L38.1037 18.7311L38.2285 18.7679L38.3589 18.8019L38.3674 18.7594L38.2341 18.7254L38.1207 18.6886L38.0215 18.6404L37.9251 18.5893L37.8458 18.5298L37.7806 18.4674L37.721 18.3966L37.67 18.3257L37.6303 18.2492L37.5963 18.1726L37.568 18.0933L37.5481 18.0139L37.534 17.9288L37.5226 17.8466L37.5169 17.7673L37.5198 17.6851H37.4688Z" fill="white"/>
<path fill-rule="evenodd" clip-rule="evenodd" d="M38.7926 16.2708L38.6622 16.2934L38.5374 16.3246L38.4156 16.3671L38.2965 16.4182L38.1831 16.4777L38.0725 16.5514L37.9733 16.6279L37.877 16.7158L37.7891 16.8094L37.7125 16.9114L37.636 17.022L37.5821 17.1439L37.534 17.2686L37.4999 17.4018L37.4801 17.5435L37.4688 17.6853H37.5198L37.5226 17.5435L37.5453 17.4103L37.5793 17.2828L37.6247 17.158L37.6814 17.0446L37.7466 16.9397L37.8259 16.8377L37.9053 16.747L38.0017 16.6648L38.1009 16.5882L38.2058 16.5202L38.3192 16.4635L38.4297 16.4097L38.5516 16.37L38.6707 16.336L38.7926 16.3133V16.2708Z" fill="white"/>
<path fill-rule="evenodd" clip-rule="evenodd" d="M39.5494 16.1943H39.5097L39.4586 16.2L39.4048 16.2028L39.3481 16.2085L39.2857 16.2142L39.2234 16.2198L39.1553 16.2255L39.093 16.234L39.0334 16.2425L38.9796 16.2482L38.9286 16.251L38.8804 16.2595L38.8435 16.2624L38.8123 16.268L38.7982 16.2709H38.7925V16.3134H38.7982L38.8208 16.3106L38.8435 16.3077L38.8804 16.3049L38.9286 16.2964L38.9796 16.2936L39.0334 16.285L39.093 16.2794L39.1553 16.2709L39.2234 16.2624L39.2857 16.2595L39.3481 16.251L39.4048 16.2482L39.4586 16.2454H39.5494V16.1943Z" fill="white"/>
<path fill-rule="evenodd" clip-rule="evenodd" d="M40.0485 16.234L40.0712 16.2142H40.0541L40.023 16.2113L39.9634 16.2085L39.8926 16.2H39.7281L39.6374 16.1943H39.5496V16.2454H39.7281L39.8132 16.251H39.9634L40.023 16.2567L40.0541 16.2595H40.0712L40.091 16.2425L40.0712 16.2595L40.0882 16.2624L40.091 16.2425L40.0485 16.234Z" fill="white"/>
<path fill-rule="evenodd" clip-rule="evenodd" d="M40.0857 15.9988H40.08L40.0772 16.0668L40.0658 16.1405L40.0545 16.2085L40.0488 16.2341L40.0913 16.2426L40.0999 16.2142L40.1112 16.149L40.1225 16.0668L40.1339 15.9988H40.0857Z" fill="white"/>
<path fill-rule="evenodd" clip-rule="evenodd" d="M39.646 15.6329V15.6357L39.731 15.6414L39.8076 15.6613L39.8813 15.6953L39.9436 15.7406L39.9975 15.7917L40.04 15.854L40.0712 15.9192L40.0854 15.9986H40.1279L40.1137 15.9135L40.0854 15.8313L40.0344 15.7633L39.9748 15.7038L39.904 15.6527L39.8217 15.6187L39.7395 15.5961L39.646 15.5847V15.6329Z" fill="white"/>
<path fill-rule="evenodd" clip-rule="evenodd" d="M38.0642 15.8086L38.1011 15.8313L38.1379 15.8143L38.1861 15.7888L38.2485 15.7661L38.3307 15.7434L38.4186 15.7236L38.5149 15.7066L38.6227 15.6867L38.7275 15.6726L38.8438 15.6584L38.96 15.647L39.079 15.6357L39.2009 15.63H39.5439L39.646 15.6329V15.5875L39.5439 15.5847L39.4334 15.5762H39.3172L39.2009 15.5847L39.079 15.5932L38.96 15.6045L38.8438 15.613L38.7275 15.63L38.6141 15.6442L38.5064 15.6612L38.4129 15.6811L38.3222 15.6981L38.2428 15.7207L38.1719 15.7434L38.1152 15.7689L38.0727 15.7944L38.1096 15.8171L38.0642 15.8086Z" fill="white"/>
<path fill-rule="evenodd" clip-rule="evenodd" d="M38.3363 14.9045L38.3222 14.9215L38.0642 15.8088L38.1096 15.8173L38.3675 14.9301L38.3534 14.9471L38.3363 14.9045L38.3278 14.9074L38.3222 14.9215L38.3363 14.9045Z" fill="white"/>
<path fill-rule="evenodd" clip-rule="evenodd" d="M39.9777 14.7342L39.853 14.7257L39.7283 14.7229H39.3796L39.2747 14.7286L39.167 14.7342L39.065 14.7399L38.9629 14.7484L38.8637 14.7626L38.773 14.7768L38.6794 14.7966L38.5916 14.8136L38.5037 14.8391L38.4186 14.8703L38.3364 14.9043L38.3534 14.9468L38.4328 14.9157L38.5178 14.8845L38.6001 14.859L38.6879 14.8391L38.7815 14.8221L38.8722 14.8079L38.9629 14.7938L39.065 14.7853L39.167 14.7768L39.2747 14.7739H39.7283L39.853 14.7768H39.9777V14.7342Z" fill="white"/>
<path fill-rule="evenodd" clip-rule="evenodd" d="M41.2418 15.9842L41.2617 15.8312V15.6923L41.2333 15.5619L41.1936 15.44L41.1341 15.3266L41.0604 15.2245L40.9725 15.131L40.8818 15.0516L40.7741 14.9808L40.6635 14.9156L40.5445 14.8617L40.4311 14.8192L40.3092 14.7852L40.1958 14.7596L40.0796 14.7398L39.9775 14.7341V14.7767L40.0796 14.7852L40.1873 14.8022L40.3007 14.8305L40.4169 14.8617L40.5303 14.907L40.6409 14.9581L40.7514 15.0176L40.8506 15.0856L40.9442 15.1678L41.0236 15.2529L41.0973 15.3493L41.1511 15.457L41.1908 15.5704L41.2163 15.6923V15.8312L41.1965 15.9757L41.2418 15.9842Z" fill="white"/>
<path fill-rule="evenodd" clip-rule="evenodd" d="M40.8564 17.9292L41.2419 15.9846L41.1966 15.9761L40.811 17.9207L40.8564 17.9292Z" fill="white"/>
<path fill-rule="evenodd" clip-rule="evenodd" d="M39.9408 16.9626L39.9351 16.9399L39.9181 16.9229L39.8926 16.9115L39.8557 16.9002L39.8161 16.8974L39.7679 16.8945H39.714L39.6573 16.8974L39.5978 16.9059L39.5383 16.9115L39.4787 16.92L39.4249 16.9257L39.371 16.9371L39.3228 16.9456L39.2746 16.9569L39.2378 16.9626L39.2123 16.9682L39.1811 16.9796L39.1442 16.9909L39.1045 17.0051L39.0564 17.0249L39.011 17.0476L38.96 17.0731L38.9118 17.1071L38.8636 17.1412L38.8154 17.1808L38.7757 17.2205L38.736 17.2687L38.702 17.3197L38.6765 17.3764L38.6538 17.436L38.6425 17.4983L38.6396 17.6231L38.6595 17.7223L38.6878 17.796L38.7332 17.8527L38.7871 17.8895L38.8494 17.9122L38.9118 17.9207L38.9741 17.9264L39.0847 17.9207L39.1896 17.9122L39.286 17.8924L39.371 17.8668L39.4504 17.8385L39.5213 17.8045L39.5864 17.7676L39.646 17.7223L39.697 17.6826L39.7424 17.6344L39.782 17.589L39.8161 17.5437L39.8416 17.4983L39.8586 17.453L39.8756 17.4105L39.8869 17.3679L39.9011 17.2659L39.9181 17.1582L39.9351 17.0561L39.9408 16.9626Z" fill="#FCB331"/>
<path fill-rule="evenodd" clip-rule="evenodd" d="M47.5322 18.238L47.5407 18.153L47.5719 18.0538L47.6229 17.9659L47.6853 17.8893L47.7618 17.827L47.8497 17.7816L47.9461 17.7533L48.051 17.7419L48.153 17.7533L48.2494 17.7816L48.3373 17.827L48.4138 17.8893L48.4762 17.9659L48.5301 18.0538L48.5584 18.153L48.5669 18.238H48.4535L48.4507 18.1728L48.428 18.0906L48.3912 18.0169L48.3458 17.9545L48.2863 17.9035L48.2154 17.8667L48.1332 17.8412L48.051 17.8327L47.9659 17.8412L47.8837 17.8667L47.8129 17.9035L47.7533 17.9545L47.708 18.0169L47.6711 18.0906L47.6485 18.1728L47.6399 18.238H47.5322Z" fill="white"/>
<path fill-rule="evenodd" clip-rule="evenodd" d="M47.8667 18.238V18.0168H48.068L48.1133 18.0225L48.153 18.0282L48.1814 18.0395L48.2069 18.0537L48.2267 18.0764L48.2409 18.0991L48.2494 18.1246L48.2522 18.1501L48.2494 18.1841L48.2409 18.2096L48.2295 18.2323L48.2239 18.238H48.068L48.0821 18.2351L48.1076 18.2323L48.1303 18.2238L48.1502 18.2153L48.1643 18.2039L48.17 18.1954L48.1785 18.1756V18.1501L48.1757 18.1331L48.1672 18.1161L48.1558 18.1104L48.1445 18.1019L48.1275 18.0991L48.1076 18.0934H47.9574V18.238H47.8667Z" fill="white"/>
<path fill-rule="evenodd" clip-rule="evenodd" d="M47.5321 18.238L47.5293 18.2607L47.5406 18.3684L47.5718 18.4677L47.6228 18.5555L47.6852 18.6292L47.7617 18.6916L47.8496 18.7398L47.946 18.7681L48.0509 18.7795L48.1529 18.7681L48.2493 18.7398L48.3372 18.6916L48.4137 18.6292L48.4761 18.5555L48.53 18.4677L48.5583 18.3684L48.5696 18.2607L48.5668 18.238H48.4534L48.4591 18.2607L48.4506 18.3486L48.4279 18.4308L48.3911 18.4988L48.3457 18.564L48.2862 18.6151L48.2153 18.6547L48.1331 18.6803L48.0509 18.6888L47.9658 18.6803L47.8836 18.6547L47.8128 18.6151L47.7532 18.564L47.7079 18.4988L47.671 18.4308L47.6484 18.3486L47.6399 18.2607V18.238H47.5321Z" fill="white"/>
<path fill-rule="evenodd" clip-rule="evenodd" d="M47.8667 18.238V18.4648H47.9574V18.2777H48.051L48.1587 18.4648H48.2352L48.1218 18.2777H48.1502L48.1757 18.2721L48.1955 18.2635L48.2154 18.2494L48.2239 18.238H48.068L48.051 18.2437H47.9574V18.238H47.8667Z" fill="white"/>
<path fill-rule="evenodd" clip-rule="evenodd" d="M47.5293 18.2607L47.5406 18.153L47.5718 18.0538L47.6228 17.9659L47.6852 17.8893L47.7617 17.827L47.8496 17.7816L47.946 17.7533L48.0509 17.7419L48.1529 17.7533L48.2493 17.7816L48.3372 17.827L48.4137 17.8893L48.4761 17.9659L48.53 18.0538L48.5583 18.153L48.5696 18.2607L48.5583 18.3684L48.53 18.4676L48.4761 18.5555L48.4137 18.6292L48.3372 18.6916L48.2493 18.7398L48.1529 18.7681L48.0509 18.7795L47.946 18.7681L47.8496 18.7398L47.7617 18.6916L47.6852 18.6292L47.6228 18.5555L47.5718 18.4676L47.5406 18.3684L47.5293 18.2607Z" stroke="white" stroke-width="0.15" stroke-miterlimit="2.61"/>
<path fill-rule="evenodd" clip-rule="evenodd" d="M47.9574 18.4647H47.8667V18.0168H48.068L48.1133 18.0225L48.153 18.0282L48.1814 18.0395L48.2069 18.0537L48.2267 18.0764L48.2409 18.0991L48.2494 18.1246L48.2522 18.1501L48.2494 18.1841L48.2409 18.2096L48.2295 18.2323L48.2154 18.2493L48.1955 18.2635L48.1757 18.272L48.1502 18.2776H48.1218L48.2352 18.4647H48.1587L48.051 18.2776H47.9574V18.4647Z" stroke="white" stroke-width="0.15" stroke-miterlimit="2.61"/>
<path fill-rule="evenodd" clip-rule="evenodd" d="M48.0511 18.2437L48.0822 18.2352L48.1078 18.2324L48.1304 18.2239L48.1503 18.2154L48.1645 18.2041L48.1701 18.1956L48.1786 18.1757V18.1502L48.1758 18.1332L48.1673 18.1162L48.156 18.1105L48.1446 18.102L48.1276 18.0992L48.1078 18.0935H47.9575V18.2437H48.0511Z" stroke="white" stroke-width="0.15" stroke-miterlimit="2.61"/>
<path fill-rule="evenodd" clip-rule="evenodd" d="M48.0509 18.6889L48.1331 18.6803L48.2153 18.6548L48.2862 18.6152L48.3457 18.5641L48.3911 18.4989L48.4279 18.4309L48.4506 18.3487L48.4591 18.2608L48.4506 18.1729L48.4279 18.0907L48.3911 18.017L48.3457 17.9547L48.2862 17.9036L48.2153 17.8668L48.1331 17.8413L48.0509 17.8328L47.9659 17.8413L47.8837 17.8668L47.8128 17.9036L47.7533 17.9547L47.7079 18.017L47.6711 18.0907L47.6484 18.1729L47.6399 18.2608L47.6484 18.3487L47.6711 18.4309L47.7079 18.4989L47.7533 18.5641L47.8128 18.6152L47.8837 18.6548L47.9659 18.6803L48.0509 18.6889Z" stroke="white" stroke-width="0.15" stroke-miterlimit="2.61"/>
<path fill-rule="evenodd" clip-rule="evenodd" d="M41.1084 18.7426H42.1487L42.5201 16.6449L42.5343 16.5655L42.5569 16.4833L42.5796 16.404L42.6108 16.3218L42.6448 16.2424L42.6902 16.163L42.7384 16.0893L42.7979 16.0184L42.8631 15.9561L42.9368 15.8994L43.0218 15.8427L43.1182 15.7973L43.2231 15.7633L43.3422 15.7321L43.4726 15.7095L43.6143 15.7038H43.7078L43.8723 14.7542L43.7702 14.7627L43.671 14.774L43.5775 14.7938L43.4896 14.8193L43.4102 14.8477L43.3308 14.8845L43.2571 14.9242L43.1891 14.9696L43.1211 15.0206L43.0587 15.0716L42.9992 15.1312L42.9396 15.1907L42.8858 15.2531L42.8291 15.3239L42.7752 15.3891L42.7242 15.4628L42.8348 14.7967H41.7972L41.1084 18.7426Z" fill="white"/>
<path fill-rule="evenodd" clip-rule="evenodd" d="M41.1084 18.7426H42.1487L42.5201 16.6449L42.5343 16.5655L42.5569 16.4833L42.5796 16.404L42.6108 16.3218L42.6448 16.2424L42.6902 16.163L42.7384 16.0893L42.7979 16.0184L42.8631 15.9561L42.9368 15.8994L43.0218 15.8427L43.1182 15.7973L43.2231 15.7633L43.3422 15.7321L43.4726 15.7095L43.6143 15.7038H43.7078L43.8723 14.7542L43.7702 14.7627L43.671 14.774L43.5775 14.7938L43.4896 14.8193L43.4102 14.8477L43.3308 14.8845L43.2571 14.9242L43.1891 14.9696L43.1211 15.0206L43.0587 15.0716L42.9992 15.1312L42.9396 15.1907L42.8858 15.2531L42.8291 15.3239L42.7752 15.3891L42.7242 15.4628L42.8348 14.7967H41.7972L41.1084 18.7426Z" stroke="white" stroke-width="0.15" stroke-miterlimit="2.61"/>
<path fill-rule="evenodd" clip-rule="evenodd" d="M31.3486 18.7426H32.4088L32.7603 16.6449L32.7745 16.5655L32.7943 16.489L32.8114 16.4096L32.8397 16.3359L32.8681 16.2622L32.9049 16.1942L32.9503 16.1262L33.0013 16.0638L33.0608 16.0099L33.126 15.9532L33.2082 15.9079L33.2961 15.8682L33.3981 15.837L33.5144 15.8058L33.6391 15.7888L33.7808 15.7775H33.7922L33.8063 15.7803L33.8262 15.7832H33.846L33.863 15.7888L33.8772 15.7917L33.8886 15.7945H33.8914L33.8971 15.7803L33.9084 15.735L33.9226 15.6698L33.9396 15.5876L33.9651 15.494L33.9934 15.3891L34.0246 15.2871L34.0586 15.1822L34.087 15.1142L34.1238 15.0433L34.1607 14.9724L34.1975 14.9101L34.2316 14.8562L34.2571 14.8108L34.2769 14.7853L34.2826 14.774H34.2797L34.2656 14.7712L34.2457 14.7655L34.2202 14.7627H34.1947L34.1664 14.7598L34.1408 14.7542H34.1125L33.9991 14.7627L33.8971 14.774L33.8007 14.7938L33.7128 14.8137L33.6278 14.8449L33.5512 14.8817L33.4804 14.9186L33.4123 14.9611L33.35 15.0093L33.2933 15.066L33.2366 15.1198L33.1827 15.1822L33.126 15.2446L33.075 15.3154L33.0183 15.3891L32.9644 15.4628L33.0977 14.7967H32.0403L31.3486 18.7426Z" fill="white"/>
<path fill-rule="evenodd" clip-rule="evenodd" d="M31.3486 18.7426H32.4088L32.7603 16.6449L32.7745 16.5655L32.7943 16.489L32.8114 16.4096L32.8397 16.3359L32.8681 16.2622L32.9049 16.1942L32.9503 16.1262L33.0013 16.0638L33.0608 16.0099L33.126 15.9532L33.2082 15.9079L33.2961 15.8682L33.3981 15.837L33.5144 15.8058L33.6391 15.7888L33.7808 15.7775H33.7922L33.8063 15.7803L33.8262 15.7832H33.846L33.863 15.7888L33.8772 15.7917L33.8886 15.7945H33.8914L33.8971 15.7803L33.9084 15.735L33.9226 15.6698L33.9396 15.5876L33.9651 15.494L33.9934 15.3891L34.0246 15.2871L34.0586 15.1822L34.087 15.1142L34.1238 15.0433L34.1607 14.9724L34.1975 14.9101L34.2316 14.8562L34.2571 14.8108L34.2769 14.7853L34.2826 14.774H34.2797L34.2656 14.7712L34.2457 14.7655L34.2202 14.7627H34.1947L34.1664 14.7598L34.1408 14.7542H34.1125L33.9991 14.7627L33.8971 14.774L33.8007 14.7938L33.7128 14.8137L33.6278 14.8449L33.5512 14.8817L33.4804 14.9186L33.4123 14.9611L33.35 15.0093L33.2933 15.066L33.2366 15.1198L33.1827 15.1822L33.126 15.2446L33.075 15.3154L33.0183 15.3891L32.9644 15.4628L33.0977 14.7967H32.0403L31.3486 18.7426Z" stroke="white" stroke-width="0.15" stroke-miterlimit="2.61"/>
<path fill-rule="evenodd" clip-rule="evenodd" d="M47.5405 22.6204V22.6062L47.5717 22.5098L47.6227 22.4248L47.6851 22.3511L47.7616 22.2915L47.8495 22.249L47.9459 22.2235L48.0508 22.2122L48.1528 22.2235L48.2492 22.249L48.3371 22.2915L48.4136 22.3511L48.476 22.4248L48.5299 22.5098L48.5582 22.6062V22.6204H48.4505L48.4278 22.5438L48.3909 22.473L48.3456 22.4106L48.2861 22.3596L48.2152 22.317L48.133 22.2915L48.0508 22.2859L47.9657 22.2915L47.8835 22.317L47.8127 22.3596L47.7531 22.4106L47.7078 22.473L47.6709 22.5438L47.6482 22.6204H47.5405Z" fill="#FCB331"/>
<path fill-rule="evenodd" clip-rule="evenodd" d="M47.8667 22.6205V22.4929H48.1133L48.153 22.4986L48.1814 22.5071L48.2069 22.5213L48.2267 22.5383L48.2409 22.561L48.2494 22.5893L48.2522 22.6205H48.1785V22.6035L48.1757 22.5836L48.1672 22.5695L48.1558 22.561L48.1445 22.5553L48.1275 22.5496L48.1076 22.5468H47.9574V22.6205H47.8667Z" fill="#FCB331"/>
<path fill-rule="evenodd" clip-rule="evenodd" d="M47.5293 22.7028L47.5406 22.6206H47.6484V22.6234L47.6399 22.7028H47.5293Z" fill="#FCB331"/>
<path fill-rule="evenodd" clip-rule="evenodd" d="M47.8667 22.7028V22.6206H47.9574V22.6943H48.051L48.0821 22.6858L48.1076 22.683L48.1303 22.6773L48.1502 22.6688L48.1643 22.6575L48.17 22.6461L48.1785 22.6291V22.6206H48.2522L48.2494 22.6461L48.2409 22.6688L48.2295 22.6858L48.2154 22.7028H47.8667Z" fill="#FCB331"/>
<path fill-rule="evenodd" clip-rule="evenodd" d="M48.4592 22.7028L48.4507 22.6234V22.6206H48.5584L48.5697 22.7028H48.4592Z" fill="#FCB331"/>
<path fill-rule="evenodd" clip-rule="evenodd" d="M47.5293 22.7026V22.714L47.5406 22.8189L47.5718 22.9209L47.6228 23.0088L47.6852 23.0853L47.7617 23.1477L47.8496 23.193L47.946 23.2214L48.0509 23.2327L48.1529 23.2214L48.2493 23.193L48.3372 23.1477L48.4137 23.0853L48.4761 23.0088L48.53 22.9209L48.5583 22.8189L48.5696 22.714V22.7026H48.4591V22.714L48.4506 22.8019L48.4279 22.8841L48.3911 22.9521L48.3457 23.0145L48.2862 23.0655L48.2153 23.108L48.1331 23.1335L48.0509 23.1392L47.9658 23.1335L47.8836 23.108L47.8128 23.0655L47.7532 23.0145L47.7079 22.9521L47.671 22.8841L47.6484 22.8019L47.6399 22.714V22.7026H47.5293Z" fill="#FCB331"/>
<path fill-rule="evenodd" clip-rule="evenodd" d="M47.8667 22.7026V22.9152H47.9574V22.731H48.051L48.1587 22.9152H48.2352L48.1218 22.731H48.1502L48.1757 22.7253L48.1955 22.7168L48.2154 22.7026H47.8667Z" fill="#FCB331"/>
</svg>
