<svg width="62" height="32" viewBox="0 0 62 32" fill="none" xmlns="http://www.w3.org/2000/svg">
<path d="M58.0009 1H3.99915C2.34276 1 1 2.34276 1 3.99915V28.0009C1 29.6572 2.34276 31 3.99915 31H58.0009C59.6572 31 61 29.6572 61 28.0009V3.99915C61 2.34276 59.6572 1 58.0009 1Z" fill="white" stroke="white" stroke-width="0.22" stroke-miterlimit="22.93"/>
<path fill-rule="evenodd" clip-rule="evenodd" d="M25.512 21.5291L27.3942 10.4963H30.4019L28.5196 21.5291H25.512Z" fill="#005296"/>
<path fill-rule="evenodd" clip-rule="evenodd" d="M39.4248 10.7687C38.5606 10.4564 37.6479 10.2999 36.729 10.3066C33.7582 10.3066 31.6633 11.8033 31.6463 13.9464C31.6293 15.531 33.1402 16.4155 34.2798 16.9427C35.4193 17.47 35.8445 17.8272 35.8389 18.3119C35.8389 19.0518 34.9034 19.3891 34.0388 19.3891C33.0628 19.4222 32.0923 19.2281 31.2041 18.8221L30.8157 18.6464L30.4019 21.0956C31.4743 21.4917 32.6093 21.6914 33.7525 21.6852C36.9132 21.6852 38.9656 20.2055 38.9883 17.915C38.9883 16.6592 38.1974 15.7039 36.4625 14.9187C35.4108 14.4085 34.7617 14.0683 34.7617 13.5524C34.7617 13.0931 35.3059 12.6027 36.4824 12.6027C37.2538 12.5854 38.0204 12.7292 38.7331 13.0251L39.0166 13.1527L39.4248 10.7687Z" fill="#005296"/>
<path fill-rule="evenodd" clip-rule="evenodd" d="M47.1354 10.5076H44.8109C44.0909 10.5076 43.5523 10.7032 43.2377 11.4232L38.7729 21.5319H41.9308C41.9308 21.5319 42.4468 20.1712 42.563 19.8736H46.4154C46.5061 20.2591 46.7811 21.5262 46.7811 21.5262H49.5705L47.1354 10.502V10.5076ZM43.4276 17.6171C43.677 16.9822 44.6267 14.5329 44.6267 14.5329C44.6267 14.5329 44.8733 13.8951 45.0264 13.4813L45.2305 14.4337L45.9278 17.62H43.4304L43.4276 17.6171Z" fill="#005296"/>
<path fill-rule="evenodd" clip-rule="evenodd" d="M22.9917 10.5049L20.0464 18.0283L19.7345 16.5004C19.1874 14.7372 17.4668 12.8152 15.5703 11.8713L18.2633 21.5094H21.4411L26.1751 10.4993L22.9917 10.5049Z" fill="#005296"/>
<path fill-rule="evenodd" clip-rule="evenodd" d="M17.3167 10.4993H12.4664L12.4268 10.7289C16.1998 11.6417 18.6944 13.8471 19.7319 16.5004L18.6802 11.4291C18.4959 10.7317 17.9772 10.5219 17.3167 10.4993Z" fill="#FAA41A"/>
</svg>
