<svg width="214" height="53" viewBox="0 0 214 53" fill="none" xmlns="http://www.w3.org/2000/svg">
<path fill-rule="evenodd" clip-rule="evenodd" d="M172.623 29.4755C172.239 29.4755 171.864 29.5869 171.544 29.7956C171.225 30.0044 170.976 30.301 170.829 30.6482C170.682 30.9953 170.644 31.3772 170.719 31.7457C170.794 32.1142 170.979 32.4527 171.25 32.7184C171.522 32.9841 171.868 33.165 172.244 33.2383C172.621 33.3116 173.011 33.274 173.366 33.1302C173.721 32.9864 174.024 32.7429 174.237 32.4305C174.45 32.1181 174.564 31.7508 174.564 31.3751C174.564 30.8713 174.36 30.3881 173.996 30.0319C173.632 29.6756 173.138 29.4755 172.623 29.4755V29.4755Z" fill="#ED2E38"/>
<path fill-rule="evenodd" clip-rule="evenodd" d="M98.043 31.3752C98.0707 31.8598 98.287 32.3157 98.6475 32.6492C99.0079 32.9827 99.4852 33.1685 99.9813 33.1685C100.477 33.1685 100.955 32.9827 101.315 32.6492C101.675 32.3157 101.892 31.8598 101.92 31.3752V26.6111C101.902 26.2267 101.963 25.8428 102.101 25.4825C102.239 25.1222 102.45 24.7929 102.722 24.5147C102.994 24.2365 103.32 24.015 103.682 23.8637C104.043 23.7124 104.432 23.6344 104.825 23.6344C105.219 23.6344 105.608 23.7124 105.969 23.8637C106.331 24.015 106.657 24.2365 106.929 24.5147C107.201 24.7929 107.412 25.1222 107.55 25.4825C107.688 25.8428 107.749 26.2267 107.731 26.6111V28.5048C107.731 29.0071 107.935 29.4887 108.298 29.8439C108.661 30.199 109.153 30.3985 109.667 30.3985C110.18 30.3985 110.672 30.199 111.035 29.8439C111.398 29.4887 111.602 29.0071 111.602 28.5048V26.6111C111.602 24.8517 110.888 23.1643 109.616 21.9202C108.345 20.6761 106.62 19.9772 104.822 19.9772C103.024 19.9772 101.3 20.6761 100.029 21.9202C98.7572 23.1643 98.043 24.8517 98.043 26.6111V31.3752Z" fill="#0DB02B"/>
<path fill-rule="evenodd" clip-rule="evenodd" d="M80.6067 20.0308C80.0934 20.0308 79.6012 20.2303 79.2382 20.5854C78.8753 20.9406 78.6714 21.4222 78.6714 21.9245V24.7829C78.654 25.5111 78.346 26.2036 77.8133 26.7123L75.7624 28.7251L73.7055 26.7123C73.4468 26.4549 73.2403 26.1518 73.0969 25.8191C72.9571 25.49 72.8787 25.139 72.8656 24.7829V21.9245C72.8656 21.4222 72.6617 20.9406 72.2988 20.5854C71.9359 20.2303 71.4436 20.0308 70.9304 20.0308C70.4171 20.0308 69.9249 20.2303 69.5619 20.5854C69.199 20.9406 68.9951 21.4222 68.9951 21.9245V24.7948C69.0285 26.5133 69.7368 28.1532 70.973 29.3742L74.3445 32.6793C74.5291 32.8667 74.7503 33.0159 74.9949 33.1182C75.2395 33.2204 75.5025 33.2737 75.7685 33.2748C76.0337 33.2743 76.296 33.2212 76.5397 33.1189C76.7834 33.0165 77.0034 32.867 77.1865 32.6793L80.558 29.3742C81.1742 28.7687 81.6659 28.0531 82.0064 27.2662C82.345 26.4838 82.5248 25.6444 82.5358 24.7948V21.9066C82.531 21.4085 82.3259 20.9323 81.9648 20.5812C81.6037 20.2301 81.1157 20.0323 80.6067 20.0308Z" fill="#0DB02B"/>
<path fill-rule="evenodd" clip-rule="evenodd" d="M162.941 23.7884C163.454 23.7884 163.947 23.5888 164.31 23.2337C164.673 22.8786 164.876 22.3969 164.876 21.8947C164.876 21.3924 164.673 20.9107 164.31 20.5556C163.947 20.2005 163.454 20.0009 162.941 20.0009C161.601 20.0033 160.291 20.3944 159.178 21.1247C158.065 21.8551 157.198 22.892 156.686 24.1044C156.175 25.3168 156.043 26.6503 156.306 27.9364C156.569 29.2225 157.215 30.4034 158.164 31.33C159.112 32.2566 160.32 32.8872 161.635 33.1422C162.95 33.3972 164.312 33.2651 165.551 32.7627C166.789 32.2602 167.847 31.4099 168.591 30.3192C169.336 29.2286 169.733 27.9464 169.733 26.6349V17.1544C169.705 16.6698 169.489 16.2139 169.128 15.8804C168.768 15.5469 168.291 15.3611 167.795 15.3611C167.298 15.3611 166.821 15.5469 166.461 15.8804C166.1 16.2139 165.884 16.6698 165.856 17.1544V26.6349C165.855 27.1964 165.684 27.745 165.364 28.2114C165.044 28.6777 164.591 29.0409 164.06 29.255C163.529 29.4691 162.946 29.5245 162.383 29.4142C161.821 29.3039 161.304 29.0329 160.899 28.6354C160.493 28.2379 160.217 27.7318 160.106 27.1809C159.994 26.6301 160.052 26.0592 160.272 25.5405C160.492 25.0218 160.864 24.5785 161.341 24.2667C161.818 23.9548 162.379 23.7884 162.953 23.7884H162.941Z" fill="#0DB02B"/>
<path fill-rule="evenodd" clip-rule="evenodd" d="M136.79 31.3752C136.79 31.8774 136.994 32.3591 137.357 32.7142C137.72 33.0693 138.212 33.2689 138.725 33.2689C139.239 33.2689 139.731 33.0693 140.094 32.7142C140.457 32.3591 140.661 31.8774 140.661 31.3752V26.6111C140.661 25.299 140.263 24.0164 139.518 22.9255C138.773 21.8345 137.714 20.9843 136.475 20.4822C135.237 19.98 133.874 19.8487 132.558 20.1046C131.243 20.3606 130.035 20.9924 129.087 21.9202C128.139 22.848 127.493 24.03 127.232 25.3169C126.97 26.6037 127.104 27.9376 127.618 29.1498C128.131 30.362 129 31.3981 130.115 32.127C131.229 32.856 132.54 33.245 133.881 33.245C134.376 33.2179 134.842 33.0062 135.183 32.6535C135.524 32.3008 135.714 31.8338 135.714 31.3484C135.714 30.8629 135.524 30.3959 135.183 30.0432C134.842 29.6905 134.376 29.4788 133.881 29.4517C133.307 29.4505 132.747 29.2829 132.27 28.9701C131.793 28.6572 131.422 28.2132 131.203 27.694C130.985 27.1749 130.928 26.6039 131.041 26.0533C131.153 25.5027 131.43 24.9971 131.837 24.6004C132.243 24.2038 132.76 23.9338 133.323 23.8247C133.886 23.7156 134.469 23.7722 134.999 23.9873C135.53 24.2025 135.983 24.5666 136.301 25.0336C136.62 25.5006 136.79 26.0496 136.79 26.6111V31.3752Z" fill="#0DB02B"/>
<path fill-rule="evenodd" clip-rule="evenodd" d="M97.0746 26.6349C97.0746 25.3228 96.677 24.0402 95.9321 22.9493C95.1871 21.8584 94.1283 21.0081 92.8895 20.506C91.6507 20.0039 90.2876 19.8725 88.9725 20.1284C87.6574 20.3844 86.4494 21.0162 85.5013 21.944C84.5532 22.8718 83.9075 24.0538 83.6459 25.3407C83.3843 26.6276 83.5186 27.9614 84.0317 29.1736C84.5448 30.3858 85.4138 31.4219 86.5286 32.1508C87.6435 32.8798 88.9543 33.2688 90.2951 33.2688H92.2304C92.4941 33.2833 92.758 33.245 93.006 33.1562C93.254 33.0674 93.4809 32.93 93.6728 32.7525C93.8647 32.575 94.0176 32.361 94.122 32.1236C94.2265 31.8863 94.2804 31.6306 94.2804 31.3722C94.2804 31.1137 94.2265 30.858 94.122 30.6207C94.0176 30.3833 93.8647 30.1694 93.6728 29.9918C93.4809 29.8143 93.254 29.6769 93.006 29.5881C92.758 29.4993 92.4941 29.461 92.2304 29.4755H90.2951C89.8161 29.4764 89.3443 29.3617 88.9215 29.1413C88.4988 28.9209 88.1381 28.6019 87.8717 28.2123C87.6053 27.8228 87.4412 27.375 87.3942 26.9085C87.3472 26.4421 87.4185 25.9715 87.602 25.5385C87.7855 25.1055 88.0755 24.7236 88.4461 24.4267C88.8167 24.1297 89.2565 23.9269 89.7264 23.8362C90.1964 23.7455 90.6819 23.7698 91.14 23.9069C91.598 24.044 92.0144 24.2897 92.3521 24.6221L92.4616 24.7412H90.2951C89.7819 24.7412 89.2896 24.9407 88.9267 25.2959C88.5638 25.651 88.3599 26.1327 88.3599 26.6349C88.3599 27.1372 88.5638 27.6188 88.9267 27.974C89.2896 28.3291 89.7819 28.5286 90.2951 28.5286H95.1637C95.6727 28.5224 96.1587 28.3201 96.5164 27.9656C96.8741 27.6112 97.0746 27.1331 97.0746 26.6349V26.6349Z" fill="#0DB02B"/>
<path fill-rule="evenodd" clip-rule="evenodd" d="M56.3984 20.0308C56.1437 20.03 55.8914 20.0784 55.6559 20.1732C55.4204 20.268 55.2064 20.4074 55.026 20.5833C54.8457 20.7592 54.7026 20.9683 54.6049 21.1984C54.5073 21.4286 54.457 21.6753 54.457 21.9245V31.4049C54.4848 31.8896 54.7011 32.3455 55.0616 32.679C55.422 33.0124 55.8993 33.1983 56.3953 33.1983C56.8914 33.1983 57.3686 33.0124 57.7291 32.679C58.0896 32.3455 58.3059 31.8896 58.3336 31.4049V23.7884H61.2365C62.008 23.7884 62.7479 24.0883 63.2935 24.6221C63.839 25.156 64.1455 25.88 64.1455 26.6349V31.399C64.1455 31.9012 64.3494 32.3829 64.7123 32.738C65.0752 33.0932 65.5675 33.2927 66.0807 33.2927C66.594 33.2927 67.0862 33.0932 67.4492 32.738C67.8121 32.3829 68.016 31.9012 68.016 31.399V26.6349C68.0096 24.8802 67.2922 23.1995 66.0214 21.9615C64.7505 20.7235 63.0298 20.0292 61.2365 20.0308H56.3984Z" fill="#0DB02B"/>
<path fill-rule="evenodd" clip-rule="evenodd" d="M199.662 26.6349C199.68 26.2506 199.618 25.8666 199.48 25.5063C199.342 25.146 199.131 24.8168 198.859 24.5386C198.588 24.2603 198.261 24.0389 197.9 23.8876C197.538 23.7363 197.149 23.6583 196.756 23.6583C196.363 23.6583 195.974 23.7363 195.612 23.8876C195.251 24.0389 194.924 24.2603 194.652 24.5386C194.381 24.8168 194.17 25.146 194.032 25.5063C193.894 25.8666 193.832 26.2506 193.85 26.6349V31.399C193.85 31.9012 193.646 32.3829 193.283 32.738C192.92 33.0932 192.428 33.2927 191.915 33.2927C191.402 33.2927 190.909 33.0932 190.546 32.738C190.183 32.3829 189.979 31.9012 189.979 31.399V26.6349C189.981 25.3248 190.379 24.0445 191.124 22.9555C191.868 21.8665 192.925 21.0175 194.162 20.5156C195.399 20.0137 196.759 19.8814 198.073 20.1353C199.386 20.3892 200.594 21.018 201.542 21.9424L201.591 21.99L201.64 21.9424C202.588 21.018 203.796 20.3892 205.109 20.1353C206.423 19.8814 207.784 20.0137 209.02 20.5156C210.257 21.0175 211.314 21.8665 212.058 22.9555C212.803 24.0445 213.201 25.3248 213.203 26.6349V31.399C213.203 31.9012 212.999 32.3829 212.636 32.738C212.273 33.0932 211.781 33.2927 211.267 33.2927C210.754 33.2927 210.262 33.0932 209.899 32.738C209.536 32.3829 209.332 31.9012 209.332 31.399V26.6349C209.35 26.2506 209.288 25.8666 209.15 25.5063C209.012 25.146 208.801 24.8168 208.53 24.5386C208.258 24.2603 207.932 24.0389 207.57 23.8876C207.208 23.7363 206.819 23.6583 206.426 23.6583C206.033 23.6583 205.644 23.7363 205.282 23.8876C204.921 24.0389 204.594 24.2603 204.323 24.5386C204.051 24.8168 203.84 25.146 203.702 25.5063C203.564 25.8666 203.502 26.2506 203.52 26.6349V31.399C203.492 31.8836 203.276 32.3395 202.916 32.673C202.555 33.0065 202.078 33.1923 201.582 33.1923C201.086 33.1923 200.609 33.0065 200.248 32.673C199.888 32.3395 199.671 31.8836 199.644 31.399V26.6349H199.662Z" fill="#0DB02B"/>
<path fill-rule="evenodd" clip-rule="evenodd" d="M119.355 23.7884C118.962 23.7708 118.57 23.8313 118.201 23.9663C117.833 24.1012 117.497 24.3079 117.212 24.5736C116.928 24.8394 116.702 25.1588 116.547 25.5126C116.392 25.8664 116.313 26.2472 116.313 26.6319C116.313 27.0167 116.392 27.3975 116.547 27.7513C116.702 28.105 116.928 28.4244 117.212 28.6902C117.497 28.956 117.833 29.1626 118.201 29.2976C118.57 29.4326 118.962 29.4931 119.355 29.4755H124.193C124.457 29.461 124.72 29.4993 124.968 29.5881C125.216 29.6769 125.443 29.8143 125.635 29.9918C125.827 30.1694 125.98 30.3833 126.084 30.6207C126.189 30.858 126.243 31.1137 126.243 31.3722C126.243 31.6306 126.189 31.8863 126.084 32.1236C125.98 32.361 125.827 32.575 125.635 32.7525C125.443 32.93 125.216 33.0674 124.968 33.1562C124.72 33.245 124.457 33.2833 124.193 33.2688H119.355C117.557 33.2688 115.832 32.5699 114.561 31.3258C113.289 30.0817 112.575 28.3943 112.575 26.6349C112.575 24.8755 113.289 23.1881 114.561 21.944C115.832 20.6999 117.557 20.001 119.355 20.001H124.193C124.706 20.001 125.198 20.2005 125.561 20.5556C125.924 20.9108 126.128 21.3924 126.128 21.8947C126.128 22.3969 125.924 22.8786 125.561 23.2337C125.198 23.5889 124.706 23.7884 124.193 23.7884H119.355Z" fill="#0DB02B"/>
<path fill-rule="evenodd" clip-rule="evenodd" d="M141.641 31.3752C141.668 31.8598 141.885 32.3157 142.245 32.6492C142.606 32.9827 143.083 33.1685 143.579 33.1685C144.075 33.1685 144.552 32.9827 144.913 32.6492C145.273 32.3157 145.489 31.8598 145.517 31.3752V26.6111C145.499 26.2267 145.561 25.8428 145.699 25.4825C145.837 25.1222 146.048 24.7929 146.32 24.5147C146.591 24.2365 146.918 24.015 147.279 23.8637C147.641 23.7124 148.03 23.6344 148.423 23.6344C148.816 23.6344 149.205 23.7124 149.567 23.8637C149.929 24.015 150.255 24.2365 150.527 24.5147C150.798 24.7929 151.009 25.1222 151.147 25.4825C151.285 25.8428 151.347 26.2267 151.329 26.6111V28.5048C151.329 29.0071 151.533 29.4887 151.896 29.8439C152.259 30.199 152.751 30.3985 153.264 30.3985C153.778 30.3985 154.27 30.199 154.633 29.8439C154.996 29.4887 155.2 29.0071 155.2 28.5048V26.6111C155.2 25.7399 155.024 24.8773 154.684 24.0724C154.343 23.2675 153.843 22.5362 153.214 21.9202C152.584 21.3042 151.837 20.8155 151.015 20.4821C150.192 20.1488 149.31 19.9772 148.42 19.9772C147.53 19.9772 146.648 20.1488 145.826 20.4821C145.003 20.8155 144.256 21.3042 143.626 21.9202C142.997 22.5362 142.497 23.2675 142.157 24.0724C141.816 24.8773 141.641 25.7399 141.641 26.6111V31.3752Z" fill="#0DB02B"/>
<path fill-rule="evenodd" clip-rule="evenodd" d="M185.136 31.3752C185.163 31.8598 185.38 32.3157 185.74 32.6492C186.1 32.9827 186.578 33.1685 187.074 33.1685C187.57 33.1685 188.047 32.9827 188.408 32.6492C188.768 32.3157 188.984 31.8598 189.012 31.3752V26.6111C189.012 25.2993 188.615 24.0169 187.87 22.9261C187.125 21.8353 186.067 20.985 184.828 20.4827C183.59 19.9804 182.227 19.8487 180.912 20.1042C179.597 20.3597 178.389 20.9909 177.441 21.9181C176.493 22.8453 175.846 24.0268 175.584 25.3132C175.322 26.5997 175.455 27.9334 175.967 29.1457C176.48 30.358 177.348 31.3945 178.462 32.1241C179.576 32.8538 180.886 33.2439 182.227 33.245C182.49 33.2595 182.754 33.2212 183.002 33.1324C183.25 33.0436 183.477 32.9062 183.669 32.7287C183.861 32.5512 184.014 32.3372 184.118 32.0998C184.223 31.8625 184.277 31.6068 184.277 31.3484C184.277 31.0899 184.223 30.8342 184.118 30.5969C184.014 30.3595 183.861 30.1456 183.669 29.968C183.477 29.7905 183.25 29.6531 183.002 29.5643C182.754 29.4755 182.49 29.4372 182.227 29.4517C181.653 29.4505 181.092 29.2829 180.615 28.97C180.139 28.6572 179.768 28.2132 179.549 27.694C179.33 27.1749 179.274 26.6039 179.386 26.0533C179.499 25.5027 179.776 24.9971 180.182 24.6004C180.588 24.2038 181.106 23.9338 181.669 23.8247C182.231 23.7156 182.815 23.7722 183.345 23.9873C183.875 24.2025 184.328 24.5666 184.647 25.0336C184.965 25.5006 185.136 26.0496 185.136 26.6111V31.3752Z" fill="#0DB02B"/>
<path d="M21.8599 48.0232C33.9328 48.0232 43.7198 38.4463 43.7198 26.6326C43.7198 14.8189 33.9328 5.24207 21.8599 5.24207C9.787 5.24207 0 14.8189 0 26.6326C0 38.4463 9.787 48.0232 21.8599 48.0232Z" fill="#0DB02B"/>
<path fill-rule="evenodd" clip-rule="evenodd" d="M17.9372 30.202L10.9977 20.6263C10.9651 20.5812 10.95 20.5263 10.9551 20.4714C10.9445 19.0976 11.2122 17.7353 11.7428 16.4629C12.2734 15.1905 13.0564 14.0332 14.0467 13.0574C14.9974 12.1251 16.1273 11.3853 17.3715 10.8805C18.6158 10.3757 19.9498 10.1158 21.2972 10.1158C22.6445 10.1158 23.9785 10.3757 25.2228 10.8805C26.467 11.3853 27.5969 12.1251 28.5476 13.0574C29.5374 14.0338 30.3204 15.1912 30.852 16.4634C31.3835 17.7355 31.6531 19.0975 31.6454 20.4714C31.6451 20.5266 31.6281 20.5805 31.5966 20.6263L24.6571 30.2079H25.6877V32.9294C25.9808 33.1677 26.2579 33.4243 26.517 33.6976H26.7304C26.9751 33.4382 27.2358 33.1936 27.511 32.9651V30.2079H30.9319C30.9933 30.2079 31.0541 30.2198 31.1107 30.2429C31.1673 30.2661 31.2187 30.2999 31.2618 30.3426C31.3049 30.3853 31.3389 30.4359 31.3618 30.4915C31.3848 30.547 31.3962 30.6065 31.3953 30.6665V42.0645C31.3953 42.1845 31.3465 42.2996 31.2596 42.3845C31.1727 42.4694 31.0548 42.517 30.9319 42.517H27.511V36.1094L27.267 35.9486C27.0694 36.0682 26.8409 36.1302 26.6085 36.1273C26.3929 36.125 26.182 36.0653 25.9987 35.9546L25.7121 36.1392V42.5468H11.6868C11.5639 42.5468 11.446 42.4991 11.3591 42.4143C11.2722 42.3294 11.2234 42.2143 11.2234 42.0942V35.7759H22.5594C22.5168 35.1506 23.1692 34.6981 22.9436 33.9894H11.199V30.6546C11.1982 30.5946 11.2096 30.5351 11.2325 30.4795C11.2554 30.4239 11.2894 30.3733 11.3325 30.3307C11.3757 30.288 11.427 30.2542 11.4836 30.231C11.5403 30.2079 11.601 30.196 11.6624 30.196L17.9372 30.202ZM30.3221 33.9954C30.0782 34.698 30.749 35.1506 30.7063 35.7819H31.3893V33.9954H30.3221ZM18.5226 30.202H19.3458L15.3761 20.3702C15.2272 20.2581 15.0703 20.1566 14.9065 20.0665C14.6972 19.9666 14.476 19.8926 14.2479 19.8461C13.7307 19.7449 13.198 19.7449 12.6808 19.8461C12.4527 19.8926 12.2315 19.9666 12.0222 20.0665C11.9436 20.1044 11.8682 20.1482 11.7966 20.1975C11.6858 20.2742 11.5854 20.3642 11.4978 20.4655L18.547 30.202H18.5226ZM19.8398 30.202H20.4495L19.108 20.263L19.0226 20.1975C18.9489 20.1481 18.8714 20.1043 18.7909 20.0665C18.5816 19.9666 18.3604 19.8926 18.1323 19.8461C17.6105 19.7502 17.0748 19.7502 16.553 19.8461C16.3249 19.8926 16.1037 19.9666 15.8944 20.0665L15.7602 20.1379L19.8215 30.202H19.8398ZM20.974 30.202H21.5838L22.9314 20.1856L22.718 20.0665C22.5087 19.9666 22.2874 19.8926 22.0594 19.8461C21.5354 19.7508 20.9979 19.7508 20.4739 19.8461C20.2459 19.8926 20.0247 19.9666 19.8154 20.0665L19.6019 20.1856L20.9496 30.202H20.974ZM22.1143 30.202H22.7241L26.7853 20.1379L26.6512 20.0665C26.4418 19.9666 26.2206 19.8926 25.9926 19.8461C25.4707 19.7502 24.9351 19.7502 24.4132 19.8461C24.1852 19.8926 23.9639 19.9666 23.7546 20.0665C23.6741 20.1043 23.5966 20.1481 23.5229 20.1975L23.4375 20.263L22.096 30.202H22.1143ZM23.2607 30.202H24.0595L31.1087 20.4655C31.0198 20.3619 30.9196 20.268 30.81 20.1856C30.5445 20.0226 30.2512 19.9076 29.944 19.8461C29.4201 19.7508 28.8826 19.7508 28.3586 19.8461C28.1305 19.8926 27.9093 19.9666 27.7 20.0665C27.5298 20.1402 27.3732 20.2408 27.2366 20.3642L23.2607 30.202V30.202ZM27.3829 19.1613L27.5597 19.0601C27.7927 18.9515 28.0385 18.8715 28.2915 18.8219C28.8488 18.7107 29.4233 18.7107 29.9806 18.8219C30.37 18.8936 30.7385 19.0481 31.06 19.2745C30.7646 17.2632 29.8029 15.4017 28.322 13.9745C27.2534 12.932 25.9566 12.1399 24.5291 11.6579C24.8834 12.0366 25.1999 12.4473 25.4743 12.8847C26.6072 14.8011 27.2611 16.9516 27.3829 19.1613V19.1613ZM19.5897 19.1613L19.7178 19.0958C19.948 18.9845 20.1919 18.9024 20.4435 18.8516C21.0028 18.741 21.5793 18.741 22.1387 18.8516C22.3903 18.9024 22.6341 18.9845 22.8643 19.0958L22.9924 19.1613C22.9574 17.2737 22.7534 15.3926 22.3826 13.5397C22.2972 13.1348 21.8643 11.1577 21.2606 11.1577C20.6569 11.1577 20.2239 13.1348 20.1386 13.5397C19.7678 15.3926 19.5637 17.2737 19.5288 19.1613H19.5897ZM15.1992 19.1911C15.316 16.9704 15.9724 14.8087 17.114 12.8847C17.3884 12.4473 17.7049 12.0366 18.0592 11.6579C16.6317 12.1399 15.3348 12.932 14.2662 13.9745C12.7875 15.4032 11.8263 17.264 11.5283 19.2745C11.6326 19.1959 11.745 19.128 11.8636 19.072C12.0939 18.9607 12.3377 18.8786 12.5893 18.8278C13.1526 18.7155 13.7334 18.7155 14.2967 18.8278C14.55 18.8795 14.7958 18.9615 15.0285 19.072C15.0894 19.1002 15.1484 19.132 15.2053 19.1673L15.1992 19.1911Z" fill="#FEFEFE"/>
<path fill-rule="evenodd" clip-rule="evenodd" d="M11.2852 33.9954H22.9819C23.2253 34.6981 22.5559 35.1507 22.5985 35.7819H11.2852V33.9954ZM25.7448 32.9235V30.202H27.5705V32.9592C27.2959 33.1877 27.0358 33.4323 26.7916 33.6917H26.5786C26.3199 33.4184 26.0435 33.1618 25.7509 32.9235H25.7448ZM30.376 33.9954H31.441V35.7819H30.7594C30.802 35.1566 30.1509 34.704 30.376 33.9954ZM27.5644 36.1094V42.5469H25.7387V36.1094L26.0248 35.9248C26.2077 36.0356 26.4182 36.0953 26.6333 36.0975C26.8653 36.1005 27.0934 36.0385 27.2906 35.9189L27.5644 36.1094Z" fill="#0DB02B"/>
<path fill-rule="evenodd" clip-rule="evenodd" d="M21.5816 40.939C21.5627 40.9382 21.5439 40.9411 21.5262 40.9476C21.5085 40.9542 21.4923 40.9641 21.4787 40.9769C21.465 40.9897 21.4542 41.0051 21.4467 41.0221C21.4393 41.0391 21.4355 41.0574 21.4355 41.0759C21.4355 41.1138 21.4509 41.1502 21.4783 41.177C21.5057 41.2038 21.5429 41.2189 21.5816 41.2189C21.6203 41.2189 21.6575 41.2038 21.6849 41.177C21.7123 41.1502 21.7277 41.1138 21.7277 41.0759C21.7277 41.0574 21.7239 41.0391 21.7164 41.0221C21.709 41.0051 21.6982 40.9897 21.6845 40.9769C21.6709 40.9641 21.6547 40.9542 21.637 40.9476C21.6193 40.9411 21.6005 40.9382 21.5816 40.939V40.939Z" fill="#0DB02B"/>
<path fill-rule="evenodd" clip-rule="evenodd" d="M16.0558 41.0759C16.055 41.0944 16.058 41.1128 16.0647 41.1301C16.0713 41.1475 16.0815 41.1633 16.0946 41.1766C16.1077 41.19 16.1234 41.2006 16.1408 41.2079C16.1582 41.2151 16.1769 41.2188 16.1958 41.2188C16.215 41.2188 16.2339 41.2151 16.2517 41.2079C16.2694 41.2008 16.2855 41.1902 16.299 41.177C16.3126 41.1637 16.3234 41.1479 16.3307 41.1306C16.3381 41.1132 16.3418 41.0947 16.3418 41.0759V40.7245C16.341 40.697 16.3459 40.6695 16.3563 40.6438C16.3667 40.6182 16.3824 40.5949 16.4023 40.5753C16.4223 40.5558 16.4461 40.5405 16.4723 40.5303C16.4986 40.5201 16.5266 40.5153 16.5548 40.5161C16.6119 40.5161 16.6667 40.5379 16.7076 40.5768C16.7485 40.6157 16.7723 40.6687 16.7739 40.7245V40.8734C16.7731 40.8919 16.7761 40.9104 16.7828 40.9277C16.7894 40.945 16.7996 40.9608 16.8127 40.9742C16.8258 40.9875 16.8415 40.9981 16.8589 41.0054C16.8763 41.0126 16.895 41.0164 16.9139 41.0163C16.9331 41.0163 16.9521 41.0126 16.9698 41.0055C16.9875 40.9983 17.0036 40.9878 17.0172 40.9745C17.0307 40.9612 17.0415 40.9455 17.0488 40.9281C17.0562 40.9108 17.0599 40.8922 17.0599 40.8734V40.7305C17.0463 40.6095 16.9875 40.4977 16.8949 40.4165C16.8023 40.3353 16.6822 40.2904 16.5579 40.2904C16.4335 40.2904 16.3135 40.3353 16.2208 40.4165C16.1282 40.4977 16.0694 40.6095 16.0558 40.7305V41.0759Z" fill="#0DB02B"/>
<path fill-rule="evenodd" clip-rule="evenodd" d="M14.7661 40.2362C14.7274 40.2362 14.6902 40.2512 14.6629 40.278C14.6355 40.3048 14.6201 40.3412 14.6201 40.3791V40.5875C14.6257 40.613 14.6257 40.6394 14.6201 40.6649C14.6118 40.69 14.5971 40.7125 14.5775 40.7305L14.4253 40.8793L14.2732 40.7305C14.2517 40.7129 14.235 40.6904 14.2245 40.6649C14.2189 40.6394 14.2189 40.613 14.2245 40.5875V40.3791C14.2253 40.3606 14.2223 40.3422 14.2156 40.3249C14.209 40.3075 14.1988 40.2917 14.1857 40.2784C14.1726 40.265 14.1569 40.2544 14.1395 40.2471C14.1221 40.2399 14.1034 40.2362 14.0845 40.2362C14.0458 40.2362 14.0086 40.2512 13.9813 40.278C13.9539 40.3048 13.9385 40.3412 13.9385 40.3791V40.5875C13.9402 40.6512 13.9547 40.7139 13.9811 40.7721C14.0046 40.83 14.0398 40.8827 14.0845 40.927L14.334 41.1771C14.3646 41.2028 14.4033 41.2175 14.4436 41.2188C14.4819 41.2167 14.5183 41.202 14.547 41.1771L14.7966 40.927C14.8431 40.8829 14.8803 40.8303 14.9061 40.7721C14.9305 40.7135 14.9429 40.6508 14.9426 40.5875V40.3791C14.9444 40.3572 14.9407 40.3352 14.932 40.3149C14.9232 40.2947 14.9096 40.2768 14.8923 40.2628C14.875 40.2488 14.8545 40.239 14.8325 40.2344C14.8106 40.2298 14.7878 40.2304 14.7661 40.2362V40.2362Z" fill="#0DB02B"/>
<path fill-rule="evenodd" clip-rule="evenodd" d="M20.8634 40.5161C20.8846 40.5204 20.9066 40.5201 20.9276 40.515C20.9487 40.51 20.9684 40.5004 20.9852 40.487C21.002 40.4736 21.0156 40.4567 21.0249 40.4376C21.0342 40.4184 21.0391 40.3974 21.0391 40.3762C21.0391 40.3549 21.0342 40.334 21.0249 40.3148C21.0156 40.2956 21.002 40.2787 20.9852 40.2653C20.9684 40.2519 20.9487 40.2424 20.9276 40.2373C20.9066 40.2323 20.8846 40.2319 20.8634 40.2362C20.7978 40.2359 20.7328 40.2483 20.6722 40.2729C20.6115 40.2974 20.5566 40.3336 20.5104 40.3792C20.4623 40.4242 20.4241 40.4783 20.398 40.5381C20.3719 40.598 20.3584 40.6624 20.3584 40.7275C20.3584 40.7926 20.3719 40.8571 20.398 40.9169C20.4241 40.9768 20.4623 41.0309 20.5104 41.0759C20.5567 41.1213 20.6118 41.1573 20.6723 41.1818C20.7329 41.2064 20.7978 41.219 20.8634 41.219C20.9289 41.219 20.9938 41.2064 21.0544 41.1818C21.115 41.1573 21.17 41.1213 21.2163 41.0759C21.3125 40.9831 21.3672 40.8567 21.3685 40.7246V40.0278C21.3685 39.9899 21.3531 39.9536 21.3257 39.9268C21.2983 39.8999 21.2612 39.8849 21.2224 39.8849C21.1837 39.8849 21.1465 39.8999 21.1191 39.9268C21.0917 39.9536 21.0764 39.9899 21.0764 40.0278V40.7246C21.0765 40.78 21.0547 40.8334 21.0155 40.8734C20.9961 40.894 20.9726 40.9104 20.9464 40.9217C20.9202 40.9329 20.892 40.9387 20.8634 40.9387C20.8348 40.9387 20.8065 40.9329 20.7803 40.9217C20.7541 40.9104 20.7306 40.894 20.7112 40.8734C20.672 40.8334 20.6502 40.78 20.6504 40.7246C20.6519 40.6694 20.6735 40.6167 20.7112 40.5757C20.7522 40.5373 20.8067 40.516 20.8634 40.5161V40.5161Z" fill="#0DB02B"/>
<path fill-rule="evenodd" clip-rule="evenodd" d="M18.9288 41.0759C18.928 41.0944 18.931 41.1128 18.9377 41.1301C18.9443 41.1475 18.9545 41.1633 18.9676 41.1766C18.9807 41.19 18.9964 41.2006 19.0138 41.2079C19.0312 41.2151 19.0499 41.2188 19.0688 41.2188C19.088 41.2188 19.107 41.2151 19.1247 41.2079C19.1424 41.2008 19.1585 41.1902 19.1721 41.177C19.1856 41.1637 19.1964 41.1479 19.2037 41.1306C19.2111 41.1133 19.2148 41.0947 19.2148 41.0759V40.7246C19.2148 40.6599 19.2017 40.5959 19.1763 40.5363C19.1508 40.4767 19.1135 40.4226 19.0665 40.3771C19.0196 40.3317 18.9638 40.2959 18.9026 40.2717C18.8413 40.2475 18.7758 40.2355 18.7097 40.2362C18.6441 40.2359 18.5791 40.2483 18.5185 40.2729C18.4579 40.2974 18.4029 40.3336 18.3568 40.3792C18.2627 40.4718 18.21 40.597 18.21 40.7275C18.21 40.8581 18.2627 40.9833 18.3568 41.0759C18.4029 41.1215 18.4579 41.1576 18.5185 41.1822C18.5791 41.2067 18.6441 41.2192 18.7097 41.2188C18.7289 41.2188 18.7479 41.2151 18.7656 41.2079C18.7833 41.2008 18.7994 41.1902 18.813 41.177C18.8266 41.1637 18.8373 41.1479 18.8447 41.1306C18.852 41.1133 18.8558 41.0947 18.8558 41.0759C18.8558 41.0574 18.852 41.0391 18.8446 41.0221C18.8372 41.0051 18.8263 40.9897 18.8127 40.9769C18.799 40.9641 18.7829 40.9541 18.7652 40.9476C18.7475 40.9411 18.7286 40.9381 18.7097 40.9389C18.6811 40.9389 18.6528 40.9331 18.6266 40.9218C18.6005 40.9105 18.5769 40.8941 18.5576 40.8734C18.5184 40.8334 18.4966 40.78 18.4967 40.7246C18.4983 40.6694 18.5199 40.6167 18.5576 40.5757C18.5989 40.5378 18.6532 40.5166 18.7097 40.5161C18.7668 40.5161 18.8216 40.5379 18.8625 40.5768C18.9034 40.6157 18.9272 40.6687 18.9288 40.7246V41.0759Z" fill="#0DB02B"/>
<path fill-rule="evenodd" clip-rule="evenodd" d="M15.9829 40.7245C15.9829 40.6267 15.9533 40.5312 15.8978 40.4499C15.8423 40.3686 15.7634 40.3053 15.6711 40.2679C15.5788 40.2304 15.4772 40.2206 15.3792 40.2397C15.2812 40.2588 15.1912 40.3059 15.1206 40.375C15.05 40.4441 15.0019 40.5322 14.9824 40.6281C14.9629 40.7239 14.9729 40.8233 15.0111 40.9136C15.0493 41.004 15.1141 41.0812 15.1971 41.1355C15.2802 41.1898 15.3779 41.2188 15.4778 41.2188H15.6238C15.643 41.2188 15.662 41.2151 15.6797 41.2079C15.6974 41.2007 15.7135 41.1902 15.7271 41.1769C15.7407 41.1636 15.7514 41.1479 15.7588 41.1305C15.7661 41.1132 15.7699 41.0946 15.7699 41.0758C15.7699 41.0573 15.7661 41.039 15.7587 41.022C15.7513 41.005 15.7404 40.9896 15.7268 40.9768C15.7131 40.964 15.697 40.9541 15.6793 40.9475C15.6616 40.941 15.6427 40.9381 15.6238 40.9389H15.4778C15.4207 40.9373 15.3666 40.9141 15.3268 40.874C15.287 40.834 15.2647 40.7803 15.2648 40.7245C15.2639 40.6969 15.2689 40.6694 15.2793 40.6438C15.2897 40.6181 15.3053 40.5948 15.3253 40.5753C15.3452 40.5558 15.3691 40.5404 15.3953 40.5303C15.4215 40.5201 15.4496 40.5152 15.4778 40.5161C15.5361 40.5167 15.5922 40.5379 15.636 40.5756V40.5756H15.4717C15.4346 40.5756 15.399 40.5901 15.3727 40.6157C15.3465 40.6414 15.3317 40.6763 15.3317 40.7126C15.3309 40.7311 15.3339 40.7495 15.3406 40.7668C15.3472 40.7841 15.3574 40.8 15.3705 40.8133C15.3836 40.8267 15.3993 40.8373 15.4167 40.8445C15.4341 40.8518 15.4528 40.8555 15.4717 40.8555H15.8307C15.8685 40.8572 15.9054 40.8445 15.9338 40.82C15.9622 40.7956 15.9798 40.7614 15.9829 40.7245V40.7245Z" fill="#0DB02B"/>
<path fill-rule="evenodd" clip-rule="evenodd" d="M12.9703 40.2362C12.9315 40.2362 12.8944 40.2513 12.867 40.2781C12.8396 40.3049 12.8242 40.3412 12.8242 40.3791V41.0759C12.8242 41.0946 12.828 41.1132 12.8353 41.1306C12.8427 41.1479 12.8534 41.1637 12.867 41.1769C12.8806 41.1902 12.8967 41.2007 12.9144 41.2079C12.9321 41.2151 12.9511 41.2188 12.9703 41.2188C12.9892 41.2188 13.0079 41.2151 13.0253 41.2078C13.0427 41.2006 13.0584 41.19 13.0715 41.1766C13.0846 41.1632 13.0947 41.1474 13.1014 41.1301C13.1081 41.1128 13.1111 41.0944 13.1102 41.0759V40.5161H13.3293C13.3575 40.5153 13.3856 40.5201 13.4118 40.5303C13.4381 40.5405 13.4619 40.5558 13.4818 40.5753C13.5018 40.5948 13.5174 40.6181 13.5278 40.6438C13.5382 40.6695 13.5432 40.6969 13.5423 40.7245V41.0759C13.5423 41.0946 13.5461 41.1132 13.5535 41.1306C13.5608 41.1479 13.5715 41.1637 13.5851 41.1769C13.5987 41.1902 13.6148 41.2007 13.6325 41.2079C13.6502 41.2151 13.6692 41.2188 13.6884 41.2188C13.7073 41.2188 13.726 41.2151 13.7434 41.2078C13.7608 41.2006 13.7765 41.19 13.7896 41.1766C13.8027 41.1632 13.8128 41.1474 13.8195 41.1301C13.8262 41.1128 13.8292 41.0944 13.8284 41.0759V40.7245C13.8284 40.595 13.7758 40.4708 13.6822 40.3792C13.5886 40.2877 13.4617 40.2362 13.3293 40.2362H12.9703Z" fill="#0DB02B"/>
<path fill-rule="evenodd" clip-rule="evenodd" d="M23.5843 40.7245C23.5827 40.6694 23.5612 40.6166 23.5235 40.5757C23.4822 40.5378 23.4279 40.5166 23.3713 40.5161C23.3143 40.5161 23.2594 40.5379 23.2185 40.5768C23.1776 40.6157 23.1538 40.6687 23.1522 40.7245V41.0759C23.1531 41.0944 23.15 41.1128 23.1434 41.1301C23.1367 41.1474 23.1265 41.1633 23.1135 41.1766C23.1004 41.19 23.0847 41.2006 23.0673 41.2078C23.0499 41.2151 23.0312 41.2188 23.0123 41.2188C22.9931 41.2188 22.9741 41.2151 22.9564 41.2079C22.9387 41.2008 22.9226 41.1902 22.909 41.1769C22.8954 41.1637 22.8847 41.1479 22.8773 41.1306C22.87 41.1132 22.8662 41.0947 22.8662 41.0759V40.7245C22.8693 40.5956 22.9214 40.4725 23.0123 40.3791C23.0596 40.3334 23.1156 40.2972 23.1772 40.2726C23.2388 40.2481 23.3048 40.2357 23.3713 40.2362C23.4369 40.2359 23.5019 40.2483 23.5625 40.2729C23.6231 40.2974 23.6781 40.3335 23.7243 40.3791V40.3791C23.7716 40.3334 23.8276 40.2972 23.8893 40.2726C23.9509 40.2481 24.0168 40.2357 24.0834 40.2362C24.1489 40.2359 24.214 40.2483 24.2746 40.2729C24.3352 40.2974 24.3902 40.3335 24.4363 40.3791C24.5293 40.4711 24.5818 40.5951 24.5824 40.7245V41.0759C24.5832 41.0944 24.5802 41.1128 24.5735 41.1301C24.5669 41.1474 24.5567 41.1633 24.5436 41.1766C24.5305 41.19 24.5148 41.2006 24.4974 41.2078C24.48 41.2151 24.4613 41.2188 24.4424 41.2188C24.4232 41.2188 24.4042 41.2151 24.3865 41.2079C24.3688 41.2008 24.3527 41.1902 24.3391 41.1769C24.3256 41.1637 24.3148 41.1479 24.3075 41.1306C24.3001 41.1132 24.2964 41.0947 24.2964 41.0759V40.7245C24.2948 40.6694 24.2732 40.6166 24.2355 40.5757C24.1942 40.5378 24.1399 40.5166 24.0834 40.5161C24.0263 40.5161 23.9715 40.5379 23.9306 40.5768C23.8896 40.6157 23.8659 40.6687 23.8643 40.7245V41.0759C23.8651 41.0944 23.8621 41.1128 23.8554 41.1301C23.8487 41.1474 23.8386 41.1633 23.8255 41.1766C23.8124 41.19 23.7967 41.2006 23.7793 41.2078C23.7619 41.2151 23.7432 41.2188 23.7243 41.2188C23.7051 41.2188 23.6861 41.2151 23.6684 41.2079C23.6507 41.2008 23.6346 41.1902 23.621 41.1769C23.6075 41.1637 23.5967 41.1479 23.5894 41.1306C23.582 41.1132 23.5782 41.0947 23.5782 41.0759V40.7245H23.5843Z" fill="#0DB02B"/>
<path fill-rule="evenodd" clip-rule="evenodd" d="M17.6324 40.5161C17.6042 40.5153 17.5761 40.5201 17.5499 40.5303C17.5236 40.5405 17.4998 40.5558 17.4799 40.5753C17.4599 40.5948 17.4443 40.6181 17.4339 40.6438C17.4235 40.6695 17.4185 40.6969 17.4194 40.7245C17.4194 40.7804 17.4416 40.834 17.4814 40.874C17.5212 40.9141 17.5753 40.9374 17.6324 40.9389H17.9914C18.0103 40.9381 18.0292 40.9411 18.0469 40.9476C18.0646 40.9541 18.0807 40.9641 18.0944 40.9769C18.108 40.9897 18.1189 41.005 18.1263 41.022C18.1337 41.0391 18.1375 41.0574 18.1375 41.0759C18.1375 41.0946 18.1337 41.1132 18.1264 41.1306C18.119 41.1479 18.1083 41.1637 18.0947 41.1769C18.0812 41.1902 18.065 41.2007 18.0473 41.2079C18.0296 41.2151 18.0106 41.2188 17.9914 41.2188H17.6324C17.5087 41.2055 17.3945 41.148 17.3115 41.0573C17.2285 40.9666 17.1826 40.8492 17.1826 40.7275C17.1826 40.6058 17.2285 40.4884 17.3115 40.3977C17.3945 40.3071 17.5087 40.2495 17.6324 40.2362H17.9914C18.0302 40.2362 18.0673 40.2513 18.0947 40.2781C18.1221 40.3049 18.1375 40.3412 18.1375 40.3791C18.1375 40.3976 18.1337 40.4159 18.1263 40.433C18.1189 40.45 18.108 40.4653 18.0944 40.4781C18.0807 40.4909 18.0646 40.5009 18.0469 40.5074C18.0292 40.514 18.0103 40.5169 17.9914 40.5161H17.6324Z" fill="#0DB02B"/>
<path fill-rule="evenodd" clip-rule="evenodd" d="M19.2872 41.0759C19.2864 41.0944 19.2894 41.1129 19.2961 41.1302C19.3028 41.1475 19.3129 41.1633 19.326 41.1767C19.3391 41.19 19.3548 41.2006 19.3722 41.2079C19.3896 41.2151 19.4083 41.2189 19.4272 41.2189C19.4464 41.2189 19.4654 41.2152 19.4831 41.208C19.5008 41.2008 19.5169 41.1903 19.5305 41.177C19.5441 41.1637 19.5548 41.148 19.5622 41.1306C19.5695 41.1133 19.5733 41.0947 19.5733 41.0759V40.7246C19.5749 40.6695 19.5964 40.6167 19.6341 40.5757C19.6754 40.5379 19.7297 40.5166 19.7863 40.5162C19.8433 40.5161 19.8982 40.5379 19.9391 40.5768C19.98 40.6158 20.0038 40.6688 20.0054 40.7246V40.8735C20.0045 40.8919 20.0076 40.9104 20.0142 40.9277C20.0209 40.945 20.0311 40.9608 20.0441 40.9742C20.0572 40.9875 20.0729 40.9982 20.0903 41.0054C20.1077 41.0127 20.1264 41.0164 20.1453 41.0164C20.1645 41.0164 20.1835 41.0127 20.2012 41.0055C20.2189 40.9983 20.235 40.9878 20.2486 40.9745C20.2622 40.9613 20.2729 40.9455 20.2803 40.9282C20.2876 40.9108 20.2914 40.8922 20.2914 40.8735V40.7305C20.2914 40.6659 20.2783 40.6019 20.2528 40.5423C20.2274 40.4826 20.1901 40.4285 20.1431 40.3831C20.0961 40.3377 20.0404 40.3019 19.9791 40.2777C19.9179 40.2535 19.8523 40.2414 19.7863 40.2422C19.7207 40.2419 19.6557 40.2543 19.5951 40.2789C19.5345 40.3034 19.4795 40.3395 19.4333 40.3851C19.3403 40.4771 19.2878 40.6011 19.2872 40.7305V41.0759Z" fill="#0DB02B"/>
<path fill-rule="evenodd" clip-rule="evenodd" d="M22.507 41.0759C22.507 41.0947 22.5108 41.1133 22.5181 41.1306C22.5255 41.148 22.5363 41.1637 22.5498 41.177C22.5634 41.1903 22.5795 41.2008 22.5972 41.208C22.6149 41.2152 22.6339 41.2189 22.6531 41.2189C22.672 41.2189 22.6907 41.2151 22.7081 41.2079C22.7255 41.2006 22.7412 41.19 22.7543 41.1767C22.7674 41.1633 22.7775 41.1475 22.7842 41.1302C22.7909 41.1129 22.7939 41.0944 22.7931 41.0759V40.7246C22.7925 40.5952 22.74 40.4712 22.647 40.3792C22.6008 40.3336 22.5458 40.2975 22.4852 40.2729C22.4246 40.2484 22.3596 40.2359 22.294 40.2363C22.2283 40.2352 22.1631 40.2474 22.1024 40.272C22.0417 40.2965 21.9868 40.333 21.9411 40.3792C21.893 40.4242 21.8548 40.4783 21.8287 40.5382C21.8025 40.598 21.7891 40.6625 21.7891 40.7276C21.7891 40.7927 21.8025 40.8571 21.8287 40.917C21.8548 40.9768 21.893 41.0309 21.9411 41.0759C21.9868 41.1221 22.0417 41.1586 22.1024 41.1832C22.1631 41.2078 22.2283 41.2199 22.294 41.2189C22.3328 41.2189 22.3699 41.2038 22.3973 41.177C22.4247 41.1502 22.4401 41.1138 22.4401 41.0759C22.4401 41.0574 22.4363 41.0391 22.4289 41.0221C22.4215 41.0051 22.4106 40.9897 22.397 40.9769C22.3833 40.9641 22.3672 40.9542 22.3495 40.9476C22.3318 40.9411 22.3129 40.9382 22.294 40.939C22.2654 40.9393 22.2369 40.9336 22.2107 40.9223C22.1845 40.911 22.161 40.8944 22.1419 40.8735C22.1213 40.8545 22.1052 40.8313 22.0947 40.8056C22.0842 40.7799 22.0795 40.7522 22.081 40.7246C22.0806 40.6971 22.0858 40.6697 22.0962 40.6442C22.1067 40.6186 22.1222 40.5954 22.1419 40.5757C22.1827 40.5371 22.2373 40.5156 22.294 40.5156C22.3508 40.5156 22.4053 40.5371 22.4462 40.5757C22.4839 40.6167 22.5055 40.6695 22.507 40.7246V41.0759Z" fill="#0DB02B"/>
<path fill-rule="evenodd" clip-rule="evenodd" d="M25.5314 34.4241L24.5698 34.0251C22.6224 33.3105 24.4968 32.4887 25.787 34.0728L25.8357 34.0192C25.9112 33.9544 25.9927 33.8966 26.0791 33.8465C25.8113 33.5844 25.4705 33.2807 25.3853 33.251C25.0955 32.9975 24.7465 32.8175 24.369 32.7269C23.7604 32.6078 23.2127 32.7269 23.2431 33.2807C23.2431 33.5606 23.3588 33.6202 23.444 33.8762C23.8213 34.8707 22.9449 35.4365 23.1214 35.9307C23.3588 36.5917 23.9917 36.7763 25.6957 35.6747C25.5443 35.4659 25.4634 35.216 25.4644 34.9601V34.9601C25.4636 34.8028 25.4947 34.647 25.5557 34.5015L25.5314 34.4241ZM27.8196 34.4241L28.7872 34.0251C30.7347 33.3105 28.8481 32.4828 27.5701 34.0787C27.4825 33.9919 27.3844 33.9159 27.278 33.8524C27.5457 33.5904 27.8866 33.2569 27.9778 33.2212C28.2676 32.9677 28.6166 32.7877 28.9942 32.6971C29.6027 32.578 30.1504 32.6971 30.12 33.251C30.12 33.5308 30.0044 33.5904 29.9192 33.8465C29.5419 34.841 30.4182 35.4067 30.2417 35.9009C30.0044 36.562 29.3654 36.7466 27.6614 35.6389C27.8316 35.435 27.9279 35.1816 27.9352 34.9184C27.9282 34.748 27.889 34.5805 27.8196 34.4241V34.4241Z" fill="#0DB02B"/>
<path fill-rule="evenodd" clip-rule="evenodd" d="M25.921 34.8826C25.9177 34.9797 25.9345 35.0765 25.9704 35.1671C26.0064 35.2577 26.0606 35.3402 26.13 35.4098C26.1993 35.4793 26.2824 35.5344 26.374 35.5717C26.4657 35.609 26.5642 35.6279 26.6634 35.627C26.8642 35.6302 27.0581 35.5556 27.2028 35.4195C27.3476 35.2834 27.4315 35.0969 27.4363 34.9005C27.4398 34.7521 27.3982 34.6061 27.3169 34.4808C27.2356 34.3556 27.1181 34.2567 26.9793 34.1968C26.8406 34.1369 26.6868 34.1186 26.5374 34.1442C26.388 34.1698 26.2497 34.2382 26.1401 34.3407C26.0657 34.4102 26.0077 34.4946 25.9699 34.5882C25.932 34.6817 25.9154 34.7822 25.921 34.8826Z" fill="#ED2E38"/>
</svg>
