<svg width="40" height="40" viewBox="0 0 40 40" fill="none" xmlns="http://www.w3.org/2000/svg">
<path d="M20.0008 39.9906C31.0434 39.9906 39.9952 31.0388 39.9952 19.9962C39.9952 8.95355 31.0434 0.00170898 20.0008 0.00170898C8.95816 0.00170898 0.00634766 8.95355 0.00634766 19.9962C0.00634766 31.0388 8.95816 39.9906 20.0008 39.9906Z" fill="#FEFEFE"/>
<path fill-rule="evenodd" clip-rule="evenodd" d="M16.5876 23.3121L10.2531 14.3558C10.2266 14.3102 10.2132 14.2582 10.2141 14.2055C10.2051 12.9214 10.4498 11.6482 10.9341 10.459C11.4184 9.26972 12.1328 8.18779 13.0363 7.27533C13.9043 6.4062 14.9351 5.71671 16.0698 5.24627C17.2045 4.77584 18.4208 4.53369 19.6491 4.53369C20.8775 4.53369 22.0938 4.77584 23.2285 5.24627C24.3631 5.71671 25.394 6.4062 26.262 7.27533C27.1686 8.18745 27.8862 9.26972 28.3734 10.46C28.8605 11.6502 29.1078 12.925 29.1008 14.2111C29.1007 14.2644 29.0852 14.3166 29.0563 14.3614L22.7218 23.3176H23.6625V25.9004C23.9282 26.1272 24.181 26.3688 24.4195 26.6241H24.6143C24.8366 26.3805 25.0746 26.1518 25.3268 25.9394V23.3399H28.4496C28.5618 23.3399 28.6694 23.3845 28.7487 23.4638C28.828 23.5432 28.8726 23.6507 28.8726 23.7629V34.4393C28.8726 34.5515 28.828 34.6591 28.7487 34.7384C28.6694 34.8177 28.5618 34.8623 28.4496 34.8623H25.3268V28.8172L25.1042 28.6669C24.9219 28.7743 24.7146 28.8319 24.503 28.8339C24.306 28.8336 24.113 28.7776 23.9464 28.6725L23.6847 28.845V34.8345H10.8821C10.7699 34.8345 10.6623 34.7899 10.5829 34.7106C10.5036 34.6312 10.459 34.5236 10.459 34.4114V28.5222H20.8069C20.768 27.9656 21.3636 27.5091 21.1576 26.8523H10.4368V23.7295C10.4368 23.6173 10.4813 23.5098 10.5607 23.4304C10.64 23.3511 10.7476 23.3065 10.8598 23.3065H16.5876V23.3121ZM27.8985 26.8578C27.6758 27.5091 28.2881 27.9377 28.2492 28.5278H28.8726V26.8578H27.8985ZM17.1275 23.3121H17.8567L14.233 14.122C14.0981 14.016 13.9547 13.921 13.8044 13.8381C13.6134 13.7448 13.4114 13.6756 13.2033 13.6322C12.7311 13.5375 12.2449 13.5375 11.7727 13.6322C11.5645 13.6756 11.3626 13.7448 11.1715 13.8381C11.0999 13.8716 11.0311 13.9107 10.9656 13.955C10.863 14.0269 10.7711 14.1132 10.6928 14.2111L17.1275 23.3121ZM18.3299 23.3121H18.8865L17.6619 14.0162L17.584 13.9606C17.518 13.9124 17.4471 13.8714 17.3725 13.8381C17.1814 13.7448 16.9795 13.6756 16.7713 13.6322C16.2954 13.5375 15.8055 13.5375 15.3296 13.6322C15.1214 13.6756 14.9195 13.7448 14.7284 13.8381C14.6848 13.8548 14.6436 13.8773 14.606 13.9049L18.3132 23.3121H18.3299ZM19.3652 23.3121H19.9219L21.152 13.9494C21.0903 13.907 21.0251 13.8698 20.9572 13.8381C20.7806 13.7474 20.5937 13.6783 20.4006 13.6322C19.9228 13.5375 19.4311 13.5375 18.9533 13.6322C18.7452 13.6756 18.5432 13.7448 18.3522 13.8381C18.2842 13.8698 18.2191 13.907 18.1573 13.9494L19.3875 23.3121H19.3652ZM20.4061 23.3121H20.9628L24.67 13.9049C24.6323 13.8773 24.5911 13.8548 24.5475 13.8381C24.3565 13.7448 24.1545 13.6756 23.9464 13.6322C23.4705 13.5375 22.9806 13.5375 22.5047 13.6322C22.2965 13.6756 22.0946 13.7448 21.9035 13.8381C21.8289 13.8714 21.758 13.9124 21.692 13.9606L21.614 14.0162L20.3894 23.3121H20.4061ZM21.4526 23.3121H22.1818L28.6165 14.2111C28.5398 14.1102 28.4478 14.0219 28.3438 13.9494C28.1044 13.7915 27.8356 13.6835 27.5534 13.6322C27.0756 13.5375 26.5839 13.5375 26.1061 13.6322C25.898 13.6756 25.696 13.7448 25.5049 13.8381C25.3485 13.905 25.2052 13.9992 25.0819 14.1164L21.4526 23.3121ZM25.2155 12.992L25.3769 12.8974C25.5882 12.7926 25.813 12.7177 26.0449 12.6747C26.5534 12.5689 27.0783 12.5689 27.5868 12.6747C27.944 12.7359 28.2816 12.8809 28.572 13.0978C28.3035 11.2174 27.4255 9.47701 26.0727 8.14368C25.0973 7.16927 23.9135 6.42893 22.6104 5.97839C22.9321 6.32176 23.221 6.69447 23.4732 7.09166C24.5077 8.88495 25.1046 10.8969 25.2155 12.9642V12.992ZM18.1017 12.992L18.2186 12.9252C18.4292 12.8237 18.6518 12.7489 18.881 12.7025C19.3914 12.5968 19.918 12.5968 20.4284 12.7025C20.6576 12.7489 20.8801 12.8237 21.0908 12.9252L21.2077 12.992C21.185 11.2284 21.008 9.47014 20.6789 7.73735C20.601 7.35884 20.2058 5.5108 19.6547 5.5108C19.1036 5.5108 18.7084 7.35884 18.6305 7.73735C18.3013 9.47014 18.1244 11.2284 18.1017 12.992ZM14.0939 13.0198C14.2039 10.9507 14.8009 8.93668 15.8362 7.14174C16.0902 6.74582 16.3789 6.37326 16.6989 6.02847C15.3959 6.47901 14.2121 7.21938 13.2367 8.1938C11.8858 9.52859 11.0082 11.2683 10.7373 13.1479C10.8325 13.0727 10.9351 13.0074 11.0435 12.953C11.2542 12.8516 11.4767 12.7768 11.7059 12.7304C12.2201 12.6254 12.7503 12.6254 13.2645 12.7304C13.4955 12.7768 13.7198 12.8516 13.9325 12.953L14.0939 13.0198Z" fill="#0DB02B"/>
<path fill-rule="evenodd" clip-rule="evenodd" d="M10.437 26.8578H21.1356C21.3582 27.509 20.7459 27.9376 20.7849 28.5277H10.437V26.8578ZM23.6627 25.9004V23.3398H25.3326V25.9004C25.0804 26.1127 24.8424 26.3414 24.6201 26.585H24.4253C24.1868 26.3298 23.934 26.0882 23.6683 25.8614L23.6627 25.9004ZM27.8987 26.9079H28.8729V28.5778H28.2494C28.2884 27.9989 27.6928 27.5703 27.8987 26.8856V26.9079ZM25.3271 28.8673V34.8622H23.6572V28.845L23.9188 28.6724C24.0854 28.7776 24.2784 28.8335 24.4754 28.8339C24.687 28.8318 24.8943 28.7742 25.0766 28.6668L25.3271 28.8673Z" fill="#FEFEFE"/>
<path fill-rule="evenodd" clip-rule="evenodd" d="M19.844 33.3481C19.8272 33.3474 19.8104 33.3499 19.7946 33.3557C19.7788 33.3614 19.7643 33.3703 19.7519 33.3816C19.7394 33.393 19.7294 33.4067 19.7223 33.422C19.7152 33.4372 19.7112 33.4537 19.7104 33.4705C19.7104 33.506 19.7245 33.54 19.7496 33.565C19.7746 33.5901 19.8086 33.6042 19.844 33.6042C19.8795 33.6042 19.9135 33.5901 19.9385 33.565C19.9636 33.54 19.9776 33.506 19.9776 33.4705C19.9776 33.4366 19.9641 33.404 19.9401 33.38C19.9161 33.356 19.8836 33.3425 19.8496 33.3425L19.844 33.3481Z" fill="#FEFEFE"/>
<path fill-rule="evenodd" clip-rule="evenodd" d="M14.801 33.4762C14.8002 33.4931 14.8028 33.5099 14.8086 33.5257C14.8143 33.5415 14.8231 33.556 14.8345 33.5684C14.8459 33.5809 14.8596 33.5909 14.8749 33.598C14.8901 33.6051 14.9066 33.6091 14.9234 33.6098C14.9589 33.6098 14.9929 33.5958 15.0179 33.5707C15.043 33.5457 15.057 33.5117 15.057 33.4762V33.1367C15.0565 33.0978 15.0676 33.0596 15.089 33.027C15.1103 32.9944 15.141 32.969 15.1769 32.954C15.2129 32.939 15.2525 32.9352 15.2906 32.9429C15.3288 32.9507 15.3638 32.9697 15.391 32.9975C15.4106 33.015 15.4261 33.0365 15.4367 33.0605C15.4473 33.0845 15.4526 33.1105 15.4522 33.1367V33.2703C15.4585 33.3004 15.4749 33.3274 15.4987 33.3468C15.5226 33.3662 15.5523 33.3768 15.5831 33.3768C15.6138 33.3768 15.6436 33.3662 15.6674 33.3468C15.6912 33.3274 15.7076 33.3004 15.7139 33.2703V33.1367C15.7014 33.0236 15.6476 32.9191 15.5629 32.8432C15.4782 32.7673 15.3684 32.7253 15.2546 32.7253C15.1409 32.7253 15.0311 32.7673 14.9464 32.8432C14.8616 32.9191 14.8079 33.0236 14.7954 33.1367L14.801 33.4762Z" fill="#FEFEFE"/>
<path fill-rule="evenodd" clip-rule="evenodd" d="M13.621 32.6912C13.6042 32.6905 13.5874 32.6931 13.5716 32.6988C13.5557 32.7046 13.5412 32.7134 13.5288 32.7248C13.5164 32.7361 13.5063 32.7498 13.4992 32.7651C13.4921 32.7804 13.4881 32.7969 13.4874 32.8137V33.0141C13.4929 33.0379 13.4929 33.0626 13.4874 33.0864C13.4778 33.1088 13.4646 33.1295 13.4484 33.1477L13.3093 33.2868L13.1646 33.1365C13.1466 33.1186 13.1316 33.0979 13.12 33.0753C13.1145 33.0515 13.1145 33.0268 13.12 33.0029V32.8026C13.1138 32.7725 13.0974 32.7454 13.0735 32.7261C13.0497 32.7067 13.0199 32.6961 12.9892 32.6961C12.9585 32.6961 12.9287 32.7067 12.9049 32.7261C12.8811 32.7454 12.8646 32.7725 12.8584 32.8026V33.0029C12.86 33.0625 12.8733 33.1211 12.8974 33.1755C12.9189 33.2296 12.9511 33.2788 12.992 33.3202L13.2202 33.5484C13.233 33.5623 13.2485 33.5733 13.2657 33.581C13.283 33.5886 13.3016 33.5927 13.3204 33.593C13.3384 33.5926 13.3562 33.5885 13.3725 33.5808C13.3888 33.5731 13.4033 33.5621 13.415 33.5484L13.6433 33.3202C13.6876 33.2805 13.7219 33.231 13.7435 33.1755C13.7658 33.1207 13.7772 33.0621 13.7769 33.0029V32.8026C13.7776 32.7858 13.775 32.769 13.7693 32.7531C13.7635 32.7373 13.7547 32.7228 13.7433 32.7104C13.732 32.698 13.7182 32.6879 13.703 32.6808C13.6877 32.6737 13.6712 32.6697 13.6544 32.6689L13.621 32.6912Z" fill="#FEFEFE"/>
<path fill-rule="evenodd" clip-rule="evenodd" d="M19.1986 32.953C19.2341 32.953 19.268 32.939 19.2931 32.9139C19.3182 32.8889 19.3322 32.8549 19.3322 32.8194C19.3322 32.7855 19.3187 32.7529 19.2947 32.7289C19.2707 32.7049 19.2382 32.6914 19.2042 32.6914C19.0832 32.692 18.9673 32.7399 18.8814 32.825C18.8372 32.8664 18.802 32.9164 18.7781 32.9719C18.7542 33.0275 18.7419 33.0874 18.7422 33.1479C18.7425 33.2091 18.7549 33.2696 18.7788 33.326C18.8027 33.3824 18.8375 33.4335 18.8814 33.4763C18.9237 33.5187 18.9741 33.5523 19.0295 33.5753C19.0849 33.5983 19.1442 33.6101 19.2042 33.6101C19.2642 33.6101 19.3235 33.5983 19.3789 33.5753C19.4343 33.5523 19.4847 33.5187 19.527 33.4763C19.5708 33.4335 19.6057 33.3824 19.6296 33.326C19.6535 33.2696 19.6659 33.2091 19.6662 33.1479V32.491C19.6662 32.4556 19.6521 32.4216 19.6271 32.3966C19.602 32.3715 19.568 32.3574 19.5326 32.3574C19.4972 32.3574 19.4632 32.3715 19.4382 32.3966C19.4131 32.4216 19.399 32.4556 19.399 32.491V33.1367C19.3976 33.1882 19.3778 33.2376 19.3434 33.2759C19.3079 33.3112 19.2598 33.3311 19.2098 33.3311C19.1597 33.3311 19.1116 33.3112 19.0762 33.2759C19.0483 33.2486 19.0293 33.2137 19.0216 33.1755C19.0138 33.1373 19.0177 33.0977 19.0327 33.0618C19.0476 33.0258 19.073 32.9952 19.1056 32.9738C19.1382 32.9525 19.1764 32.9413 19.2153 32.9419L19.1986 32.953Z" fill="#FEFEFE"/>
<path fill-rule="evenodd" clip-rule="evenodd" d="M17.4286 33.4762C17.4278 33.4931 17.4304 33.5099 17.4361 33.5257C17.4419 33.5415 17.4507 33.556 17.4621 33.5684C17.4734 33.5809 17.4872 33.5909 17.5024 33.598C17.5177 33.6051 17.5342 33.6091 17.551 33.6098C17.5864 33.6098 17.6204 33.5958 17.6455 33.5707C17.6705 33.5457 17.6846 33.5117 17.6846 33.4762V33.1367C17.6721 33.0236 17.6184 32.9191 17.5336 32.8432C17.4489 32.7673 17.3391 32.7253 17.2254 32.7253C17.1116 32.7253 17.0018 32.7673 16.9171 32.8432C16.8324 32.9191 16.7786 33.0236 16.7661 33.1367C16.7654 33.1976 16.7768 33.258 16.7998 33.3144C16.8227 33.3708 16.8567 33.4221 16.8997 33.4651C16.9861 33.5497 17.1018 33.5976 17.2226 33.5987C17.258 33.5987 17.292 33.5846 17.3171 33.5596C17.3421 33.5345 17.3562 33.5006 17.3562 33.4651C17.3562 33.4312 17.3427 33.3986 17.3187 33.3746C17.2947 33.3506 17.2621 33.3371 17.2282 33.3371C17.2019 33.3374 17.1759 33.3321 17.1519 33.3216C17.1279 33.311 17.1065 33.2954 17.089 33.2759C17.0545 33.2376 17.0348 33.1882 17.0333 33.1367C17.0326 33.1118 17.0368 33.0871 17.0456 33.0638C17.0544 33.0406 17.0677 33.0193 17.0848 33.0012C17.1019 32.9831 17.1223 32.9686 17.145 32.9584C17.1677 32.9482 17.1922 32.9426 17.217 32.9419C17.2685 32.9433 17.3179 32.9631 17.3562 32.9975C17.3755 33.0152 17.3908 33.0367 17.4014 33.0607C17.4119 33.0847 17.4174 33.1105 17.4174 33.1367L17.4286 33.4762Z" fill="#FEFEFE"/>
<path fill-rule="evenodd" clip-rule="evenodd" d="M14.7341 33.1367C14.7344 33.0604 14.7159 32.9852 14.6801 32.9178C14.6443 32.8504 14.5923 32.793 14.5289 32.7506C14.4655 32.7082 14.3926 32.6821 14.3166 32.6748C14.2407 32.6674 14.1641 32.6789 14.0937 32.7084C14.0233 32.7378 13.9614 32.7843 13.9133 32.8435C13.8652 32.9028 13.8326 32.973 13.8183 33.0479C13.8039 33.1229 13.8084 33.2002 13.8313 33.273C13.8541 33.3458 13.8946 33.4118 13.9492 33.4651C14.0379 33.5496 14.1552 33.5973 14.2776 33.5987H14.4057C14.4411 33.5987 14.4751 33.5846 14.5001 33.5596C14.5252 33.5345 14.5392 33.5005 14.5392 33.4651C14.5392 33.4312 14.5258 33.3986 14.5018 33.3746C14.4777 33.3506 14.4452 33.3371 14.4112 33.3371H14.2776C14.2258 33.3332 14.177 33.3108 14.1402 33.2741C14.1035 33.2373 14.0811 33.1885 14.0772 33.1367C14.0773 33.1105 14.0827 33.0846 14.0933 33.0607C14.1038 33.0367 14.1192 33.0152 14.1385 32.9975C14.1758 32.9615 14.2257 32.9413 14.2776 32.9413C14.3295 32.9413 14.3794 32.9615 14.4168 32.9975H14.2776C14.2608 32.9968 14.244 32.9993 14.2282 33.0051C14.2124 33.0108 14.1978 33.0197 14.1854 33.0311C14.173 33.0424 14.163 33.0561 14.1559 33.0714C14.1488 33.0866 14.1447 33.1031 14.144 33.12C14.144 33.1554 14.1581 33.1894 14.1832 33.2144C14.2082 33.2395 14.2422 33.2536 14.2776 33.2536H14.6005C14.6332 33.2538 14.6649 33.2421 14.6895 33.2205C14.7141 33.199 14.73 33.1691 14.7341 33.1367Z" fill="#FEFEFE"/>
<path fill-rule="evenodd" clip-rule="evenodd" d="M11.9788 32.6913C11.962 32.6906 11.9452 32.6931 11.9294 32.6989C11.9135 32.7046 11.899 32.7135 11.8866 32.7249C11.8742 32.7362 11.8642 32.7499 11.8571 32.7652C11.85 32.7804 11.8459 32.7969 11.8452 32.8138V33.4706C11.8452 33.506 11.8593 33.54 11.8843 33.5651C11.9094 33.5901 11.9434 33.6042 11.9788 33.6042C12.0128 33.6042 12.0453 33.5907 12.0693 33.5667C12.0933 33.5427 12.1068 33.5101 12.1068 33.4762V32.9529H12.3072C12.333 32.9522 12.3587 32.9567 12.3827 32.9662C12.4067 32.9757 12.4285 32.99 12.4467 33.0083C12.4649 33.0265 12.4793 33.0483 12.4888 33.0723C12.4983 33.0963 12.5028 33.122 12.502 33.1478V33.4762C12.502 33.4937 12.5055 33.5111 12.5122 33.5273C12.5189 33.5435 12.5288 33.5582 12.5412 33.5706C12.5536 33.583 12.5683 33.5929 12.5845 33.5996C12.6007 33.6063 12.6181 33.6097 12.6356 33.6097C12.6696 33.6097 12.7022 33.5963 12.7262 33.5723C12.7502 33.5483 12.7637 33.5157 12.7637 33.4817V33.1366C12.7637 33.0156 12.7156 32.8995 12.63 32.8139C12.5444 32.7283 12.4283 32.6802 12.3072 32.6802H11.9788V32.6913Z" fill="#FEFEFE"/>
<path fill-rule="evenodd" clip-rule="evenodd" d="M21.6865 33.1365C21.6873 33.1117 21.6831 33.0869 21.6743 33.0637C21.6654 33.0404 21.6521 33.0191 21.635 33.0011C21.618 32.983 21.5975 32.9684 21.5748 32.9582C21.5522 32.9481 21.5277 32.9425 21.5028 32.9417C21.4513 32.9432 21.402 32.9629 21.3637 32.9974C21.3441 33.0149 21.3285 33.0363 21.318 33.0603C21.3074 33.0843 21.3021 33.1103 21.3024 33.1365V33.465C21.3032 33.4818 21.3006 33.4986 21.2949 33.5144C21.2891 33.5302 21.2803 33.5447 21.2689 33.5571C21.2575 33.5696 21.2438 33.5796 21.2286 33.5867C21.2133 33.5938 21.1968 33.5978 21.18 33.5986C21.1445 33.5986 21.1106 33.5845 21.0855 33.5594C21.0605 33.5344 21.0464 33.5004 21.0464 33.465V33.1365C21.0475 33.0157 21.0954 32.9 21.18 32.8137C21.2665 32.7277 21.3836 32.6794 21.5056 32.6794C21.6276 32.6794 21.7447 32.7277 21.8312 32.8137C21.8952 32.7468 21.9778 32.7006 22.0683 32.6812C22.1588 32.6618 22.2531 32.67 22.3389 32.7048C22.4247 32.7396 22.498 32.7993 22.5495 32.8763C22.6009 32.9533 22.628 33.044 22.6272 33.1365V33.465C22.628 33.4818 22.6254 33.4986 22.6197 33.5144C22.6139 33.5302 22.6051 33.5447 22.5937 33.5571C22.5823 33.5696 22.5686 33.5796 22.5534 33.5867C22.5381 33.5938 22.5216 33.5978 22.5048 33.5986C22.4693 33.5986 22.4354 33.5845 22.4103 33.5594C22.3853 33.5344 22.3712 33.5004 22.3712 33.465V33.1365C22.3719 33.1117 22.3678 33.0869 22.3589 33.0637C22.3501 33.0404 22.3368 33.0191 22.3197 33.0011C22.3027 32.983 22.2822 32.9684 22.2595 32.9582C22.2368 32.9481 22.2124 32.9425 22.1875 32.9417C22.136 32.9432 22.0866 32.9629 22.0483 32.9974C22.0288 33.0149 22.0132 33.0363 22.0026 33.0603C21.9921 33.0843 21.9868 33.1103 21.9871 33.1365V33.465C21.9879 33.4818 21.9853 33.4986 21.9795 33.5144C21.9738 33.5302 21.965 33.5447 21.9536 33.5571C21.9422 33.5696 21.9285 33.5796 21.9132 33.5867C21.898 33.5938 21.8815 33.5978 21.8646 33.5986C21.8292 33.5986 21.7952 33.5845 21.7702 33.5594C21.7451 33.5344 21.7311 33.5004 21.7311 33.465V33.1365H21.6865Z" fill="#FEFEFE"/>
<path fill-rule="evenodd" clip-rule="evenodd" d="M16.2426 32.9529C16.2168 32.9521 16.1911 32.9567 16.1671 32.9662C16.1431 32.9757 16.1213 32.99 16.1031 33.0082C16.0849 33.0265 16.0705 33.0483 16.061 33.0723C16.0515 33.0963 16.047 33.1219 16.0477 33.1477C16.0491 33.1995 16.0699 33.2489 16.106 33.286C16.1421 33.3232 16.1908 33.3453 16.2426 33.3481H16.571C16.5878 33.3474 16.6046 33.3499 16.6204 33.3557C16.6362 33.3614 16.6508 33.3703 16.6632 33.3817C16.6756 33.393 16.6856 33.4067 16.6927 33.422C16.6998 33.4372 16.7039 33.4537 16.7046 33.4706C16.7046 33.4881 16.7011 33.5055 16.6944 33.5217C16.6877 33.5379 16.6779 33.5526 16.6655 33.565C16.653 33.5775 16.6383 33.5873 16.6221 33.594C16.6059 33.6007 16.5885 33.6042 16.571 33.6042H16.2426C16.1215 33.6042 16.0054 33.5561 15.9198 33.4705C15.8342 33.3849 15.7861 33.2688 15.7861 33.1477C15.7861 33.0267 15.8342 32.9106 15.9198 32.825C16.0054 32.7394 16.1215 32.6913 16.2426 32.6913H16.571C16.5878 32.6905 16.6046 32.6931 16.6204 32.6989C16.6362 32.7046 16.6508 32.7134 16.6632 32.7248C16.6756 32.7362 16.6856 32.7499 16.6927 32.7651C16.6998 32.7804 16.7039 32.7969 16.7046 32.8137C16.7046 32.8313 16.7011 32.8487 16.6944 32.8649C16.6877 32.8811 16.6779 32.8958 16.6655 32.9082C16.653 32.9206 16.6383 32.9304 16.6221 32.9372C16.6059 32.9439 16.5885 32.9473 16.571 32.9473L16.2426 32.9529Z" fill="#FEFEFE"/>
<path fill-rule="evenodd" clip-rule="evenodd" d="M17.7569 33.4762C17.7562 33.4931 17.7588 33.5099 17.7645 33.5257C17.7703 33.5415 17.7791 33.556 17.7905 33.5684C17.8018 33.5809 17.8155 33.5909 17.8308 33.598C17.8461 33.6051 17.8626 33.6091 17.8794 33.6098C17.9148 33.6098 17.9488 33.5958 17.9739 33.5707C17.9989 33.5457 18.013 33.5117 18.013 33.4762V33.1367C18.0122 33.1118 18.0164 33.0871 18.0252 33.0638C18.0341 33.0406 18.0474 33.0193 18.0645 33.0012C18.0815 32.9831 18.102 32.9686 18.1247 32.9584C18.1474 32.9482 18.1718 32.9426 18.1967 32.9419C18.2482 32.9433 18.2975 32.9631 18.3358 32.9975C18.3554 33.015 18.371 33.0365 18.3815 33.0605C18.3921 33.0845 18.3974 33.1105 18.3971 33.1367V33.2703C18.4033 33.3004 18.4197 33.3274 18.4435 33.3468C18.4674 33.3662 18.4972 33.3768 18.5279 33.3768C18.5586 33.3768 18.5884 33.3662 18.6122 33.3468C18.636 33.3274 18.6524 33.3004 18.6587 33.2703V33.1367C18.6462 33.0236 18.5925 32.9191 18.5077 32.8432C18.423 32.7673 18.3132 32.7253 18.1995 32.7253C18.0857 32.7253 17.9759 32.7673 17.8912 32.8432C17.8065 32.9191 17.7527 33.0236 17.7402 33.1367L17.7569 33.4762Z" fill="#FEFEFE"/>
<path fill-rule="evenodd" clip-rule="evenodd" d="M20.7013 33.4763C20.7013 33.5117 20.7153 33.5457 20.7404 33.5708C20.7655 33.5958 20.7994 33.6099 20.8349 33.6099C20.8688 33.6099 20.9014 33.5964 20.9254 33.5724C20.9494 33.5484 20.9629 33.5158 20.9629 33.4818V33.1367C20.9629 33.0157 20.9148 32.8996 20.8292 32.814C20.7436 32.7284 20.6275 32.6803 20.5064 32.6803C20.4463 32.679 20.3866 32.6902 20.331 32.7132C20.2754 32.7362 20.2252 32.7705 20.1836 32.8139C20.1394 32.8552 20.1043 32.9053 20.0803 32.9608C20.0564 33.0164 20.0442 33.0762 20.0444 33.1367C20.0459 33.2588 20.095 33.3755 20.1814 33.4618C20.2677 33.5482 20.3844 33.5973 20.5064 33.5987C20.5419 33.5987 20.5759 33.5847 20.6009 33.5596C20.626 33.5346 20.64 33.5006 20.64 33.4652C20.64 33.4312 20.6266 33.3986 20.6025 33.3746C20.5785 33.3506 20.546 33.3371 20.512 33.3371C20.4858 33.3374 20.4598 33.3321 20.4358 33.3216C20.4118 33.311 20.3903 33.2954 20.3729 33.2759C20.3368 33.2385 20.3167 33.1886 20.3167 33.1367C20.3167 33.0848 20.3368 33.0349 20.3729 32.9976C20.4108 32.9628 20.4605 32.9434 20.512 32.9434C20.5635 32.9434 20.6132 32.9628 20.6512 32.9976C20.6857 33.0359 20.7054 33.0852 20.7068 33.1367L20.7013 33.4763Z" fill="#FEFEFE"/>
<path fill-rule="evenodd" clip-rule="evenodd" d="M23.4677 27.2586L22.5882 26.8856C20.807 26.2177 22.5214 25.4495 23.7015 26.9301L23.746 26.8801C23.8117 26.8153 23.8868 26.7609 23.9687 26.7186C23.7738 26.5047 23.5616 26.3074 23.3341 26.1286C23.0715 25.8893 22.7512 25.7224 22.4046 25.6443C21.8479 25.5274 21.3469 25.6443 21.3748 26.162C21.3748 26.418 21.4805 26.4737 21.5585 26.6852C21.9036 27.6204 21.102 28.1492 21.2634 28.6056C21.4805 29.2235 22.0594 29.4016 23.618 28.3663C23.4786 28.1737 23.4045 27.9416 23.4065 27.7039C23.4058 27.5569 23.4341 27.4112 23.49 27.2752L23.4677 27.2586ZM25.5607 27.2586L26.4457 26.8856C28.227 26.2177 26.507 25.4439 25.3325 26.9357C25.2548 26.8519 25.1647 26.7806 25.0653 26.7242C25.2638 26.5102 25.4777 26.3111 25.7054 26.1286C25.968 25.8893 26.2884 25.7224 26.635 25.6443C27.1916 25.5274 27.6926 25.6443 27.6648 26.162C27.6648 26.418 27.559 26.4737 27.4811 26.6852C27.136 27.6204 27.9375 28.1492 27.7761 28.6056C27.559 29.2235 26.9745 29.4016 25.416 28.3663C25.5529 28.1805 25.6288 27.9569 25.6331 27.7262C25.6398 27.5671 25.6153 27.4082 25.5607 27.2586Z" fill="#FEFEFE"/>
<path fill-rule="evenodd" clip-rule="evenodd" d="M23.8239 27.6871C23.8209 27.7748 23.8352 27.8623 23.8661 27.9444C23.8969 28.0266 23.9437 28.1019 24.0037 28.166C24.0636 28.2301 24.1356 28.2818 24.2156 28.318C24.2955 28.3543 24.3818 28.3744 24.4696 28.3773H24.503C24.5936 28.3795 24.6838 28.3639 24.7684 28.3312C24.853 28.2986 24.9303 28.2496 24.996 28.187C25.0616 28.1245 25.1143 28.0496 25.151 27.9667C25.1877 27.8837 25.2077 27.7944 25.2099 27.7038C25.2131 27.5651 25.1751 27.4286 25.1007 27.3115C25.0263 27.1944 24.9188 27.102 24.7919 27.046C24.665 26.99 24.5243 26.9729 24.3877 26.9969C24.251 27.0208 24.1246 27.0847 24.0243 27.1805C23.956 27.2453 23.9026 27.3241 23.868 27.4116C23.8334 27.4991 23.8183 27.5931 23.8239 27.6871Z" fill="#ED2E38"/>
</svg>
