<svg width="42" height="42" viewBox="0 0 42 42" fill="none" xmlns="http://www.w3.org/2000/svg">
<path d="M21 42C32.598 42 42 32.598 42 21C42 9.40202 32.598 0 21 0C9.40202 0 0 9.40202 0 21C0 32.598 9.40202 42 21 42Z" fill="#0DB02B"/>
<path fill-rule="evenodd" clip-rule="evenodd" d="M17.416 24.5137L10.7629 15.1069C10.7351 15.059 10.7209 15.0045 10.7219 14.9491C10.7125 13.6005 10.9695 12.2632 11.4781 11.0142C11.9868 9.76509 12.7371 8.62877 13.686 7.67042C14.5977 6.75757 15.6804 6.0334 16.8721 5.5393C18.0639 5.04521 19.3413 4.79089 20.6315 4.79089C21.9216 4.79089 23.199 5.04521 24.3908 5.5393C25.5826 6.0334 26.6652 6.75757 27.5769 7.67042C29.4928 9.60685 30.5611 12.225 30.5468 14.9491C30.5467 15.0051 30.5304 15.0599 30.5001 15.1069L23.8469 24.5137H24.835V27.1738C25.1141 27.412 25.3795 27.6657 25.6301 27.9338H25.8347C26.0681 27.6779 26.3181 27.4377 26.583 27.2147V24.5078H29.8628C29.9806 24.5078 30.0937 24.5546 30.177 24.638C30.2603 24.7213 30.3071 24.8343 30.3071 24.9522V36.1596C30.3071 36.2779 30.2605 36.3916 30.1773 36.4758C30.0942 36.5601 29.9812 36.6082 29.8628 36.6097H26.583V30.2957L26.3492 30.1378C26.1566 30.2479 25.9395 30.3082 25.7178 30.3132C25.5108 30.3129 25.3082 30.2541 25.1331 30.1437L24.8584 30.3191V36.6156H11.4118C11.2934 36.614 11.1804 36.5659 11.0973 36.4817C11.0141 36.3974 10.9675 36.2838 10.9675 36.1654V29.9858H21.8358C21.7949 29.4012 22.4204 28.9218 22.2041 28.2319H10.9558V24.9522C10.9558 24.8343 11.0026 24.7213 11.0859 24.638C11.1693 24.5546 11.2823 24.5078 11.4001 24.5078L17.416 24.5137ZM29.2957 28.2378C29.0619 28.9218 29.705 29.372 29.664 29.9917H30.3188V28.2378H29.2957ZM17.9831 24.5137H18.7489L14.943 14.8965C14.8013 14.7832 14.6508 14.6815 14.4928 14.5925C14.2919 14.4963 14.0798 14.4256 13.8614 14.382C13.3655 14.2826 12.8548 14.2826 12.3589 14.382C12.1405 14.4256 11.9284 14.4963 11.7275 14.5925L11.5112 14.7211C11.4034 14.7967 11.3069 14.8872 11.2247 14.99L17.9831 24.5488V24.5137ZM19.2459 24.5137H19.8305L18.5443 14.7503L18.4625 14.686C18.3923 14.6392 18.3163 14.5983 18.2403 14.5574C18.0394 14.4612 17.8273 14.3905 17.6089 14.3469C17.1091 14.2475 16.5945 14.2475 16.0947 14.3469C15.8763 14.3905 15.6642 14.4612 15.4633 14.5574L15.3347 14.6334L19.2283 24.5137H19.2459ZM20.3333 24.5137H20.9179L22.21 14.6802C22.1452 14.6337 22.0768 14.5927 22.0053 14.5574C21.8045 14.4612 21.5924 14.3905 21.3739 14.3469C20.8721 14.2475 20.3557 14.2475 19.8539 14.3469C19.6355 14.3905 19.4234 14.4612 19.2225 14.5574C19.1511 14.5927 19.0826 14.6337 19.0179 14.6802L20.3099 24.5137H20.3333ZM21.4266 24.5137H22.0112L25.9048 14.6334L25.7762 14.5574C25.5753 14.4612 25.3632 14.3905 25.1448 14.3469C24.645 14.2475 24.1305 14.2475 23.6306 14.3469C23.4122 14.3905 23.2001 14.4612 22.9992 14.5574C22.9232 14.5983 22.8472 14.6392 22.7771 14.686L22.6952 14.7503L21.409 24.5137H21.4266ZM22.5257 24.5137H23.2915L30.0499 14.9491C29.9677 14.8463 29.8712 14.7557 29.7634 14.6802C29.512 14.5142 29.2296 14.4009 28.9332 14.3469C28.4314 14.2475 27.915 14.2475 27.4132 14.3469C27.1948 14.3905 26.9827 14.4612 26.7818 14.5574C26.6175 14.6276 26.467 14.7266 26.3375 14.8497L22.5257 24.5137ZM26.4778 13.6687C26.5323 13.6341 26.5889 13.6029 26.6473 13.5752C26.8701 13.4659 27.1058 13.3853 27.3489 13.3355C27.883 13.2244 28.4342 13.2244 28.9683 13.3355C29.3417 13.4059 29.6949 13.5576 30.0031 13.7798C29.7186 11.8057 28.7969 9.97853 27.3781 8.5766C26.3548 7.55303 25.111 6.77711 23.7417 6.30822C24.0813 6.6779 24.3847 7.07923 24.6479 7.50672C25.7343 9.3881 26.3612 11.4993 26.4778 13.6687ZM19.0062 13.6687L19.129 13.6044C19.3492 13.4953 19.5832 13.4167 19.8247 13.3706C20.3607 13.2595 20.9139 13.2595 21.4499 13.3706C21.6914 13.4167 21.9254 13.4953 22.1457 13.6044L22.2684 13.6687C22.2445 11.8184 22.0587 9.97363 21.713 8.15566C21.6312 7.75811 21.2161 5.81713 20.6373 5.81713C20.0585 5.81713 19.6434 7.75811 19.5616 8.15566C19.2159 9.97363 19.0301 11.8184 19.0062 13.6687ZM14.7968 13.7038C14.9124 11.5306 15.5394 9.41531 16.6267 7.5301C16.8899 7.10261 17.1933 6.70129 17.5329 6.33161C16.1636 6.8005 14.9198 7.57641 13.8965 8.59998C12.4798 10.0034 11.5584 11.8298 11.2715 13.8032C11.3729 13.7281 11.4805 13.6616 11.593 13.6044C11.8133 13.4953 12.0473 13.4167 12.2888 13.3706C12.8288 13.2603 13.3856 13.2603 13.9257 13.3706C14.1693 13.4157 14.4054 13.4944 14.6273 13.6044L14.7968 13.7038Z" fill="#FEFEFE"/>
<path fill-rule="evenodd" clip-rule="evenodd" d="M20.8361 35.0487C20.8084 35.0487 20.7812 35.0569 20.7582 35.0724C20.7351 35.0878 20.7171 35.1097 20.7065 35.1353C20.6959 35.161 20.6931 35.1892 20.6985 35.2164C20.7039 35.2436 20.7173 35.2686 20.7369 35.2882C20.7565 35.3079 20.7815 35.3212 20.8087 35.3266C20.8359 35.332 20.8642 35.3293 20.8898 35.3187C20.9154 35.308 20.9374 35.29 20.9528 35.267C20.9682 35.2439 20.9764 35.2168 20.9764 35.189C20.9764 35.1518 20.9616 35.1161 20.9353 35.0898C20.909 35.0635 20.8733 35.0487 20.8361 35.0487Z" fill="#0DB02B"/>
<path fill-rule="evenodd" clip-rule="evenodd" d="M15.5397 35.1891C15.5389 35.2067 15.5416 35.2244 15.5476 35.241C15.5537 35.2576 15.5629 35.2729 15.5749 35.2859C15.5868 35.2989 15.6012 35.3095 15.6173 35.3169C15.6333 35.3244 15.6506 35.3286 15.6683 35.3294C15.7055 35.3294 15.7412 35.3146 15.7675 35.2883C15.7938 35.262 15.8086 35.2263 15.8086 35.1891V34.8441C15.808 34.8032 15.8197 34.7631 15.8421 34.7289C15.8646 34.6947 15.8967 34.668 15.9345 34.6523C15.9723 34.6365 16.0139 34.6325 16.054 34.6406C16.094 34.6488 16.1308 34.6687 16.1594 34.698C16.1799 34.7163 16.1963 34.7389 16.2074 34.7641C16.2185 34.7893 16.224 34.8166 16.2237 34.8441V34.9844C16.2303 35.016 16.2475 35.0444 16.2725 35.0648C16.2975 35.0851 16.3288 35.0963 16.3611 35.0963C16.3934 35.0963 16.4246 35.0851 16.4497 35.0648C16.4747 35.0444 16.4919 35.016 16.4985 34.9844V34.8441C16.4971 34.7506 16.4687 34.6595 16.4167 34.5818C16.3648 34.5041 16.2914 34.443 16.2056 34.4059C16.1197 34.3689 16.025 34.3574 15.9328 34.3729C15.8406 34.3884 15.7548 34.4303 15.6858 34.4934C15.5965 34.5837 15.5461 34.7054 15.5455 34.8324L15.5397 35.1891Z" fill="#0DB02B"/>
<path fill-rule="evenodd" clip-rule="evenodd" d="M14.3 34.3589C14.2628 34.3589 14.2271 34.3737 14.2008 34.4C14.1745 34.4263 14.1597 34.462 14.1597 34.4992V34.7097C14.1656 34.7327 14.1656 34.7568 14.1597 34.7798C14.1482 34.8044 14.1345 34.8279 14.1188 34.85L13.9726 34.9961L13.8264 34.85C13.8088 34.828 13.7932 34.8045 13.7797 34.7798C13.7737 34.7568 13.7737 34.7327 13.7797 34.7097V34.4992C13.7805 34.4815 13.7778 34.4639 13.7717 34.4473C13.7657 34.4307 13.7564 34.4154 13.7445 34.4024C13.7325 34.3893 13.7181 34.3788 13.7021 34.3713C13.6861 34.3639 13.6687 34.3596 13.6511 34.3589C13.6138 34.3589 13.5782 34.3737 13.5518 34.4C13.5255 34.4263 13.5107 34.462 13.5107 34.4992V34.7097C13.5124 34.7722 13.5263 34.8337 13.5517 34.8909C13.5771 34.9462 13.6106 34.9974 13.6511 35.0429L13.8907 35.2826C13.9042 35.2971 13.9205 35.3087 13.9386 35.3168C13.9567 35.3248 13.9762 35.3291 13.996 35.3294C14.0149 35.329 14.0335 35.3246 14.0507 35.3166C14.0678 35.3085 14.083 35.2969 14.0954 35.2826L14.3351 35.0429C14.3754 34.9961 14.4106 34.9451 14.4403 34.8909C14.4638 34.8334 14.4757 34.7718 14.4754 34.7097V34.4992C14.477 34.4815 14.4751 34.4637 14.4698 34.4468C14.4645 34.4298 14.4558 34.4141 14.4444 34.4005C14.433 34.387 14.419 34.3758 14.4033 34.3676C14.3875 34.3595 14.3703 34.3545 14.3526 34.353L14.3 34.3589Z" fill="#0DB02B"/>
<path fill-rule="evenodd" clip-rule="evenodd" d="M20.1581 34.6394C20.1953 34.6394 20.231 34.6247 20.2573 34.5983C20.2836 34.572 20.2984 34.5363 20.2984 34.4991C20.2984 34.4619 20.2836 34.4262 20.2573 34.3999C20.231 34.3736 20.1953 34.3588 20.1581 34.3588C20.0638 34.36 19.9719 34.3889 19.894 34.442C19.816 34.4952 19.7555 34.5701 19.7199 34.6574C19.6844 34.7448 19.6754 34.8407 19.6941 34.9331C19.7128 35.0256 19.7583 35.1105 19.825 35.1772C19.8917 35.2438 19.9766 35.2894 20.069 35.3081C20.1614 35.3268 20.2573 35.3178 20.3447 35.2822C20.4321 35.2466 20.507 35.1861 20.5601 35.1082C20.6132 35.0302 20.6422 34.9384 20.6433 34.8441V34.1893C20.6433 34.1521 20.6285 34.1164 20.6022 34.09C20.5759 34.0637 20.5402 34.049 20.503 34.049C20.4658 34.049 20.4301 34.0637 20.4038 34.09C20.3775 34.1164 20.3627 34.1521 20.3627 34.1893V34.8791C20.3627 34.9196 20.3507 34.9592 20.3282 34.9928C20.3057 35.0265 20.2738 35.0527 20.2364 35.0682C20.199 35.0837 20.1579 35.0877 20.1182 35.0798C20.0785 35.0719 20.042 35.0524 20.0134 35.0238C19.9848 34.9952 19.9653 34.9587 19.9574 34.919C19.9495 34.8794 19.9536 34.8382 19.969 34.8008C19.9845 34.7634 20.0108 34.7315 20.0444 34.709C20.0781 34.6865 20.1176 34.6745 20.1581 34.6745V34.6394Z" fill="#0DB02B"/>
<path fill-rule="evenodd" clip-rule="evenodd" d="M18.2989 35.1891C18.2982 35.2067 18.3009 35.2244 18.3069 35.241C18.3129 35.2576 18.3222 35.2729 18.3342 35.2859C18.3461 35.2989 18.3605 35.3095 18.3765 35.3169C18.3926 35.3244 18.4099 35.3286 18.4276 35.3294C18.4648 35.3294 18.5005 35.3146 18.5268 35.2883C18.5531 35.262 18.5679 35.2263 18.5679 35.1891V34.8441C18.5673 34.7171 18.5169 34.5954 18.4276 34.505C18.3826 34.459 18.329 34.4224 18.2698 34.3973C18.2106 34.3723 18.1469 34.3592 18.0826 34.3589C18.0191 34.3586 17.9562 34.3715 17.8978 34.3966C17.8395 34.4218 17.787 34.4587 17.7435 34.505C17.699 34.5496 17.6637 34.6024 17.6395 34.6606C17.6154 34.7188 17.603 34.7812 17.603 34.8441C17.603 34.9071 17.6154 34.9695 17.6395 35.0277C17.6637 35.0858 17.699 35.1387 17.7435 35.1832C17.787 35.2296 17.8395 35.2665 17.8978 35.2917C17.9562 35.3168 18.0191 35.3297 18.0826 35.3294C18.1198 35.3294 18.1555 35.3146 18.1818 35.2883C18.2082 35.262 18.2229 35.2263 18.2229 35.1891C18.2229 35.1519 18.2082 35.1162 18.1818 35.0899C18.1555 35.0635 18.1198 35.0488 18.0826 35.0488C18.0285 35.0472 17.9767 35.0265 17.9365 34.9903C17.8999 34.9504 17.8796 34.8983 17.8796 34.8441C17.8796 34.79 17.8999 34.7379 17.9365 34.698C17.9757 34.6601 18.0281 34.639 18.0826 34.639C18.1372 34.639 18.1896 34.6601 18.2288 34.698C18.2493 34.7163 18.2657 34.7389 18.2768 34.7641C18.2879 34.7893 18.2934 34.8166 18.2931 34.8441L18.2989 35.1891Z" fill="#0DB02B"/>
<path fill-rule="evenodd" clip-rule="evenodd" d="M15.4693 34.8441C15.4679 34.7506 15.4395 34.6595 15.3875 34.5818C15.3355 34.5041 15.2622 34.443 15.1764 34.4059C15.0905 34.3689 14.9958 34.3574 14.9036 34.3729C14.8114 34.3884 14.7256 34.4303 14.6566 34.4934C14.6121 34.5379 14.5767 34.5907 14.5526 34.6489C14.5285 34.7071 14.5161 34.7695 14.5161 34.8324C14.5161 34.8954 14.5285 34.9578 14.5526 35.016C14.5767 35.0741 14.6121 35.127 14.6566 35.1715C14.7016 35.2175 14.7552 35.2541 14.8144 35.2792C14.8736 35.3043 14.9373 35.3174 15.0016 35.3177H15.136C15.1732 35.3177 15.2089 35.3029 15.2352 35.2766C15.2616 35.2503 15.2763 35.2146 15.2763 35.1774C15.2763 35.1402 15.2616 35.1045 15.2352 35.0782C15.2089 35.0518 15.1732 35.0371 15.136 35.0371H14.9899C14.9358 35.0355 14.8839 35.0148 14.8437 34.9786C14.8066 34.9413 14.7857 34.8909 14.7857 34.8383C14.7857 34.7857 14.8066 34.7352 14.8437 34.698C14.8829 34.6601 14.9353 34.6389 14.9899 34.6389C15.0444 34.6389 15.0968 34.6601 15.136 34.698H14.9899C14.9527 34.698 14.917 34.7128 14.8907 34.7391C14.8643 34.7654 14.8496 34.8011 14.8496 34.8383C14.8496 34.8755 14.8643 34.9112 14.8907 34.9375C14.917 34.9638 14.9527 34.9786 14.9899 34.9786H15.329C15.3652 34.9786 15.4 34.9646 15.4262 34.9396C15.4523 34.9145 15.4678 34.8803 15.4693 34.8441Z" fill="#0DB02B"/>
<path fill-rule="evenodd" clip-rule="evenodd" d="M12.5754 34.3589C12.5382 34.3589 12.5025 34.3737 12.4761 34.4C12.4498 34.4263 12.4351 34.462 12.4351 34.4992V35.1891C12.4351 35.2263 12.4498 35.262 12.4761 35.2883C12.5025 35.3146 12.5382 35.3294 12.5754 35.3294C12.611 35.3294 12.6452 35.3152 12.6705 35.29C12.6957 35.2648 12.7098 35.2306 12.7098 35.1949V34.6454H12.9203C12.9474 34.6445 12.9744 34.6493 12.9996 34.6593C13.0247 34.6693 13.0476 34.6843 13.0668 34.7035C13.086 34.7227 13.101 34.7455 13.111 34.7707C13.121 34.7959 13.1257 34.8229 13.1249 34.85V35.1949C13.1249 35.2133 13.1285 35.2316 13.1356 35.2486C13.1426 35.2656 13.153 35.2811 13.166 35.2941C13.179 35.3072 13.1945 35.3175 13.2115 35.3245C13.2286 35.3316 13.2468 35.3352 13.2652 35.3352C13.3009 35.3352 13.3351 35.3211 13.3603 35.2958C13.3855 35.2706 13.3997 35.2364 13.3997 35.2008V34.8558C13.3991 34.7288 13.3487 34.607 13.2594 34.5167C13.216 34.4704 13.1634 34.4334 13.1051 34.4083C13.0467 34.3832 12.9838 34.3703 12.9203 34.3706L12.5754 34.3589Z" fill="#0DB02B"/>
<path fill-rule="evenodd" clip-rule="evenodd" d="M22.7714 34.8441C22.772 34.8032 22.7603 34.7631 22.7379 34.7289C22.7155 34.6947 22.6833 34.668 22.6455 34.6523C22.6078 34.6366 22.5662 34.6325 22.5261 34.6406C22.486 34.6488 22.4493 34.6688 22.4206 34.698C22.4001 34.7163 22.3837 34.7389 22.3727 34.7641C22.3616 34.7893 22.356 34.8166 22.3563 34.8441V35.1891C22.3571 35.2067 22.3544 35.2244 22.3484 35.241C22.3423 35.2576 22.3331 35.2729 22.3211 35.2859C22.3092 35.2989 22.2948 35.3095 22.2787 35.3169C22.2627 35.3244 22.2454 35.3286 22.2277 35.3294C22.1905 35.3294 22.1548 35.3146 22.1285 35.2883C22.1022 35.262 22.0874 35.2263 22.0874 35.1891V34.8441C22.0886 34.7172 22.1389 34.5957 22.2277 34.505C22.2727 34.459 22.3263 34.4224 22.3855 34.3973C22.4447 34.3723 22.5083 34.3592 22.5726 34.3589C22.6362 34.3586 22.6991 34.3715 22.7574 34.3966C22.8158 34.4218 22.8683 34.4587 22.9117 34.505C22.9567 34.459 23.0103 34.4224 23.0695 34.3973C23.1287 34.3723 23.1924 34.3592 23.2567 34.3589C23.3202 34.3586 23.3831 34.3715 23.4415 34.3966C23.4998 34.4218 23.5523 34.4587 23.5958 34.505C23.6851 34.5954 23.7355 34.7171 23.7361 34.8441V35.1891C23.7369 35.2067 23.7341 35.2244 23.7281 35.241C23.7221 35.2576 23.7128 35.2729 23.7008 35.2859C23.6889 35.2989 23.6745 35.3095 23.6585 35.3169C23.6424 35.3244 23.6251 35.3286 23.6074 35.3294C23.5702 35.3294 23.5345 35.3146 23.5082 35.2883C23.4819 35.262 23.4671 35.2263 23.4671 35.1891V34.8441C23.4677 34.8032 23.4561 34.7631 23.4336 34.7289C23.4112 34.6947 23.379 34.668 23.3412 34.6523C23.3035 34.6366 23.2619 34.6325 23.2218 34.6406C23.1817 34.6488 23.145 34.6688 23.1164 34.698C23.0958 34.7163 23.0795 34.7389 23.0684 34.7641C23.0573 34.7893 23.0517 34.8166 23.052 34.8441V35.1891C23.0528 35.2067 23.0501 35.2244 23.0441 35.241C23.038 35.2576 23.0288 35.2729 23.0168 35.2859C23.0049 35.2989 22.9905 35.3095 22.9745 35.3169C22.9584 35.3244 22.9411 35.3286 22.9234 35.3294C22.8862 35.3294 22.8505 35.3146 22.8242 35.2883C22.7979 35.262 22.7831 35.2263 22.7831 35.1891V34.8441H22.7714Z" fill="#0DB02B"/>
<path fill-rule="evenodd" clip-rule="evenodd" d="M17.0538 34.6395C16.9997 34.641 16.9479 34.6618 16.9077 34.698C16.8711 34.7379 16.8508 34.79 16.8508 34.8441C16.8508 34.8983 16.8711 34.9504 16.9077 34.9903C16.9479 35.0265 16.9997 35.0472 17.0538 35.0488H17.3987C17.436 35.0488 17.4717 35.0635 17.498 35.0899C17.5243 35.1162 17.5391 35.1519 17.5391 35.1891C17.5391 35.2263 17.5243 35.262 17.498 35.2883C17.4717 35.3146 17.436 35.3294 17.3987 35.3294H17.0538C16.9903 35.3297 16.9274 35.3168 16.869 35.2917C16.8107 35.2665 16.7582 35.2296 16.7147 35.1832C16.6702 35.1387 16.6349 35.0858 16.6107 35.0277C16.5866 34.9695 16.5742 34.9071 16.5742 34.8441C16.5742 34.7812 16.5866 34.7188 16.6107 34.6606C16.6349 34.6024 16.6702 34.5496 16.7147 34.505C16.7582 34.4587 16.8107 34.4218 16.869 34.3966C16.9274 34.3715 16.9903 34.3586 17.0538 34.3589H17.3987C17.436 34.3589 17.4717 34.3737 17.498 34.4C17.5243 34.4263 17.5391 34.462 17.5391 34.4992C17.5391 34.5364 17.5243 34.5721 17.498 34.5984C17.4717 34.6247 17.436 34.6395 17.3987 34.6395H17.0538Z" fill="#0DB02B"/>
<path fill-rule="evenodd" clip-rule="evenodd" d="M18.644 35.1891C18.6432 35.2067 18.646 35.2244 18.652 35.241C18.658 35.2576 18.6673 35.2729 18.6792 35.2859C18.6912 35.2989 18.7056 35.3095 18.7216 35.3169C18.7376 35.3244 18.755 35.3286 18.7726 35.3294C18.8099 35.3294 18.8455 35.3146 18.8719 35.2883C18.8982 35.262 18.913 35.2263 18.913 35.1891V34.8441C18.9124 34.8032 18.924 34.7631 18.9465 34.7289C18.9689 34.6947 19.0011 34.668 19.0389 34.6523C19.0766 34.6366 19.1182 34.6325 19.1583 34.6406C19.1984 34.6488 19.2351 34.6688 19.2637 34.698C19.2843 34.7163 19.3006 34.7389 19.3117 34.7641C19.3228 34.7893 19.3284 34.8166 19.328 34.8441V34.9845C19.3346 35.016 19.3518 35.0444 19.3769 35.0648C19.4019 35.0852 19.4332 35.0963 19.4654 35.0963C19.4977 35.0963 19.529 35.0852 19.554 35.0648C19.579 35.0444 19.5963 35.016 19.6028 34.9845V34.8441C19.6022 34.7171 19.5519 34.5954 19.4625 34.505C19.4176 34.459 19.3639 34.4224 19.3047 34.3973C19.2455 34.3723 19.1819 34.3592 19.1176 34.3589C19.054 34.3586 18.9911 34.3715 18.9328 34.3966C18.8744 34.4218 18.8219 34.4587 18.7785 34.505C18.6891 34.5954 18.6388 34.7171 18.6382 34.8441L18.644 35.1891Z" fill="#0DB02B"/>
<path fill-rule="evenodd" clip-rule="evenodd" d="M21.7364 35.189C21.7364 35.2262 21.7512 35.2619 21.7775 35.2882C21.8039 35.3145 21.8395 35.3293 21.8768 35.3293C21.9124 35.3293 21.9466 35.3151 21.9718 35.2899C21.9971 35.2647 22.0112 35.2305 22.0112 35.1948V34.8499C22.0106 34.7229 21.9603 34.6011 21.8709 34.5108C21.8272 34.4648 21.7746 34.4282 21.7163 34.4032C21.658 34.3781 21.5953 34.3652 21.5318 34.3652C21.4684 34.3652 21.4056 34.3781 21.3473 34.4032C21.289 34.4282 21.2364 34.4648 21.1927 34.5108C21.1053 34.5985 21.0562 34.7173 21.0562 34.8411C21.0562 34.965 21.1053 35.0838 21.1927 35.1714C21.2362 35.2178 21.2887 35.2547 21.347 35.2799C21.4054 35.305 21.4683 35.3179 21.5318 35.3176C21.569 35.3176 21.6047 35.3028 21.631 35.2765C21.6574 35.2502 21.6721 35.2145 21.6721 35.1773C21.6721 35.1401 21.6574 35.1044 21.631 35.0781C21.6047 35.0518 21.569 35.037 21.5318 35.037C21.4914 35.037 21.4518 35.025 21.4181 35.0025C21.3845 34.98 21.3583 34.9481 21.3428 34.9107C21.3273 34.8733 21.3232 34.8321 21.3311 34.7924C21.339 34.7527 21.3585 34.7163 21.3871 34.6877C21.4158 34.6591 21.4522 34.6396 21.4919 34.6317C21.5316 34.6238 21.5727 34.6278 21.6101 34.6433C21.6475 34.6588 21.6795 34.685 21.702 34.7187C21.7244 34.7523 21.7364 34.7919 21.7364 34.8324V35.189Z" fill="#0DB02B"/>
<path fill-rule="evenodd" clip-rule="evenodd" d="M24.6422 28.6529L23.7185 28.2612C21.8476 27.5654 23.6483 26.7587 24.8877 28.3138L24.9345 28.2612C25.0059 28.1944 25.0843 28.1356 25.1684 28.0858C24.9646 27.8709 24.7415 27.6752 24.5019 27.5011C24.226 27.2498 23.8896 27.0745 23.5255 26.9925C22.9409 26.8697 22.4147 26.9925 22.444 27.5362C22.444 27.8051 22.555 27.8636 22.6369 28.0858C22.9994 29.068 22.1575 29.6233 22.327 30.1027C22.555 30.7517 23.1631 30.9388 24.8 29.8514C24.6536 29.6491 24.5757 29.4053 24.5779 29.1556C24.5775 28.9994 24.6073 28.8446 24.6656 28.6996L24.6422 28.6529ZM26.8404 28.6529L27.77 28.2553C29.6408 27.5596 27.8343 26.747 26.6007 28.3138C26.5191 28.2258 26.4245 28.1508 26.3201 28.0916C26.5328 27.8712 26.7572 27.6623 26.9924 27.4661C27.2682 27.2147 27.6047 27.0394 27.9687 26.9574C28.5534 26.8347 29.0795 26.9574 29.0503 27.5011C29.0503 27.7701 28.9392 27.8285 28.8574 28.0507C28.4949 29.0329 29.3368 29.5883 29.1672 30.0677C28.9392 30.7166 28.3254 30.9037 26.6884 29.8104C26.8311 29.617 26.9107 29.3843 26.9164 29.144C26.9231 28.9788 26.8973 28.8139 26.8404 28.6587V28.6529Z" fill="#0DB02B"/>
<path fill-rule="evenodd" clip-rule="evenodd" d="M25.0166 29.1089C25.0135 29.201 25.0286 29.2929 25.061 29.3792C25.0934 29.4655 25.1425 29.5446 25.2055 29.6119C25.2685 29.6792 25.3441 29.7335 25.4281 29.7716C25.512 29.8096 25.6027 29.8308 25.6948 29.8338H25.7299C25.9237 29.8338 26.1096 29.7568 26.2466 29.6198C26.3837 29.4827 26.4607 29.2968 26.4607 29.103C26.4607 28.9092 26.3837 28.7233 26.2466 28.5863C26.1096 28.4492 25.9237 28.3722 25.7299 28.3722C25.54 28.3706 25.3571 28.4441 25.2213 28.5768C25.1506 28.6454 25.0957 28.7284 25.0603 28.8203C25.025 28.9122 25.0101 29.0106 25.0166 29.1089Z" fill="#ED2E38"/>
</svg>
