<svg width="188" height="118" viewBox="0 0 188 118" fill="none" xmlns="http://www.w3.org/2000/svg">
<path fill-rule="evenodd" clip-rule="evenodd" d="M125.25 0H134.836V26.0103C137.546 28.3091 140.113 30.772 142.523 33.3854C143.191 33.3225 143.862 33.3225 144.53 33.3854C146.783 30.9054 149.176 28.5571 151.697 26.3521V0H183.664C184.812 0.00473535 185.913 0.464862 186.725 1.28019C187.537 2.09552 187.995 3.19998 188 4.35302V113.647C187.995 114.8 187.537 115.904 186.725 116.72C185.913 117.535 184.812 117.995 183.664 118H151.787V56.3198C150.998 55.8162 150.228 55.2945 149.511 54.8088C147.658 55.9182 145.54 56.5025 143.383 56.4997C141.303 56.5032 139.26 55.9439 137.47 54.8807L134.836 56.6795V118H4.33628C3.76683 118 3.20292 117.887 2.67683 117.669C2.15073 117.45 1.67272 117.129 1.27006 116.725C0.867401 116.321 0.547982 115.841 0.330064 115.313C0.112147 114.785 0 114.219 0 113.647V53.3878H105.468C105.109 47.3979 111.345 43.0448 109.051 36.3713H0V4.35302C0 3.78137 0.112147 3.21533 0.330064 2.68719C0.547982 2.15906 0.867401 1.6792 1.27006 1.27498C1.67272 0.87076 2.15073 0.550104 2.67683 0.331343C3.20292 0.112582 3.76683 0 4.33628 0H62.6965H125.25ZM178.019 36.2994C175.726 42.9728 181.961 47.3259 181.603 53.3158H187.946V36.2994H178.019Z" fill="#0DB02B"/>
<path fill-rule="evenodd" clip-rule="evenodd" d="M0 36.2994H109.051C111.345 42.9728 105.109 47.3259 105.468 53.3158H0V36.2994ZM134.836 26.0103V0H151.787V26.3701C149.266 28.5751 146.873 30.9234 144.619 33.4034C143.952 33.3405 143.28 33.3405 142.613 33.4034C140.202 30.79 137.635 28.3271 134.926 26.0284L134.836 26.0103ZM178.019 36.2994H187.946V53.3158H181.603C181.961 47.3259 175.726 42.9728 178.019 36.2994ZM151.787 56.3198V117.928H134.836V56.6076L137.47 54.8088C139.26 55.872 141.303 56.4313 143.383 56.4277C145.54 56.4305 147.658 55.8462 149.511 54.7369C150.228 55.2945 150.998 55.8162 151.787 56.3198Z" fill="#FEFEFE"/>
<path fill-rule="evenodd" clip-rule="evenodd" d="M96.0068 102.692C95.7403 102.692 95.4798 102.772 95.2584 102.921C95.037 103.07 94.8648 103.282 94.7637 103.529C94.6625 103.777 94.6369 104.049 94.6902 104.311C94.7436 104.573 94.8734 104.814 95.0631 105.002C95.2529 105.19 95.494 105.317 95.7558 105.367C96.0177 105.417 96.2885 105.387 96.5337 105.283C96.7789 105.178 96.9875 105.002 97.133 104.778C97.2785 104.553 97.3543 104.291 97.3507 104.023C97.3507 103.847 97.3159 103.672 97.2481 103.51C97.1804 103.347 97.0811 103.2 96.9561 103.076C96.831 102.952 96.6828 102.854 96.5198 102.788C96.3569 102.723 96.1825 102.69 96.0068 102.692Z" fill="#FEFEFE"/>
<path fill-rule="evenodd" clip-rule="evenodd" d="M44.4914 104.024C44.4695 104.213 44.4878 104.404 44.5449 104.586C44.602 104.767 44.6967 104.934 44.8228 105.076C44.9488 105.219 45.1034 105.332 45.2764 105.41C45.4494 105.488 45.6368 105.528 45.8263 105.528C46.0159 105.528 46.2033 105.488 46.3762 105.41C46.5492 105.332 46.7038 105.219 46.8299 105.076C46.956 104.934 47.0507 104.767 47.1078 104.586C47.1649 104.404 47.1831 104.213 47.1613 104.024V100.678C47.1661 100.14 47.3779 99.624 47.7525 99.2389C48.0343 98.9574 48.3929 98.7663 48.7829 98.6898C49.173 98.6132 49.5769 98.6546 49.9435 98.8087C50.31 98.9628 50.6228 99.2228 50.842 99.5555C51.0613 99.8883 51.1771 100.279 51.175 100.678V102.009C51.175 102.367 51.3165 102.71 51.5686 102.963C51.8206 103.216 52.1624 103.358 52.5188 103.358C52.8753 103.358 53.2171 103.216 53.4691 102.963C53.7211 102.71 53.8627 102.367 53.8627 102.009V100.678C53.9023 100.036 53.8105 99.3922 53.5929 98.787C53.3753 98.1818 53.0366 97.6278 52.5976 97.159C52.1587 96.6902 51.6287 96.3166 51.0404 96.0612C50.4521 95.8058 49.818 95.6741 49.1771 95.6741C48.5362 95.6741 47.902 95.8058 47.3137 96.0612C46.7254 96.3166 46.1955 96.6902 45.7565 97.159C45.3175 97.6278 44.9788 98.1818 44.7612 98.787C44.5437 99.3922 44.4518 100.036 44.4914 100.678V104.024Z" fill="#FEFEFE"/>
<path fill-rule="evenodd" clip-rule="evenodd" d="M32.4322 95.965C32.0789 95.9698 31.7417 96.114 31.4935 96.3665C31.2453 96.619 31.1062 96.9594 31.1062 97.3141V99.2568C31.1051 99.5113 31.0501 99.7627 30.945 99.9943C30.8525 100.235 30.7052 100.451 30.515 100.624L29.0994 102.063L27.6659 100.624C27.4868 100.441 27.3412 100.228 27.2359 99.9943C27.1463 99.7578 27.0919 99.5092 27.0746 99.2568V97.2422C27.0746 96.8844 26.933 96.5412 26.681 96.2882C26.429 96.0352 26.0871 95.8931 25.7307 95.8931C25.3743 95.8931 25.0325 96.0352 24.7805 96.2882C24.5285 96.5412 24.3868 96.8844 24.3868 97.2422V99.2927C24.3824 99.9106 24.5044 100.523 24.7452 101.092C24.9798 101.65 25.3206 102.157 25.7487 102.585L28.0781 104.923C28.2046 105.058 28.3572 105.166 28.5266 105.241C28.696 105.315 28.8787 105.354 29.0636 105.355C29.2459 105.354 29.4262 105.316 29.5928 105.241C29.7595 105.167 29.9088 105.059 30.0312 104.923L32.3785 102.585C32.8012 102.156 33.136 101.649 33.364 101.092C33.6015 100.521 33.7291 99.9108 33.7403 99.2927V97.2422C33.7223 96.9031 33.5777 96.5833 33.3353 96.3465C33.0928 96.1098 32.7704 95.9736 32.4322 95.965Z" fill="#FEFEFE"/>
<path fill-rule="evenodd" clip-rule="evenodd" d="M89.3229 98.6452C89.6762 98.6453 90.0154 98.5056 90.2669 98.2565C90.5184 98.0074 90.6621 97.6688 90.6668 97.3142C90.6621 96.9578 90.5191 96.6174 90.268 96.3654C90.017 96.1134 89.6779 95.9697 89.3229 95.9651C88.3936 95.9615 87.4842 96.2349 86.7098 96.7506C85.9354 97.2662 85.331 98.001 84.9729 98.8619C84.6148 99.7227 84.5193 100.671 84.6984 101.586C84.8775 102.502 85.3232 103.343 85.979 104.004C86.6349 104.665 87.4713 105.115 88.3825 105.299C89.2936 105.482 90.2385 105.39 91.0973 105.034C91.9562 104.677 92.6905 104.073 93.2072 103.298C93.7238 102.523 93.9996 101.611 93.9996 100.678V93.9504C94.0214 93.7614 94.0032 93.5699 93.9461 93.3884C93.889 93.207 93.7943 93.0397 93.6682 92.8976C93.5421 92.7555 93.3876 92.6418 93.2146 92.5639C93.0416 92.4861 92.8542 92.4458 92.6647 92.4458C92.4751 92.4458 92.2877 92.4861 92.1147 92.5639C91.9418 92.6418 91.7872 92.7555 91.6611 92.8976C91.535 93.0397 91.4403 93.207 91.3832 93.3884C91.3261 93.5699 91.3079 93.7614 91.3297 93.9504V100.678C91.3203 101.21 91.1089 101.718 90.7385 102.099C90.5037 102.33 90.2159 102.499 89.9006 102.592C89.5853 102.686 89.252 102.7 88.9301 102.633C88.6081 102.567 88.3073 102.422 88.0541 102.212C87.801 102.001 87.6031 101.732 87.4781 101.426C87.353 101.121 87.3045 100.79 87.3368 100.462C87.3692 100.133 87.4814 99.8179 87.6635 99.5432C87.8457 99.2686 88.0923 99.043 88.3816 98.8865C88.671 98.7299 88.9942 98.6471 89.3229 98.6452Z" fill="#FEFEFE"/>
<path fill-rule="evenodd" clip-rule="evenodd" d="M71.2617 104.024C71.2593 104.2 71.2919 104.375 71.3574 104.539C71.423 104.702 71.5203 104.851 71.6437 104.977C71.7671 105.102 71.914 105.202 72.0761 105.27C72.2381 105.338 72.412 105.373 72.5877 105.373C72.9441 105.373 73.2859 105.231 73.538 104.978C73.79 104.725 73.9316 104.381 73.9316 104.024V100.678C73.9316 99.7502 73.6577 98.8432 73.1446 98.0715C72.6315 97.2999 71.9022 96.6981 71.0486 96.3422C70.1951 95.9864 69.2557 95.8924 68.349 96.0721C67.4423 96.2518 66.609 96.6971 65.9542 97.3519C65.2995 98.0067 64.8527 98.8416 64.6702 99.7511C64.4877 100.661 64.5778 101.604 64.929 102.462C65.2802 103.32 65.8769 104.055 66.6436 104.573C67.4103 105.091 68.3128 105.369 69.237 105.373C69.4252 105.395 69.616 105.376 69.7967 105.319C69.9775 105.262 70.1441 105.167 70.2857 105.04C70.4272 104.914 70.5405 104.758 70.6181 104.585C70.6956 104.411 70.7357 104.223 70.7357 104.033C70.7357 103.842 70.6956 103.654 70.6181 103.481C70.5405 103.307 70.4272 103.152 70.2857 103.025C70.1441 102.899 69.9775 102.804 69.7967 102.746C69.616 102.689 69.4252 102.671 69.237 102.693C68.8408 102.689 68.4546 102.568 68.1269 102.344C67.7992 102.121 67.5448 101.805 67.3957 101.437C67.2465 101.068 67.2093 100.664 67.2888 100.274C67.3682 99.8844 67.5607 99.5271 67.8421 99.2472C68.1235 98.9672 68.4811 98.7771 68.8699 98.7008C69.2587 98.6246 69.6612 98.6655 70.0269 98.8185C70.3926 98.9715 70.7049 99.2297 70.9247 99.5606C71.1444 99.8915 71.2617 100.28 71.2617 100.678V104.024Z" fill="#FEFEFE"/>
<path fill-rule="evenodd" clip-rule="evenodd" d="M43.9003 100.678C43.9003 99.7494 43.626 98.8417 43.1122 98.0697C42.5983 97.2976 41.8678 96.6958 41.0133 96.3405C40.1587 95.9852 39.2184 95.8922 38.3112 96.0734C37.4041 96.2545 36.5707 96.7017 35.9167 97.3582C35.2626 98.0148 34.8172 98.8514 34.6367 99.7621C34.4563 100.673 34.5489 101.617 34.9029 102.475C35.2568 103.332 35.8563 104.066 36.6254 104.582C37.3945 105.097 38.2987 105.373 39.2236 105.373H40.5675C40.8949 105.335 41.1969 105.177 41.4161 104.93C41.6353 104.683 41.7564 104.364 41.7564 104.033C41.7564 103.702 41.6353 103.382 41.4161 103.135C41.1969 102.888 40.8949 102.731 40.5675 102.693H39.2236C38.8884 102.698 38.5571 102.62 38.2595 102.465C37.9618 102.31 37.7072 102.083 37.5184 101.805C37.3296 101.527 37.2126 101.206 37.1778 100.871C37.143 100.536 37.1916 100.198 37.3192 99.8868C37.4468 99.5755 37.6493 99.3009 37.9087 99.0877C38.1681 98.8744 38.4762 98.7292 38.8053 98.6649C39.1344 98.6007 39.4743 98.6195 39.7943 98.7197C40.1144 98.8199 40.4047 98.9983 40.6391 99.2389V99.3289H39.1519C38.9636 99.307 38.7728 99.3252 38.5921 99.3826C38.4114 99.4399 38.2447 99.535 38.1032 99.6616C37.9616 99.7881 37.8484 99.9433 37.7708 100.117C37.6933 100.291 37.6531 100.479 37.6531 100.669C37.6531 100.859 37.6933 101.047 37.7708 101.221C37.8484 101.395 37.9616 101.55 38.1032 101.676C38.2447 101.803 38.4114 101.898 38.5921 101.955C38.7728 102.013 38.9636 102.031 39.1519 102.009H42.5027C42.6827 102.019 42.8629 101.992 43.0321 101.929C43.2013 101.867 43.3561 101.77 43.487 101.646C43.6178 101.521 43.7219 101.371 43.793 101.205C43.864 101.038 43.9006 100.859 43.9003 100.678Z" fill="#FEFEFE"/>
<path fill-rule="evenodd" clip-rule="evenodd" d="M15.714 95.965C15.359 95.9697 15.0199 96.1133 14.7689 96.3653C14.5178 96.6173 14.3748 96.9578 14.3701 97.3141V104.024C14.3701 104.381 14.5118 104.724 14.7638 104.977C15.0158 105.23 15.3576 105.373 15.714 105.373C15.8896 105.373 16.0636 105.338 16.2256 105.27C16.3877 105.202 16.5346 105.102 16.658 104.976C16.7813 104.851 16.8787 104.702 16.9442 104.538C17.0098 104.375 17.0424 104.2 17.04 104.024V98.6272H19.0469C19.5839 98.6272 20.0988 98.8413 20.4786 99.2225C20.8583 99.6037 21.0716 100.121 21.0716 100.66V104.006C21.0693 104.182 21.1018 104.357 21.1674 104.52C21.233 104.684 21.3302 104.833 21.4536 104.958C21.577 105.084 21.7239 105.184 21.886 105.252C22.048 105.32 22.2219 105.355 22.3976 105.355C22.754 105.355 23.0958 105.212 23.3479 104.959C23.5999 104.706 23.7415 104.363 23.7415 104.006V100.66C23.7367 99.4114 23.2406 98.2154 22.3612 97.3326C21.4818 96.4498 20.2905 95.9518 19.0469 95.947L15.714 95.965Z" fill="#FEFEFE"/>
<path fill-rule="evenodd" clip-rule="evenodd" d="M114.696 100.678C114.691 100.14 114.479 99.624 114.104 99.2388C113.823 98.9574 113.464 98.7663 113.074 98.6897C112.684 98.6131 112.28 98.6545 111.913 98.8087C111.547 98.9628 111.234 99.2227 111.015 99.5555C110.796 99.8883 110.68 100.279 110.682 100.678V104.024C110.682 104.381 110.54 104.725 110.288 104.978C110.036 105.231 109.694 105.373 109.338 105.373C108.982 105.373 108.64 105.231 108.388 104.978C108.136 104.725 107.994 104.381 107.994 104.024V100.678C107.996 99.7472 108.272 98.8378 108.788 98.0645C109.304 97.2912 110.037 96.6886 110.893 96.3327C111.75 95.9767 112.693 95.8834 113.602 96.0645C114.512 96.2456 115.347 96.6929 116.004 97.3501C116.437 96.9106 116.954 96.5619 117.523 96.3242C118.092 96.0864 118.702 95.9644 119.319 95.9651C120.562 95.9698 121.754 96.4678 122.633 97.3506C123.512 98.2334 124.008 99.4294 124.013 100.678V104.024C124.013 104.381 123.872 104.725 123.62 104.978C123.368 105.231 123.026 105.373 122.669 105.373C122.313 105.373 121.971 105.231 121.719 104.978C121.467 104.725 121.325 104.381 121.325 104.024V100.678C121.33 100.411 121.282 100.146 121.183 99.8986C121.084 99.6509 120.937 99.4257 120.749 99.2363C120.562 99.0468 120.339 98.8968 120.094 98.7953C119.848 98.6938 119.584 98.6428 119.319 98.6453C118.787 98.6471 118.278 98.8606 117.903 99.2388C117.528 99.624 117.317 100.14 117.312 100.678V104.024C117.334 104.213 117.315 104.404 117.258 104.586C117.201 104.767 117.106 104.934 116.98 105.076C116.854 105.219 116.7 105.332 116.527 105.41C116.354 105.488 116.166 105.528 115.977 105.528C115.787 105.528 115.6 105.488 115.427 105.41C115.254 105.332 115.099 105.219 114.973 105.076C114.847 104.934 114.753 104.767 114.695 104.586C114.638 104.404 114.62 104.213 114.642 104.024V100.678H114.696Z" fill="#FEFEFE"/>
<path fill-rule="evenodd" clip-rule="evenodd" d="M59.2026 98.6453C58.6711 98.6471 58.1619 98.8606 57.787 99.2388C57.599 99.4261 57.4498 99.6489 57.348 99.8943C57.2462 100.14 57.1938 100.403 57.1938 100.669C57.1938 100.935 57.2462 101.198 57.348 101.443C57.4498 101.689 57.599 101.912 57.787 102.099C58.1619 102.477 58.6711 102.691 59.2026 102.693H62.5533C62.7416 102.671 62.9324 102.689 63.1132 102.746C63.2939 102.804 63.4605 102.899 63.602 103.025C63.7436 103.152 63.8569 103.307 63.9344 103.481C64.012 103.654 64.0521 103.842 64.0521 104.033C64.0521 104.223 64.012 104.411 63.9344 104.585C63.8569 104.758 63.7436 104.913 63.602 105.04C63.4605 105.167 63.2939 105.262 63.1132 105.319C62.9324 105.376 62.7416 105.395 62.5533 105.373H59.2026C58.01 105.299 56.8903 104.771 56.0719 103.897C55.2535 103.023 54.7979 101.868 54.7979 100.669C54.7979 99.4694 55.2535 98.3149 56.0719 97.4409C56.8903 96.5669 58.01 96.0392 59.2026 95.9651H62.5533C62.9083 95.9697 63.2474 96.1134 63.4985 96.3654C63.7495 96.6174 63.8926 96.9578 63.8972 97.3142C63.8925 97.6688 63.7488 98.0074 63.4973 98.2565C63.2458 98.5056 62.9067 98.6453 62.5533 98.6453H59.2026Z" fill="#FEFEFE"/>
<path fill-rule="evenodd" clip-rule="evenodd" d="M74.6125 104.024C74.5906 104.213 74.6088 104.404 74.666 104.586C74.7231 104.767 74.8178 104.934 74.9439 105.076C75.0699 105.219 75.2245 105.332 75.3974 105.41C75.5704 105.488 75.7578 105.528 75.9474 105.528C76.1369 105.528 76.3243 105.488 76.4973 105.41C76.6702 105.332 76.8248 105.219 76.9509 105.076C77.077 104.934 77.1717 104.767 77.2288 104.586C77.2859 104.404 77.3042 104.213 77.2823 104.024V100.678C77.2871 100.14 77.499 99.624 77.8736 99.2389C78.1553 98.9574 78.5139 98.7663 78.904 98.6898C79.294 98.6132 79.6979 98.6546 80.0645 98.8087C80.4311 98.9628 80.7438 99.2228 80.963 99.5555C81.1823 99.8883 81.2982 100.279 81.296 100.678V102.009C81.296 102.367 81.4376 102.71 81.6896 102.963C81.9416 103.216 82.2835 103.358 82.6399 103.358C82.9963 103.358 83.3381 103.216 83.5902 102.963C83.8422 102.71 83.9838 102.367 83.9838 102.009V100.678C84.0233 100.036 83.9315 99.3922 83.714 98.787C83.4964 98.1818 83.1577 97.6278 82.7187 97.159C82.2797 96.6902 81.7497 96.3166 81.1614 96.0612C80.5732 95.8058 79.939 95.6741 79.2981 95.6741C78.6572 95.6741 78.023 95.8058 77.4348 96.0612C76.8465 96.3166 76.3165 96.6902 75.8776 97.159C75.4386 97.6278 75.0999 98.1818 74.8823 98.787C74.6647 99.3922 74.5729 100.036 74.6125 100.678V104.024Z" fill="#FEFEFE"/>
<path fill-rule="evenodd" clip-rule="evenodd" d="M104.661 104.023C104.639 104.212 104.657 104.404 104.714 104.585C104.772 104.767 104.866 104.934 104.992 105.076C105.118 105.218 105.273 105.332 105.446 105.41C105.619 105.488 105.806 105.528 105.996 105.528C106.185 105.528 106.373 105.488 106.546 105.41C106.719 105.332 106.873 105.218 106.999 105.076C107.125 104.934 107.22 104.767 107.277 104.585C107.334 104.404 107.353 104.212 107.331 104.023V100.677C107.333 100.059 107.214 99.447 106.98 98.8753C106.746 98.3036 106.402 97.784 105.967 97.3461C105.533 96.9082 105.016 96.5608 104.448 96.3237C103.879 96.0867 103.27 95.9647 102.654 95.9647C102.037 95.9609 101.426 96.0816 100.857 96.3195C100.287 96.5574 99.7711 96.9078 99.3391 97.3497C98.903 97.7844 98.5569 98.3015 98.3207 98.8711C98.0845 99.4407 97.9629 100.052 97.9629 100.668C97.9629 101.285 98.0845 101.896 98.3207 102.466C98.5569 103.035 98.903 103.553 99.3391 103.987C99.7711 104.429 100.287 104.78 100.857 105.017C101.426 105.255 102.037 105.376 102.654 105.372C102.981 105.334 103.283 105.177 103.503 104.929C103.722 104.682 103.843 104.363 103.843 104.032C103.843 103.701 103.722 103.382 103.503 103.135C103.283 102.888 102.981 102.73 102.654 102.692C102.118 102.687 101.604 102.475 101.221 102.098C100.854 101.713 100.649 101.201 100.649 100.668C100.649 100.136 100.854 99.6234 101.221 99.2384C101.604 98.8623 102.118 98.6497 102.654 98.6448C103.186 98.6467 103.695 98.8602 104.07 99.2384C104.444 99.6236 104.656 100.139 104.661 100.677V104.023Z" fill="#FEFEFE"/>
<path fill-rule="evenodd" clip-rule="evenodd" d="M132.847 40.3825L123.888 36.5511C105.737 29.7518 123.207 21.8731 134.979 37.0188C135.141 36.8569 135.302 36.677 135.481 36.5151C136.157 35.8686 136.91 35.3068 137.721 34.8423C135.212 32.342 132.077 29.4459 131.252 28.8523C128.548 26.4256 125.284 24.7132 121.756 23.8697C115.878 22.7005 111.005 24.0316 111.273 29.266C111.417 31.9103 112.348 32.4679 113.065 34.6624C116.649 44.2139 108.424 49.6282 110.073 54.323C112.295 60.6368 118.19 62.4176 134.048 51.8587C132.663 49.8579 131.924 47.4778 131.933 45.0413V44.8794C131.928 43.3755 132.214 41.8849 132.775 40.4904L132.847 40.3825ZM154.152 40.3825L163.111 36.5331C181.298 29.7158 163.72 21.8191 151.948 37.0727C151.139 36.2209 150.209 35.4936 149.189 34.9142C151.715 32.378 154.923 29.5179 155.729 28.8344C158.44 26.4069 161.709 24.6946 165.244 23.8517C171.121 22.6825 175.995 24.0136 175.726 29.248C175.582 31.8922 174.651 32.4499 173.844 34.6444C170.261 44.1959 178.503 49.6103 176.855 54.3051C174.615 60.6188 168.72 62.3996 152.808 51.7868C154.188 49.8957 154.946 47.6194 154.976 45.2752C155.058 43.6095 154.776 41.946 154.152 40.4005V40.3825Z" fill="#FEFEFE"/>
<path fill-rule="evenodd" clip-rule="evenodd" d="M136.449 44.7719V44.9338C136.42 45.8611 136.578 46.7847 136.913 47.6493C137.248 48.5138 137.754 49.3014 138.4 49.9649C139.046 50.6284 139.818 51.1542 140.672 51.5106C141.525 51.867 142.441 52.0467 143.365 52.039C144.554 52.0792 145.734 51.8216 146.799 51.2897C147.864 50.7577 148.781 49.9681 149.466 48.9919C150.151 48.0156 150.583 46.8836 150.724 45.6978C150.864 44.512 150.708 43.3098 150.271 42.1994C149.833 41.0891 149.126 40.1057 148.215 39.3378C147.304 38.5699 146.217 38.0417 145.052 37.8008C143.887 37.5599 142.681 37.6139 141.542 37.9579C140.402 38.3019 139.367 38.9251 138.527 39.7713C137.855 40.4153 137.324 41.1922 136.966 42.0529C136.608 42.9136 136.432 43.8394 136.449 44.7719Z" fill="#ED2E38"/>
</svg>
